<?xml version="1.0" encoding="UTF-8" standalone="no"?>
<!-- Created with Inkscape (http://www.inkscape.org/) -->

<svg
   width="201.06599mm"
   height="201.06599mm"
   viewBox="0 0 201.06599 201.06599"
   version="1.1"
   id="svg258"
   inkscape:version="1.2.1 (9c6d41e410, 2022-07-14)"
   sodipodi:docname="icono-c.svg"
   xml:space="preserve"
   xmlns:inkscape="http://www.inkscape.org/namespaces/inkscape"
   xmlns:sodipodi="http://sodipodi.sourceforge.net/DTD/sodipodi-0.dtd"
   xmlns="http://www.w3.org/2000/svg"
   xmlns:svg="http://www.w3.org/2000/svg"><sodipodi:namedview
     id="namedview260"
     pagecolor="#ffffff"
     bordercolor="#000000"
     borderopacity="0.25"
     inkscape:showpageshadow="2"
     inkscape:pageopacity="0.0"
     inkscape:pagecheckerboard="0"
     inkscape:deskcolor="#d1d1d1"
     inkscape:document-units="mm"
     showgrid="false"
     inkscape:zoom="0.36257716"
     inkscape:cx="416.46308"
     inkscape:cy="481.27687"
     inkscape:window-width="1920"
     inkscape:window-height="1001"
     inkscape:window-x="-9"
     inkscape:window-y="-9"
     inkscape:window-maximized="1"
     inkscape:current-layer="layer1" /><defs
     id="defs255" /><g
     inkscape:label="Layer 1"
     inkscape:groupmode="layer"
     id="layer1"><circle
       style="fill:#031832;fill-opacity:1;stroke-width:0.219883;stroke-linecap:round;stroke-linejoin:round"
       id="path342"
       cx="100.533"
       cy="100.533"
       r="100.533" /><path
       style="fill:#1a2bc2;fill-opacity:1;stroke-width:0.299546;stroke-linecap:round"
       d="m 69.277921,92.524258 v -7.785862 l 5.745946,-5.167577 c 3.16027,-2.842175 9.312393,-8.338358 13.671388,-12.213736 4.358993,-3.875386 8.103764,-7.229969 8.321714,-7.454638 4.712231,-4.857259 15.838421,-13.94795 19.090011,-15.597515 3.74825,-1.901532 5.19086,-2.173857 11.42295,-2.156324 5.76812,0.01523 7.84809,0.364965 10.87081,1.822681 5.59395,2.697698 10.44868,7.381214 12.8011,12.349629 2.07939,4.391729 2.08577,4.46586 2.08577,24.197225 v 19.792009 h -9.9068 -9.90681 V 82.822005 c 0,-9.679865 -0.34033,-18.124047 -0.76225,-18.912415 -0.41924,-0.783369 -1.8092,-1.857961 -3.08879,-2.387966 -2.88599,-1.195427 -5.22222,-0.104699 -10.41576,4.863106 -1.96211,1.876795 -8.55778,8.048761 -14.65707,13.715467 -6.099285,5.666722 -13.410053,12.528243 -16.246146,15.247838 l -5.156539,4.944715 -6.934763,0.009 -6.934761,0.009 z"
       id="flc-azul"
       inkscape:export-filename="path371.png"
       inkscape:export-xdpi="96"
       inkscape:export-ydpi="96" /><path
       style="fill:#ffffff;stroke-width:0.299546;stroke-linecap:round"
       d="m 64.918928,157.6103 c -6.72608,-2.68741 -11.43281,-7.11645 -14.569674,-13.7101 -2.037543,-4.28288 -2.078095,-4.70193 -2.322313,-23.99858 l -0.24856,-19.63959 10.155361,0.2222 10.155363,0.22218 0.10094,17.22868 c 0.110216,18.81146 0.474024,20.48611 4.679764,21.54169 2.77158,0.69562 4.800019,-0.66648 14.067179,-9.44614 4.140944,-3.9231 10.688637,-10.03664 14.550432,-13.58565 3.8618,-3.54899 9.33963,-8.62369 12.17298,-11.2771 l 5.15153,-4.82438 6.93476,-0.0174 6.93476,-0.0174 v 7.81254 7.81255 l -6.53848,5.8216 c -3.59618,3.20187 -7.10911,6.37335 -7.80652,7.04771 -0.69743,0.67437 -2.48064,2.30185 -3.96273,3.61662 -1.48207,1.31478 -7.90138,7.0402 -14.26513,12.72314 -13.451849,12.01273 -16.948846,13.84107 -26.344065,13.77346 -3.254313,-0.0235 -7.027807,-0.58118 -8.8456,-1.30746 z"
       id="flc-blanco" /></g></svg>
