<?xml version="1.0" encoding="UTF-8" standalone="no"?>
<!-- Created with Inkscape (http://www.inkscape.org/) -->

<svg
   width="430.905mm"
   height="168.93201mm"
   viewBox="0 0 430.905 168.93201"
   version="1.1"
   id="svg5"
   xml:space="preserve"
   inkscape:version="1.2.1 (9c6d41e410, 2022-07-14)"
   sodipodi:docname="construccion.svg"
   xmlns:inkscape="http://www.inkscape.org/namespaces/inkscape"
   xmlns:sodipodi="http://sodipodi.sourceforge.net/DTD/sodipodi-0.dtd"
   xmlns="http://www.w3.org/2000/svg"
   xmlns:svg="http://www.w3.org/2000/svg"><sodipodi:namedview
     id="namedview7"
     pagecolor="#ffffff"
     bordercolor="#000000"
     borderopacity="0.25"
     inkscape:showpageshadow="2"
     inkscape:pageopacity="0.0"
     inkscape:pagecheckerboard="0"
     inkscape:deskcolor="#d1d1d1"
     inkscape:document-units="mm"
     showgrid="false"
     inkscape:zoom="0.72515432"
     inkscape:cx="675.71824"
     inkscape:cy="359.23388"
     inkscape:window-width="2400"
     inkscape:window-height="1271"
     inkscape:window-x="2391"
     inkscape:window-y="-9"
     inkscape:window-maximized="1"
     inkscape:current-layer="layer1" /><defs
     id="defs2"><clipPath
       id="clip0"><rect
         x="24"
         y="16"
         width="341"
         height="356"
         id="rect411" /></clipPath><clipPath
       id="clip1"><rect
         x="73"
         y="-83"
         width="143"
         height="253"
         id="rect414" /></clipPath><clipPath
       id="clip2"><rect
         x="73"
         y="-34"
         width="143"
         height="253"
         id="rect417" /></clipPath><clipPath
       id="clip3"><rect
         x="215"
         y="-34"
         width="151"
         height="253"
         id="rect420" /></clipPath><clipPath
       id="clip4"><rect
         x="73"
         y="14"
         width="143"
         height="253"
         id="rect423" /></clipPath><clipPath
       id="clip5"><rect
         x="215"
         y="14"
         width="151"
         height="253"
         id="rect426" /></clipPath><clipPath
       id="clip6"><rect
         x="73"
         y="63"
         width="143"
         height="253"
         id="rect429" /></clipPath><clipPath
       id="clip7"><rect
         x="215"
         y="63"
         width="151"
         height="253"
         id="rect432" /></clipPath><clipPath
       id="clip8"><rect
         x="215"
         y="63"
         width="151"
         height="253"
         id="rect435" /></clipPath><clipPath
       id="clip9"><rect
         x="73"
         y="112"
         width="143"
         height="253"
         id="rect438" /></clipPath><clipPath
       id="clip10"><rect
         x="215"
         y="112"
         width="151"
         height="253"
         id="rect441" /></clipPath><clipPath
       id="clip11"><rect
         x="215"
         y="112"
         width="151"
         height="253"
         id="rect444" /></clipPath><clipPath
       id="clip12"><rect
         x="73"
         y="160"
         width="143"
         height="253"
         id="rect447" /></clipPath><clipPath
       id="clip13"><rect
         x="215"
         y="160"
         width="151"
         height="253"
         id="rect450" /></clipPath><clipPath
       id="clip14"><rect
         x="215"
         y="160"
         width="151"
         height="253"
         id="rect453" /></clipPath><clipPath
       id="clip15"><rect
         x="73"
         y="209"
         width="143"
         height="253"
         id="rect456" /></clipPath><clipPath
       id="clip16"><rect
         x="215"
         y="209"
         width="151"
         height="253"
         id="rect459" /></clipPath><clipPath
       id="clip17"><rect
         x="215"
         y="209"
         width="151"
         height="253"
         id="rect462" /></clipPath></defs><g
     inkscape:label="Layer 1"
     inkscape:groupmode="layer"
     id="layer1"><g
       id="g2785"
       transform="translate(105.84688,-35.871773)"><rect
         style="fill:#ffffff;fill-opacity:1;stroke-width:0.529383;stroke-linecap:round;stroke-linejoin:round"
         id="rect2633"
         width="430.9054"
         height="168.93243"
         x="-105.84688"
         y="35.871773" /><g
         id="g2708"><rect
           style="fill:#00a6dd;fill-opacity:1;stroke-width:0.176608;stroke-linecap:round;stroke-linejoin:round"
           id="rect354"
           width="9.3040533"
           height="31.475807"
           x="54.144447"
           y="177.99347"
           transform="matrix(1,0,-0.56800381,0.82302592,0,0)" /><rect
           style="fill:#00a6dd;fill-opacity:1;stroke-width:0.176608;stroke-linecap:round;stroke-linejoin:round"
           id="rect356"
           width="9.3040533"
           height="31.475807"
           x="72.136078"
           y="177.99347"
           transform="matrix(1,0,-0.56800381,0.82302592,0,0)" /><rect
           style="fill:#00a6dd;fill-opacity:1;stroke-width:0.176608;stroke-linecap:round;stroke-linejoin:round"
           id="rect358"
           width="9.3040533"
           height="31.475807"
           x="90.127708"
           y="177.99347"
           transform="matrix(1,0,-0.56800381,0.82302592,0,0)" /><rect
           style="fill:#00a6dd;fill-opacity:1;stroke-width:0.176608;stroke-linecap:round;stroke-linejoin:round"
           id="rect360"
           width="9.3040533"
           height="31.475807"
           x="108.11934"
           y="177.99347"
           transform="matrix(1,0,-0.56800381,0.82302592,0,0)" /><rect
           style="fill:#00a6dd;fill-opacity:1;stroke-width:0.176608;stroke-linecap:round;stroke-linejoin:round"
           id="rect362"
           width="9.3040533"
           height="31.475807"
           x="126.11096"
           y="177.99347"
           transform="matrix(1,0,-0.56800381,0.82302592,0,0)" /><rect
           style="fill:#00a6dd;fill-opacity:1;stroke-width:0.176608;stroke-linecap:round;stroke-linejoin:round"
           id="rect364"
           width="9.3040533"
           height="31.475807"
           x="144.1026"
           y="177.99347"
           transform="matrix(1,0,-0.56800381,0.82302592,0,0)" /><rect
           style="fill:#00a6dd;fill-opacity:1;stroke-width:0.176608;stroke-linecap:round;stroke-linejoin:round"
           id="rect366"
           width="9.3040533"
           height="31.475807"
           x="162.09422"
           y="177.99347"
           transform="matrix(1,0,-0.56800381,0.82302592,0,0)" /><rect
           style="fill:#00a6dd;fill-opacity:1;stroke-width:0.176608;stroke-linecap:round;stroke-linejoin:round"
           id="rect368"
           width="9.3040533"
           height="31.475807"
           x="180.08585"
           y="177.99347"
           transform="matrix(1,0,-0.56800381,0.82302592,0,0)" /><rect
           style="fill:#00a6dd;fill-opacity:1;stroke-width:0.176608;stroke-linecap:round;stroke-linejoin:round"
           id="rect370"
           width="9.3040533"
           height="31.475807"
           x="198.07748"
           y="177.99347"
           transform="matrix(1,0,-0.56800381,0.82302592,0,0)" /><rect
           style="fill:#00a6dd;fill-opacity:1;stroke-width:0.176608;stroke-linecap:round;stroke-linejoin:round"
           id="rect372"
           width="9.3040533"
           height="31.475807"
           x="216.06911"
           y="177.99347"
           transform="matrix(1,0,-0.56800381,0.82302592,0,0)" /><rect
           style="fill:#00a6dd;fill-opacity:1;stroke-width:0.176608;stroke-linecap:round;stroke-linejoin:round"
           id="rect374"
           width="9.3040533"
           height="31.475807"
           x="234.06075"
           y="177.99347"
           transform="matrix(1,0,-0.56800381,0.82302592,0,0)" /><rect
           style="fill:#00a6dd;fill-opacity:1;stroke-width:0.176608;stroke-linecap:round;stroke-linejoin:round"
           id="rect376"
           width="9.3040533"
           height="31.475807"
           x="252.05237"
           y="177.99347"
           transform="matrix(1,0,-0.56800381,0.82302592,0,0)" /><rect
           style="fill:#00a6dd;fill-opacity:1;stroke-width:0.176608;stroke-linecap:round;stroke-linejoin:round"
           id="rect378"
           width="9.3040533"
           height="31.475807"
           x="270.04401"
           y="177.99347"
           transform="matrix(1,0,-0.56800381,0.82302592,0,0)" /><rect
           style="fill:#00a6dd;fill-opacity:1;stroke-width:0.176608;stroke-linecap:round;stroke-linejoin:round"
           id="rect380"
           width="9.3040533"
           height="31.475807"
           x="288.03561"
           y="177.99347"
           transform="matrix(1,0,-0.56800381,0.82302592,0,0)" /><rect
           style="fill:#00a6dd;fill-opacity:1;stroke-width:0.176608;stroke-linecap:round;stroke-linejoin:round"
           id="rect382"
           width="9.3040533"
           height="31.475807"
           x="306.02725"
           y="177.99347"
           transform="matrix(1,0,-0.56800381,0.82302592,0,0)" /><rect
           style="fill:#00a6dd;fill-opacity:1;stroke-width:0.176608;stroke-linecap:round;stroke-linejoin:round"
           id="rect384"
           width="9.3040533"
           height="31.475807"
           x="324.01889"
           y="177.99347"
           transform="matrix(1,0,-0.56800381,0.82302592,0,0)" /><rect
           style="fill:#00a6dd;fill-opacity:1;stroke-width:0.176608;stroke-linecap:round;stroke-linejoin:round"
           id="rect386"
           width="9.3040533"
           height="31.475807"
           x="342.01053"
           y="177.99347"
           transform="matrix(1,0,-0.56800381,0.82302592,0,0)" /><rect
           style="fill:#00a6dd;fill-opacity:1;stroke-width:0.176608;stroke-linecap:round;stroke-linejoin:round"
           id="rect388"
           width="9.3040533"
           height="31.475807"
           x="360.00214"
           y="177.99347"
           transform="matrix(1,0,-0.56800381,0.82302592,0,0)" /><rect
           style="fill:#00a6dd;fill-opacity:1;stroke-width:0.176608;stroke-linecap:round;stroke-linejoin:round"
           id="rect390"
           width="9.3040533"
           height="31.475807"
           x="377.99377"
           y="177.99347"
           transform="matrix(1,0,-0.56800381,0.82302592,0,0)" /><g
           style="fill:#132cc9;fill-opacity:1"
           id="g409"
           transform="matrix(6.2837911,0,0,6.2837911,197.0973,62.84223)"><path
             d="m 8.982,1.566 a 1.13,1.13 0 0 0 -1.96,0 L 0.165,13.233 C -0.292,14.011 0.256,15 1.145,15 h 13.713 c 0.889,0 1.438,-0.99 0.98,-1.767 z M 8,5 C 8.535,5 8.954,5.462 8.9,5.995 L 8.55,9.502 a 0.552,0.552 0 0 1 -1.1,0 L 7.1,5.995 A 0.905,0.905 0 0 1 8,5 Z m 0.002,6 a 1,1 0 1 1 0,2 1,1 0 0 1 0,-2 z"
             id="path400"
             style="fill:#132cc9;fill-opacity:1" /></g><g
           id="g2027"
           transform="matrix(1.4296601,0,0,1.8386602,-2.044604,201.26818)"
           style="fill:#001733;fill-opacity:1"><path
             style="fill:#001733;fill-opacity:1;stroke-width:0.130909;stroke-linecap:round;stroke-linejoin:round"
             d="m 452.8177,-246.21582 v -14.50479 h 2.92534 2.92533 v 2.07211 c 0,1.13967 0.0576,2.07212 0.12797,2.07212 0.0704,0 0.75601,-0.63923 1.52361,-1.4205 2.51602,-2.56082 5.2149,-3.63177 8.52373,-3.38231 3.04009,0.22919 5.43697,1.6705 6.73057,4.04728 1.25422,2.30442 1.36862,3.56043 1.37324,15.07749 l 0.004,10.5434 h -3.4129 -3.41289 v -10.13073 c 0,-6.66369 -0.0933,-10.50145 -0.27277,-11.21399 -0.17947,-0.71274 -0.55759,-1.33335 -1.10548,-1.8144 -0.70949,-0.62294 -1.0313,-0.73113 -2.17472,-0.73113 -1.75181,0 -2.77599,0.54792 -4.63549,2.4799 -2.8068,2.91623 -2.53777,1.62506 -2.53777,12.17966 v 9.23069 h -3.29101 -3.291 z"
             id="path2002"
             transform="scale(0.26458333)" /><path
             style="fill:#001733;fill-opacity:1;stroke-width:0.130909;stroke-linecap:round;stroke-linejoin:round"
             d="m -191.85331,-231.48706 c -0.80447,-0.12581 -2.28542,-0.42215 -3.29101,-0.65854 l -1.82833,-0.42981 -0.0678,-3.34637 c -0.0373,-1.8405 0.002,-3.34636 0.0866,-3.34636 0.085,0 1.04792,0.26895 2.13994,0.59767 3.12426,0.94048 6.14486,1.40831 9.05504,1.40245 5.07861,-0.0102 7.43523,-1.45166 7.43523,-4.54779 0,-2.64511 -1.51572,-3.87269 -7.50755,-6.08039 -5.88772,-2.16933 -8.37711,-3.92243 -9.86563,-6.94766 -0.74159,-1.5072 -0.78741,-1.75398 -0.77345,-4.16603 0.0185,-3.20142 0.56298,-4.76003 2.34325,-6.70793 1.4911,-1.6315 4.32266,-3.11625 7.02737,-3.68486 2.34265,-0.49249 8.42527,-0.33959 11.51851,0.28954 l 2.13306,0.43384 v 3.12009 3.12009 l -0.67039,-0.25908 c -1.52618,-0.58979 -5.55,-1.19126 -7.93143,-1.18556 -4.26049,0.0102 -6.11148,0.75623 -6.88198,2.77374 -1.11044,2.90765 0.42012,4.41638 6.97402,6.87462 6.10841,2.29114 8.64785,4.0223 10.22532,6.9707 0.72225,1.34992 0.83413,1.80591 0.92157,3.75617 0.21307,4.7524 -1.8792,8.45824 -5.88198,10.4182 -2.93475,1.43699 -4.16018,1.67119 -9.18781,1.75596 -2.48044,0.0418 -5.1681,-0.0269 -5.97256,-0.15269 z"
             id="path1958"
             transform="scale(0.26458333)" /><path
             style="fill:#001733;fill-opacity:1;stroke-width:0.130909;stroke-linecap:round;stroke-linejoin:round"
             d="m -163.20939,-234.39258 v -2.68156 h 4.63178 4.63178 v -9.26356 -9.26357 h -4.14423 -4.14422 v -2.55967 -2.55967 h 7.55712 7.55712 v 11.82324 11.82323 h 4.26611 4.26612 v 2.68156 2.68156 h -12.31079 -12.31079 z"
             id="path1960"
             transform="scale(0.26458333)" /><path
             style="fill:#001733;fill-opacity:1;stroke-width:0.130909;stroke-linecap:round;stroke-linejoin:round"
             d="m -151.38616,-264.49764 c -0.13408,-0.0444 -0.54344,-0.1468 -0.9097,-0.2275 -1.00221,-0.22084 -2.29839,-1.49085 -2.76288,-2.7071 -0.79647,-2.08553 0.14762,-4.47893 2.1489,-5.44774 4.36568,-2.11338 8.48773,3.11092 5.37414,6.8112 -0.33964,0.40365 -0.90614,0.87985 -1.25888,1.05823 -0.68777,0.34781 -2.1916,0.64543 -2.59158,0.51291 z"
             id="path1962"
             transform="scale(0.26458333)" /><path
             style="fill:#001733;fill-opacity:1;stroke-width:0.130909;stroke-linecap:round;stroke-linejoin:round"
             d="m -118.35424,-231.47672 c -1.74188,-0.36305 -4.03861,-1.61797 -4.98526,-2.72392 -0.47383,-0.55356 -1.10541,-1.61853 -1.4035,-2.3666 -0.51843,-1.30099 -0.54582,-1.74432 -0.63007,-10.19708 l -0.0881,-8.83695 h -3.88177 -3.88178 v -2.55967 -2.55967 h 3.89426 3.89426 l 0.0671,-3.81527 0.0671,-3.81528 3.47384,-0.9027 3.47383,-0.9027 v 4.71798 4.71797 h 5.6069 5.60689 v 2.55967 2.55967 h -5.61894 -5.61894 l 0.073,8.27103 c 0.0698,7.9132 0.0947,8.30013 0.57561,8.94378 1.01772,1.36221 1.65369,1.64209 3.98455,1.75353 1.88385,0.0901 4.13607,-0.13447 6.05623,-0.60378 0.54355,-0.13285 0.5485,-0.10997 0.5485,2.5309 v 2.66495 l -1.52361,0.31048 c -1.92113,0.39147 -8.23587,0.55678 -9.69018,0.25366 z"
             id="path1964"
             transform="scale(0.26458333)" /><path
             style="fill:#001733;fill-opacity:1;stroke-width:0.130909;stroke-linecap:round;stroke-linejoin:round"
             d="m -87.028759,-264.60431 c -1.071179,-0.25758 -1.697851,-0.64452 -2.405074,-1.485 -1.844919,-2.19257 -1.156457,-5.56814 1.386741,-6.79928 4.360784,-2.11102 8.469404,3.12016 5.356351,6.81981 -1.044802,1.24168 -2.800153,1.83426 -4.338018,1.46447 z"
             id="path1966"
             transform="scale(0.26458333)" /><path
             style="fill:#001733;fill-opacity:1;stroke-width:0.130909;stroke-linecap:round;stroke-linejoin:round"
             d="m -98.364437,-234.39258 v -2.68156 h 4.631782 4.631783 v -9.26356 -9.26357 h -4.144226 -4.144227 v -2.55967 -2.55967 h 7.679008 7.679008 v 11.82324 11.82323 h 4.144227 4.144226 v 2.68156 2.68156 h -12.31079 -12.310791 z"
             id="path1968"
             transform="scale(0.26458333)" /><path
             style="fill:#001733;fill-opacity:1;stroke-width:0.130909;stroke-linecap:round;stroke-linejoin:round"
             d="m -58.43807,-231.60204 c -1.802822,-0.43706 -4.096679,-1.60159 -5.304918,-2.69316 -4.760989,-4.30127 -5.752847,-14.49489 -2.022591,-20.78679 2.537833,-4.28061 7.503143,-6.66377 13.103323,-6.28909 6.629852,0.44356 10.587186,3.74563 12.105265,10.10084 0.426543,1.78567 0.490579,2.65992 0.396997,5.42009 -0.124748,3.67936 -0.734522,6.02372 -2.209991,8.4966 -1.619101,2.7136 -5.175915,5.19344 -8.40879,5.86267 -1.754276,0.36314 -5.954288,0.30219 -7.659295,-0.11116 z m 7.244683,-5.92691 c 1.323372,-0.60271 2.627156,-2.11245 3.316445,-3.84036 0.510874,-1.28065 0.571895,-1.82378 0.571895,-5.09028 0,-3.23247 -0.06419,-3.81722 -0.553287,-5.04056 -0.758292,-1.89664 -2.175913,-3.26723 -3.896781,-3.7675 -2.543309,-0.73936 -5.357427,-0.11587 -6.920665,1.53333 -1.735135,1.83056 -2.631824,5.72752 -2.175777,9.45583 0.423534,3.46251 1.579005,5.49948 3.726656,6.5697 1.605986,0.8003 4.384219,0.88454 5.931514,0.17984 z"
             id="path1970"
             transform="scale(0.26458333)" /><path
             style="fill:#001733;fill-opacity:1;stroke-width:0.130909;stroke-linecap:round;stroke-linejoin:round"
             d="m 7.2379161,-231.71711 c -6.4535727,-1.69066 -9.8831487,-7.11496 -9.4752274,-14.98626 0.1679189,-3.24019 0.5959418,-4.98294 1.85604067,-7.55712 1.70577663,-3.48463 4.48368023,-5.75798 8.19613773,-6.70747 6.0940149,-1.55859 12.2567249,0.8972 14.6910329,5.85425 1.237968,2.5209 1.776545,6.24828 1.351213,9.35143 l -0.155026,1.13102 H 14.072855 4.4436231 l 0.15726,1.15795 c 0.4111648,3.02751 1.6647809,4.93356 3.9985707,6.07959 1.3526231,0.66422 1.5113992,0.6848 5.1740052,0.67078 3.389143,-0.013 6.659456,-0.41604 8.213294,-1.01231 0.250845,-0.0963 0.318937,0.45138 0.318937,2.56505 v 2.68744 l -1.279834,0.27681 c -5.026617,1.08718 -10.731842,1.28945 -13.7879399,0.48884 z m 9.7792719,-18.82577 c -0.470984,-3.97467 -2.299447,-5.78972 -5.832501,-5.78972 -3.0397767,0 -5.0178833,1.46102 -6.0350498,4.45746 -0.2177811,0.64156 -0.3959655,1.43689 -0.3959655,1.7674 v 0.60092 h 6.1931423 6.193143 z"
             id="path1972"
             transform="scale(0.26458333)" /><path
             style="fill:#001733;fill-opacity:1;stroke-width:0.130909;stroke-linecap:round;stroke-linejoin:round"
             d="m 31.081699,-246.21582 v -14.50479 h 2.89344 2.89344 l 0.151103,0.91417 c 0.08311,0.50279 0.15231,1.43524 0.153785,2.07211 0.0015,0.63687 0.03426,1.15795 0.07286,1.15795 0.0386,0 0.790132,-0.70247 1.67008,-1.56105 2.541482,-2.47976 5.152179,-3.48925 8.392103,-3.24501 3.793573,0.28598 6.134362,2.10605 7.461149,5.80139 0.550283,1.53263 0.563281,1.79039 0.641263,12.71718 l 0.0796,11.15285 h -3.416509 -3.41651 l -0.07283,-10.66529 c -0.0639,-9.35629 -0.122131,-10.75512 -0.474488,-11.3972 -0.70205,-1.2793 -1.329745,-1.66775 -2.875641,-1.77957 -2.030477,-0.14687 -3.485938,0.6863 -5.664835,3.24281 l -1.662164,1.95023 -2.5e-5,9.32451 -2.6e-5,9.32451 h -3.412892 -3.412893 z"
             id="path1974"
             transform="scale(0.26458333)" /><path
             style="fill:#001733;fill-opacity:1;stroke-width:0.130909;stroke-linecap:round;stroke-linejoin:round"
             d="m 107.7586,-231.47784 c -6.54508,-1.0295 -10.947127,-5.11854 -12.716889,-11.81264 -0.367694,-1.3908 -0.45062,-2.60829 -0.448314,-6.58201 0.0025,-4.304 0.06808,-5.11847 0.559419,-6.94767 1.732006,-6.44805 5.860124,-10.7937 11.743854,-12.3627 2.20912,-0.5891 7.90436,-0.58671 10.67309,0.004 3.51916,0.75142 3.22226,0.36576 3.22226,4.18562 0,1.81337 -0.0359,3.29704 -0.0799,3.29704 -0.0439,0 -0.73624,-0.26671 -1.53847,-0.59269 -2.36379,-0.96049 -5.21956,-1.43609 -7.80967,-1.30061 -1.91082,0.0999 -2.51842,0.24057 -3.83053,0.88652 -2.6372,1.29829 -4.36953,3.81864 -5.14693,7.48824 -0.46827,2.21041 -0.46671,7.50304 0.003,9.72978 1.50391,7.13144 7.26274,9.72617 15.45507,6.96353 1.15185,-0.38844 2.28626,-0.78204 2.52089,-0.87469 0.39298,-0.15516 0.42662,0.0799 0.42662,2.98167 v 3.15012 l -1.52362,0.52929 c -3.53667,1.22863 -8.34833,1.754 -11.5098,1.25672 z"
             id="path1976"
             transform="scale(0.26458333)" /><path
             style="fill:#001733;fill-opacity:1;stroke-width:0.130909;stroke-linecap:round;stroke-linejoin:round"
             d="m 135.90625,-231.6853 c -4.81186,-1.31339 -7.84246,-4.63645 -8.91363,-9.77383 -0.49773,-2.38711 -0.49207,-6.99316 0.0113,-9.16346 1.62717,-7.01623 7.34567,-11.1799 14.75305,-10.74178 8.23768,0.48722 12.67646,5.59637 12.67646,14.59093 0,1.76051 -0.15292,3.58827 -0.38935,4.65373 -1.19125,5.36823 -4.9348,9.35707 -9.87447,10.52145 -2.14609,0.50588 -6.24939,0.46266 -8.26332,-0.087 z m 7.43523,-5.84686 c 2.89575,-1.32836 4.17013,-4.44046 3.95894,-9.66794 -0.13424,-3.32278 -0.36232,-4.23627 -1.46678,-5.87451 -1.17694,-1.74577 -2.63328,-2.40626 -5.29051,-2.39942 -2.35746,0.006 -3.59921,0.48939 -4.73975,1.84485 -1.57102,1.86704 -2.12425,3.80706 -2.12036,7.43543 0.005,4.69083 1.27178,7.40317 4.04616,8.66348 1.34129,0.60931 4.2821,0.60831 5.6123,-0.002 z"
             id="path1978"
             transform="scale(0.26458333)" /><path
             style="fill:#001733;fill-opacity:1;stroke-width:0.130909;stroke-linecap:round;stroke-linejoin:round"
             d="m 160.77161,-246.21582 v -14.50479 h 2.89691 c 3.337,0 3.18822,-0.12205 3.19422,2.62062 0.002,0.83798 0.052,1.52361 0.11141,1.52361 0.0594,0 0.6538,-0.57593 1.32077,-1.27984 2.43227,-2.56697 5.44656,-3.77176 8.8034,-3.51866 3.61962,0.27291 6.19554,2.28873 7.37783,5.77361 0.51787,1.52646 0.54057,1.99349 0.61894,12.7374 l 0.0814,11.15285 h -3.41452 -3.41452 l -0.0728,-10.66529 c -0.0784,-11.48426 -0.069,-11.39866 -1.38619,-12.59069 -0.53911,-0.48789 -2.50795,-0.79877 -3.49298,-0.55154 -1.10709,0.27786 -2.83241,1.65433 -4.30484,3.43441 l -1.49317,1.80515 v 9.28398 9.28398 h -3.41289 -3.4129 z"
             id="path1980"
             transform="scale(0.26458333)" /><path
             style="fill:#001733;fill-opacity:1;stroke-width:0.130909;stroke-linecap:round;stroke-linejoin:round"
             d="m 198.19154,-231.47556 c -0.80446,-0.12009 -2.14829,-0.34432 -2.98628,-0.49829 l -1.52361,-0.27993 v -3.01963 c 0,-1.66079 0.0356,-3.01962 0.0792,-3.01962 0.0436,0 0.89373,0.27779 1.88928,0.6173 5.20877,1.77637 11.708,1.78207 13.37115,0.0117 0.82584,-0.87907 0.95234,-2.50464 0.2629,-3.37833 -0.75986,-0.96295 -2.0149,-1.5405 -6.5633,-3.02035 -5.33423,-1.73552 -7.18324,-2.96128 -8.30791,-5.50757 -0.60046,-1.35948 -0.72098,-3.9203 -0.2557,-5.43344 0.71121,-2.31293 3.04977,-4.46596 5.92251,-5.45264 3.13211,-1.07575 8.30893,-1.25075 12.98223,-0.43885 l 1.70645,0.29646 0.0687,2.71959 0.0687,2.71959 -1.77516,-0.45011 c -2.39359,-0.60692 -6.57757,-1.03835 -8.09543,-0.83476 -2.59931,0.34865 -3.79652,1.27209 -3.79652,2.92835 0,1.96335 1.47234,2.9497 6.70389,4.49107 5.19412,1.53033 7.91799,3.32702 8.7512,5.77237 0.49117,1.4415 0.50446,4.33147 0.0262,5.68713 -0.87935,2.49235 -3.16353,4.49587 -6.2965,5.52282 -1.8168,0.59553 -2.38181,0.65922 -6.38129,0.71942 -2.41341,0.0363 -5.04621,-0.0322 -5.85068,-0.15231 z"
             id="path1982"
             transform="scale(0.26458333)" /><path
             style="fill:#001733;fill-opacity:1;stroke-width:0.130909;stroke-linecap:round;stroke-linejoin:round"
             d="m 237.80547,-231.65111 c -3.1799,-0.86056 -5.10596,-2.60144 -5.99646,-5.41994 -0.36075,-1.14179 -0.43957,-2.63604 -0.52416,-9.93704 l -0.0995,-8.59318 h -3.88137 -3.88136 v -2.55967 -2.55967 h 3.90045 3.90045 v -3.75965 -3.75966 l 0.79227,-0.25204 c 1.11283,-0.35401 5.70216,-1.49221 6.01674,-1.49221 0.17574,0 0.26055,1.50773 0.26055,4.63178 v 4.63178 h 5.60689 5.6069 v 2.55967 2.55967 h -5.6069 -5.60689 v 7.87113 c 0,7.67785 0.0135,7.89784 0.5485,8.95884 1.06626,2.11447 3.9326,2.71847 8.63268,1.81909 1.05089,-0.20109 1.93814,-0.36564 1.97166,-0.36567 0.0335,-2e-5 0.0609,1.19494 0.0609,2.65547 v 2.65551 l -1.52361,0.29444 c -0.83799,0.16194 -3.11427,0.33848 -5.0584,0.39231 -2.83914,0.0786 -3.84662,0.0135 -5.11934,-0.33096 z"
             id="path1984"
             transform="scale(0.26458333)" /><path
             style="fill:#001733;fill-opacity:1;stroke-width:0.130909;stroke-linecap:round;stroke-linejoin:round"
             d="m 259.25794,-246.2231 v -14.51208 l 3.10817,0.0682 3.10817,0.0682 0.0708,2.01117 c 0.0389,1.10614 0.16115,2.01117 0.27157,2.01117 0.11042,0 0.51125,-0.44803 0.89072,-0.99561 0.37948,-0.54758 1.28234,-1.4198 2.00637,-1.93827 1.93985,-1.38909 3.40386,-1.82101 6.14599,-1.8132 2.02302,0.006 2.50894,0.0949 3.84238,0.70497 3.07662,1.40757 4.60239,4.12027 5.05917,8.99483 l 0.17552,1.87306 h -3.41004 -3.41005 l -0.17079,-1.52361 c -0.20979,-1.87146 -0.86679,-3.42443 -1.67193,-3.95197 -2.1303,-1.39583 -4.93192,-0.25474 -7.60164,3.09613 l -1.34485,1.68797 v 9.36553 9.36553 h -3.53478 -3.53478 z"
             id="path1986"
             transform="scale(0.26458333)" /><path
             style="fill:#001733;fill-opacity:1;stroke-width:0.130909;stroke-linecap:round;stroke-linejoin:round"
             d="m 296.11839,-231.68524 c -1.60414,-0.55408 -2.86157,-1.54191 -3.8872,-3.05377 -1.59053,-2.34458 -1.60895,-2.5042 -1.71161,-14.82875 l -0.0929,-11.15285 h 3.41831 3.41831 l 0.0729,10.5434 c 0.0714,10.32225 0.0842,10.5644 0.6086,11.54456 0.63199,1.18122 1.6352,1.68822 3.29037,1.66288 1.58618,-0.0243 3.08485,-1.00945 5.12451,-3.36862 l 1.65382,-1.9129 v -9.23466 -9.23466 h 3.41289 3.41289 v 14.50479 14.5048 h -2.8922 -2.8922 l -0.15502,-1.13103 c -0.0853,-0.62206 -0.15503,-1.62736 -0.15503,-2.23399 v -1.10298 l -1.6455,1.57601 c -0.90503,0.86681 -2.02945,1.8068 -2.49873,2.08887 -2.16928,1.30391 -6.01812,1.68003 -8.48226,0.8289 z"
             id="path1988"
             transform="scale(0.26458333)" /><path
             style="fill:#001733;fill-opacity:1;stroke-width:0.130909;stroke-linecap:round;stroke-linejoin:round"
             d="m 334.06231,-231.58752 c -3.37924,-0.64241 -6.18259,-2.09993 -7.90618,-4.11059 -1.20005,-1.39992 -2.47876,-4.09771 -2.90538,-6.1297 -0.45935,-2.18788 -0.45857,-5.86477 0.002,-8.03768 1.17551,-5.54936 5.44376,-9.82148 10.96723,-10.97717 2.90413,-0.60763 8.07463,-0.4285 11.15284,0.38639 l 0.91417,0.24201 v 3.15972 c 0,1.73784 -0.0525,3.15972 -0.11676,3.15972 -0.0642,0 -0.92673,-0.2719 -1.9167,-0.60423 -0.98998,-0.33232 -2.66859,-0.7014 -3.73026,-0.82018 -4.79091,-0.53601 -7.85772,0.93252 -9.56965,4.5824 -0.57702,1.23022 -0.63409,1.62618 -0.63409,4.39913 0,2.77295 0.0571,3.1689 0.63409,4.39912 1.27633,2.72115 3.25043,4.18673 6.20257,4.60481 2.36193,0.33449 6.05627,-0.22562 9.04001,-1.37059 0.27224,-0.10447 0.33457,0.42254 0.33457,2.82906 v 2.95745 l -0.67039,0.25546 c -3.08116,1.1741 -8.62089,1.67881 -11.79778,1.07487 z"
             id="path1990"
             transform="scale(0.26458333)" /><path
             style="fill:#001733;fill-opacity:1;stroke-width:0.130909;stroke-linecap:round;stroke-linejoin:round"
             d="m 366.48479,-231.58752 c -5.56356,-1.05766 -8.99486,-4.02896 -10.55883,-9.14329 -0.61407,-2.00806 -0.76184,-6.75423 -0.28057,-9.01121 0.92166,-4.32226 3.64648,-7.96198 7.31369,-9.76939 1.08715,-0.53581 2.74454,-1.13487 3.68308,-1.33125 2.90414,-0.60763 8.07464,-0.4285 11.15285,0.38639 l 0.91417,0.24201 v 3.15972 c 0,1.73784 -0.0525,3.15972 -0.11676,3.15972 -0.0642,0 -0.92673,-0.2719 -1.91671,-0.60423 -2.26588,-0.76063 -5.2003,-1.09908 -7.18082,-0.82823 -4.36324,0.59671 -6.86928,3.87628 -6.86928,8.98958 0,7.5716 5.4475,10.8026 13.94603,8.27163 0.9417,-0.28045 1.86273,-0.56768 2.04674,-0.63829 0.27225,-0.10447 0.33458,0.42254 0.33458,2.82906 v 2.95745 l -0.67039,0.25546 c -3.08116,1.1741 -8.62089,1.67881 -11.79778,1.07487 z"
             id="path1992"
             transform="scale(0.26458333)" /><path
             style="fill:#001733;fill-opacity:1;stroke-width:0.130909;stroke-linecap:round;stroke-linejoin:round"
             d="m 387.97274,-234.39258 v -2.68156 h 4.63179 4.63178 v -9.26356 -9.26357 h -4.14423 -4.14422 v -2.55967 -2.55967 h 7.679 7.67901 v 11.82324 11.82323 h 4.14423 4.14422 v 2.68156 2.68156 h -12.31079 -12.31079 z"
             id="path1994"
             transform="scale(0.26458333)" /><path
             style="fill:#001733;fill-opacity:1;stroke-width:0.130909;stroke-linecap:round;stroke-linejoin:round"
             d="m 399.18653,-264.66371 c -2.00274,-0.5691 -3.16911,-2.16397 -3.16911,-4.33336 0,-1.87048 0.79325,-3.08865 2.60851,-4.00581 1.37815,-0.69632 3.54528,-0.34603 4.78279,0.77306 1.2514,1.13164 1.72805,3.3898 1.05535,4.99979 -0.43534,1.04191 -1.87012,2.27612 -3.01593,2.59431 -1.06458,0.29564 -1.12537,0.29489 -2.26161,-0.028 z"
             id="path1996"
             transform="scale(0.26458333)" /><path
             style="fill:#001733;fill-opacity:1;stroke-width:0.130909;stroke-linecap:round;stroke-linejoin:round"
             d="m 427.95234,-231.60928 c -6.27806,-1.65632 -9.51573,-6.56692 -9.50311,-14.41342 0.005,-3.37836 0.46782,-5.53555 1.73961,-8.1159 1.82822,-3.70929 4.95357,-6.07215 9.22617,-6.97525 3.56128,-0.75276 8.45662,-0.006 11.16247,1.70162 2.49355,1.57411 4.40508,4.48478 5.30447,8.07708 0.62027,2.47743 0.57156,7.18359 -0.10042,9.70248 -1.39312,5.22207 -4.98614,8.89741 -9.80965,10.03441 -1.97039,0.46446 -6.23951,0.45859 -8.01954,-0.011 z m 7.53158,-6.10723 c 2.5466,-1.26903 3.72554,-3.98034 3.74869,-8.62119 0.0224,-4.49765 -0.94117,-6.91784 -3.34645,-8.40492 -1.09699,-0.67822 -1.36755,-0.73676 -3.40481,-0.73676 -1.9655,0 -2.33841,0.0737 -3.33292,0.65831 -1.32446,0.77863 -2.29317,1.97631 -2.99064,3.69753 -0.43103,1.06369 -0.50803,1.78043 -0.51415,4.78584 -0.009,4.23215 0.35289,5.5229 2.06492,7.37295 1.31696,1.42312 2.43848,1.86542 4.76675,1.87991 1.38309,0.009 1.97175,-0.11499 3.00861,-0.63167 z"
             id="path1998"
             transform="scale(0.26458333)" /><path
             style="fill:#001733;fill-opacity:1;stroke-width:0.130909;stroke-linecap:round;stroke-linejoin:round"
             d="m 432.71372,-268.52721 3.66238,-3.66238 4.44811,0.0666 4.44811,0.0667 -4.80313,3.59573 -4.80313,3.59572 h -3.30736 -3.30736 z"
             id="path2000"
             transform="scale(0.26458333)" /></g><g
           id="g2107"
           transform="matrix(0.76955643,0,0,0.9001124,60.821236,138.95607)"
           style="fill:#001733;fill-opacity:1"><path
             style="fill:#001733;fill-opacity:1;stroke-width:0.0654544;stroke-linecap:round;stroke-linejoin:round"
             d="m 629.80055,-98.953988 c -1.72822,-0.438389 -2.96971,-1.585542 -3.47045,-3.206752 -0.31091,-1.0066 -0.31266,-1.75567 -0.006,-2.74711 0.58794,-1.90353 2.17341,-3.18889 4.13645,-3.35346 1.6087,-0.13487 3.21757,0.64635 4.18605,2.0326 1.7461,2.49932 0.67424,5.97508 -2.17789,7.062309 -0.83153,0.316979 -1.9153,0.403273 -2.66772,0.212413 z"
             id="path2079"
             transform="scale(0.26458333)" /><path
             style="fill:#001733;fill-opacity:1;stroke-width:0.0654544;stroke-linecap:round;stroke-linejoin:round"
             d="m -126.33797,-118.11868 v -18.71818 l 6.79532,0.0487 c 6.47213,0.0464 6.85328,0.0616 8.0142,0.31909 3.1939,0.70845 4.89596,1.5621 6.71181,3.36623 1.10257,1.09547 1.28971,1.34849 1.84813,2.49873 0.90688,1.868 1.07154,2.67387 1.05854,5.18028 -0.0118,2.27526 -0.15894,3.06841 -0.89894,4.84596 -1.34683,3.23524 -4.47321,5.88118 -8.24681,6.97953 -1.8519,0.53902 -3.15519,0.68291 -6.84143,0.75535 l -3.44337,0.0677 v 6.6874 6.687406 h -2.49872 -2.49873 z m 11.27872,0.92314 c 2.79436,-0.2474 4.56858,-0.95074 5.97066,-2.36691 1.48555,-1.50047 2.01463,-2.93735 2.02453,-5.4983 0.009,-2.44953 -0.48773,-3.8217 -1.90206,-5.24928 -0.96023,-0.96922 -2.06835,-1.59177 -3.60193,-2.02358 -0.81685,-0.23 -1.31543,-0.2619 -4.84155,-0.30971 l -3.93092,-0.0533 v 7.8111 7.81111 l 2.46826,-0.001 c 1.35753,-6.1e-4 3.07339,-0.0546 3.81301,-0.1201 z"
             id="path2029"
             transform="scale(0.26458333)" /><path
             style="fill:#001733;fill-opacity:1;stroke-width:0.0654544;stroke-linecap:round;stroke-linejoin:round"
             d="m -92.696598,-113.7834 v -14.3829 h 2.177024 2.177025 l 0.07686,0.63992 c 0.04227,0.35195 0.07734,1.56322 0.07792,2.69171 5.85e-4,1.12849 0.04684,2.03352 0.10279,2.01117 0.05595,-0.0224 0.470431,-0.45201 0.921066,-0.9548 2.172141,-2.42355 4.407807,-3.90912 6.924182,-4.60102 1.056287,-0.29044 3.744596,-0.28725 4.851369,0.006 2.927441,0.775 4.98977,2.9533 5.792664,6.1184 0.305194,1.20312 0.545565,3.11547 0.545565,4.34045 v 0.71842 h -2.480117 -2.480117 l -0.07532,-1.4322 c -0.08254,-1.56948 -0.405373,-2.94947 -0.88065,-3.76445 -0.430278,-0.73781 -1.423205,-1.57772 -2.150894,-1.81942 -1.288825,-0.42808 -3.09372,-0.20914 -4.617623,0.56012 -1.322851,0.66778 -3.543358,2.68875 -5.339515,4.85971 l -0.746674,0.90248 v 9.24478 9.244776 h -2.437781 -2.43778 z"
             id="path2031"
             transform="scale(0.26458333)" /><path
             style="fill:#001733;fill-opacity:1;stroke-width:0.0654544;stroke-linecap:round;stroke-linejoin:round"
             d="m -51.49811,-98.864074 c -3.88697,-0.450512 -6.186127,-1.456166 -8.244601,-3.606186 -1.753026,-1.83099 -2.823131,-4.12621 -3.414219,-7.32301 -0.298741,-1.61568 -0.301309,-5.69233 -0.0046,-7.28113 0.748908,-4.01003 2.757905,-7.35583 5.55737,-9.25531 5.287741,-3.5878 13.478312,-2.95444 17.508425,1.3539 2.431003,2.59884 3.612734,6.15709 3.615912,10.88769 0.002,3.01316 -0.388986,5.13279 -1.364855,7.39877 -1.745272,4.05254 -5.112925,6.77693 -9.37391,7.58338 -0.964103,0.182471 -3.537337,0.327919 -4.279536,0.241896 z m 3.317166,-4.247376 c 3.405151,-0.60718 5.734414,-3.36458 6.49279,-7.6862 0.224489,-1.27926 0.259067,-4.29984 0.06487,-5.66731 -0.710176,-5.00093 -3.428921,-7.79056 -7.808304,-8.01187 -2.56162,-0.12946 -4.471367,0.54641 -6.100454,2.15899 -1.536332,1.52076 -2.36694,3.40704 -2.739999,6.22241 -0.489676,3.69546 0.149294,7.49046 1.647633,9.78568 1.717515,2.63097 4.888647,3.83216 8.44346,3.1983 z"
             id="path2033"
             transform="scale(0.26458333)" /><path
             style="fill:#001733;fill-opacity:1;stroke-width:0.0654544;stroke-linecap:round;stroke-linejoin:round"
             d="m -49.362567,-136.4567 3.414839,-3.41484 3.431415,0.0324 3.431416,0.0324 -4.460379,3.38242 -4.460378,3.38242 h -2.385876 -2.385875 z"
             id="path2035"
             transform="scale(0.26458333)" /><path
             style="fill:#001733;fill-opacity:1;stroke-width:0.0654544;stroke-linecap:round;stroke-linejoin:round"
             d="m -30.559647,-100.64986 c 9.240063,-11.96731 10.145954,-13.16674 10.04284,-13.297 -0.247424,-0.31256 -10.35285,-13.95168 -10.432544,-14.08063 -0.06331,-0.10243 0.727064,-0.13881 3.016018,-0.13881 h 3.101809 l 3.765424,5.50658 c 2.070983,3.02862 3.818572,5.52251 3.883531,5.54198 0.06496,0.0195 1.789067,-2.45849 3.831352,-5.50658 l 3.7132452,-5.54198 h 2.9601784 c 1.6280984,0 2.9601784,0.028 2.9601784,0.0622 0,0.0342 -2.1265222,2.90011 -4.7256056,6.36871 -2.5990824,3.4686 -5.0153514,6.70107 -5.3694864,7.18327 l -0.643883,0.87672 5.6115733,7.13947 5.6115741,7.139461 -3.2494003,-0.03246 -3.2493991,-0.03246 -3.848944,-5.449791 c -2.116919,-2.99739 -3.879378,-5.45193 -3.916575,-5.45454 -0.0372,-0.003 -1.7924,2.46264 -3.900449,5.47833 l -3.832817,5.483056 -3.146631,0.0019 -3.146632,0.0019 z"
             id="path2037"
             transform="scale(0.26458333)" /><path
             style="fill:#001733;fill-opacity:1;stroke-width:0.0654544;stroke-linecap:round;stroke-linejoin:round"
             d="m 3.717615,-101.41166 v -2.01117 h 4.7536717 4.7536713 v -10.36057 -10.36056 H 8.9588428 4.6927272 v -2.01117 -2.01117 h 6.7648408 6.76484 v 12.37173 12.37174 h 4.266116 4.266115 v 2.01117 2.011166 H 15.236127 3.717615 Z"
             id="path2039"
             transform="scale(0.26458333)" /><path
             style="fill:#001733;fill-opacity:1;stroke-width:0.0654544;stroke-linecap:round;stroke-linejoin:round"
             d="m 13.502205,-132.75015 c -0.738416,-0.26974 -1.667524,-1.15596 -2.068971,-1.97346 -0.287484,-0.58543 -0.341333,-0.84892 -0.341333,-1.6702 0,-0.82175 0.05379,-1.08466 0.342039,-1.67164 1.141702,-2.32496 4.290814,-2.90138 6.12294,-1.12076 1.25761,1.22226 1.567238,2.93328 0.809384,4.4727 -0.414796,0.84257 -1.045967,1.488 -1.832654,1.87406 -0.60306,0.29594 -2.326735,0.34672 -3.031405,0.0893 z"
             id="path2041"
             transform="scale(0.26458333)" /><path
             style="fill:#001733;fill-opacity:1;stroke-width:0.0654544;stroke-linecap:round;stroke-linejoin:round"
             d="m 33.824202,-113.7834 v -14.3829 h 1.81071 1.810709 l 0.0777,0.82275 c 0.04274,0.45251 0.08491,1.3164 0.09371,1.91975 0.0088,0.60335 0.05114,1.48095 0.09407,1.95023 l 0.07807,0.85322 0.592437,-1.15795 c 1.247299,-2.4379 2.439981,-3.83849 3.818659,-4.48432 0.626056,-0.29327 0.847729,-0.33011 1.987065,-0.3302 1.202237,-9e-5 1.333014,0.0248 2.092157,0.39855 0.445368,0.21925 0.987169,0.6007 1.204003,0.84766 0.779425,0.88772 1.326625,2.59282 1.330944,4.14729 0.0012,0.41899 0.04446,0.7618 0.09622,0.7618 0.05176,0 0.386612,-0.58964 0.744124,-1.31031 1.668617,-3.36357 3.186808,-4.7158 5.469625,-4.87171 2.473546,-0.16894 4.332044,1.1254 5.137073,3.57769 0.597391,1.81978 0.620602,2.35758 0.621371,14.39709 l 7.19e-4,11.244266 h -2.250892 -2.250893 l -0.03464,-11.731816 c -0.03225,-10.92263 -0.04963,-11.76941 -0.251952,-12.27685 -0.305861,-0.76711 -0.638766,-1.07686 -1.257015,-1.16957 -0.697192,-0.10455 -1.485743,0.27245 -2.095777,1.00197 -0.536529,0.64162 -1.47426,2.24067 -2.471833,4.21507 l -0.722677,1.43032 v 9.26544 9.265436 h -2.194003 -2.194002 l -0.0044,-9.781596 c -0.0058,-12.72336 -0.0921,-14.21736 -0.869475,-15.04484 -0.359574,-0.38275 -1.133684,-0.4772 -1.78269,-0.21752 -0.942024,0.37692 -1.701593,1.45633 -3.362501,4.77838 l -0.928576,1.85729 v 9.20414 9.204146 H 36.01824 33.824237 Z"
             id="path2043"
             transform="scale(0.26458333)" /><path
             style="fill:#001733;fill-opacity:1;stroke-width:0.0654544;stroke-linecap:round;stroke-linejoin:round"
             d="m 74.915514,-98.922257 c -1.171842,-0.131669 -2.948973,-0.691644 -3.873254,-1.220463 -2.462268,-1.40877 -3.726513,-4.06913 -3.544386,-7.45849 0.110742,-2.06089 0.79517,-3.7459 2.114875,-5.20666 0.999959,-1.10683 2.888296,-2.18186 4.71083,-2.68186 2.089759,-0.57332 2.655124,-0.62649 7.372535,-0.69338 l 4.540366,-0.0644 v -1.72863 c 0,-2.5974 -0.378621,-3.74001 -1.632146,-4.92554 -1.142274,-1.08032 -2.290657,-1.46779 -4.645138,-1.56731 -2.62351,-0.1109 -6.045698,0.49503 -8.931073,1.58133 l -1.130175,0.42549 0.03317,-2.20063 0.03317,-2.20064 0.669785,-0.22756 c 1.109201,-0.37685 4.00061,-1.05618 5.363721,-1.26018 1.820734,-0.2725 4.825217,-0.36595 6.155396,-0.19145 5.082676,0.66674 7.806547,2.81878 8.807275,6.95831 0.164538,0.68062 0.198473,2.29971 0.240781,11.48804 l 0.04925,10.695766 H 89.06345 86.876397 l -0.07618,-0.380903 c -0.0419,-0.209497 -0.07618,-1.059673 -0.07618,-1.889283 0,-0.8296 -0.0322,-1.50837 -0.07155,-1.50837 -0.03935,0 -0.491865,0.36036 -1.005584,0.8008 -2.071719,1.77621 -4.024533,2.782184 -6.373672,3.283345 -1.090176,0.232578 -3.111591,0.312664 -4.357716,0.172648 z m 4.540746,-4.252863 c 1.789747,-0.45774 3.906276,-1.6513 5.957469,-3.35954 l 0.822751,-0.68519 v -2.67233 -2.67233 l -3.016753,0.003 c -5.889064,0.005 -7.644648,0.34762 -9.187738,1.791 -1.914597,1.79088 -1.855007,5.44763 0.113163,6.94425 1.15282,0.87662 3.368104,1.14831 5.311108,0.65137 z"
             id="path2045"
             transform="scale(0.26458333)" /><path
             style="fill:#001733;fill-opacity:1;stroke-width:0.0654544;stroke-linecap:round;stroke-linejoin:round"
             d="m 98.66916,-113.7834 v -14.3829 h 1.81739 1.8174 l 0.0687,1.00558 c 0.0378,0.55307 0.1117,1.80091 0.16418,2.77298 l 0.0954,1.76739 0.59201,-1.15795 c 1.22784,-2.40161 2.46771,-3.85512 3.82096,-4.47934 0.61818,-0.28516 0.86162,-0.32565 1.98446,-0.33005 1.12988,-0.004 1.35903,0.0321 1.95578,0.31192 1.68471,0.78995 2.48793,2.20556 2.63832,4.64983 0.0402,0.65363 0.10629,1.18777 0.14682,1.18697 0.0405,-7.9e-4 0.42494,-0.68938 0.85425,-1.5302 1.25778,-2.46342 2.23179,-3.58004 3.73785,-4.28514 0.65047,-0.30454 0.85093,-0.33777 2.00265,-0.33204 1.03566,0.005 1.41465,0.0595 1.98641,0.28504 1.43195,0.56478 2.44736,1.96013 3.03413,4.16944 0.27103,1.02048 0.27209,1.06424 0.31182,12.87767 l 0.0399,11.853706 h -2.256 -2.256 l -0.0373,-11.731816 c -0.0402,-12.66509 -0.0201,-12.28923 -0.69861,-13.04862 -0.31163,-0.34877 -0.41842,-0.38965 -1.01803,-0.38965 -0.54958,0 -0.76469,0.0666 -1.19772,0.37098 -0.68334,0.48026 -1.63582,1.91306 -2.89236,4.3509 l -0.98882,1.91842 v 9.26489 9.264896 h -2.194 -2.194 l -0.003,-10.025376 c -0.003,-9.70775 -0.0875,-12.93239 -0.36657,-13.90184 -0.0734,-0.25497 -0.29009,-0.63892 -0.48157,-0.85322 -0.31028,-0.34727 -0.4198,-0.38965 -1.00696,-0.38965 -1.31286,0 -2.1324,0.92813 -3.92017,4.43957 l -1.04791,2.05825 v 9.33613 9.336136 h -2.25494 -2.25495 z"
             id="path2047"
             transform="scale(0.26458333)" /><path
             style="fill:#001733;fill-opacity:1;stroke-width:0.0654544;stroke-linecap:round;stroke-linejoin:round"
             d="m 143.87569,-98.909803 c -2.24535,-0.218847 -4.02942,-0.718437 -5.73576,-1.606167 -3.78624,-1.96982 -5.7587,-5.55477 -6.21543,-11.29652 -0.56464,-7.0983 2.23108,-12.99303 7.39465,-15.59147 3.47405,-1.74825 8.49763,-1.65322 11.99684,0.22692 4.23385,2.27487 6.37478,7.01309 6.03803,13.36317 l -0.0856,1.61503 h -10.1798 -10.17979 l 0.0827,1.01909 c 0.29334,3.61537 1.77042,5.99194 4.52167,7.27522 1.75681,0.81943 2.30774,0.90852 5.60689,0.90666 3.0612,-0.002 4.92537,-0.20046 7.47533,-0.79693 0.55836,-0.13061 1.06573,-0.23748 1.12747,-0.23748 0.0637,0 0.11227,0.84056 0.11227,1.9445 v 1.94449 l -0.45708,0.12971 c -2.92942,0.831248 -8.65819,1.380989 -11.50234,1.103777 z m 8.42464,-17.806057 c 0,-1.81478 -0.52135,-3.65308 -1.42293,-5.01736 -1.29758,-1.96349 -3.43695,-3.01545 -6.13419,-3.01627 -3.02559,-9.2e-4 -5.34301,1.51669 -6.67246,4.36959 -0.4421,0.9487 -0.92561,2.68877 -1.0455,3.76258 l -0.0714,0.63992 h 7.67326 7.67327 z"
             id="path2049"
             transform="scale(0.26458333)" /><path
             style="fill:#001733;fill-opacity:1;stroke-width:0.0654544;stroke-linecap:round;stroke-linejoin:round"
             d="m 165.46434,-113.7834 v -14.3829 h 2.17575 2.17575 l 0.0792,1.11572 c 0.0436,0.61365 0.0799,1.53239 0.0809,2.04165 0.003,1.67499 -0.0493,1.67361 1.62829,0.0429 2.09836,-2.03975 3.33921,-2.81472 5.44073,-3.39794 1.09666,-0.30436 4.08927,-0.30752 5.29768,-0.006 2.92211,0.73008 5.01077,2.87335 5.78092,5.93205 0.46061,1.82934 0.49904,2.83518 0.49939,13.0726 l 3.4e-4,9.964426 h -2.43257 -2.43257 l -0.0422,-10.208206 c -0.0462,-11.17893 -0.0268,-10.87122 -0.78261,-12.4147 -0.38371,-0.78364 -1.29266,-1.67624 -2.04652,-2.0097 -0.7378,-0.32637 -2.10083,-0.48046 -3.05483,-0.34536 -1.00319,0.14207 -1.79193,0.44563 -2.68958,1.03511 -0.85127,0.55903 -2.9878,2.65574 -4.0494,3.97395 l -0.75305,0.93506 v 9.51692 9.516926 h -2.43778 -2.43778 z"
             id="path2051"
             transform="scale(0.26458333)" /><path
             style="fill:#001733;fill-opacity:1;stroke-width:0.0654544;stroke-linecap:round;stroke-linejoin:round"
             d="m 165.46434,-113.7834 v -14.3829 h 2.17594 2.17593 l 0.0783,1.00558 c 0.0431,0.55307 0.0795,1.49924 0.0809,2.10259 10e-4,0.60335 0.055,1.17927 0.1191,1.27983 0.0939,0.14733 0.35982,-0.0567 1.36938,-1.05076 2.1039,-2.07151 3.25716,-2.83517 5.15334,-3.41239 0.99508,-0.30292 1.27818,-0.33443 3.04722,-0.33912 1.67373,-0.004 2.08787,0.0342 2.92106,0.2723 1.43439,0.40998 2.32042,0.92727 3.36773,1.9662 1.44403,1.43248 2.24313,3.30484 2.54879,5.97205 0.0682,0.59519 0.11969,5.30612 0.12027,11.0051 l 9.9e-4,9.964426 h -2.4297 -2.4297 l -0.0484,-10.208206 c -0.0428,-9.02791 -0.0718,-10.29656 -0.25099,-10.97235 -0.60286,-2.27361 -1.92453,-3.54016 -3.96108,-3.79588 -1.62481,-0.20402 -3.0076,0.13647 -4.41634,1.08743 -0.92447,0.62406 -2.91498,2.5886 -3.98896,3.93691 l -0.75821,0.95187 v 9.50011 9.500116 h -2.43778 -2.43778 z"
             id="path2053"
             transform="scale(0.26458333)" /><path
             style="fill:#001733;fill-opacity:1;stroke-width:0.0654544;stroke-linecap:round;stroke-linejoin:round"
             d="m 212.5135,-98.99368 c -2.19213,-0.214421 -3.97553,-0.695236 -5.23868,-1.41238 -0.8866,-0.50335 -2.10839,-1.68181 -2.62447,-2.53138 -0.52963,-0.87186 -1.10312,-2.59485 -1.27005,-3.81569 -0.0818,-0.59801 -0.13036,-3.99465 -0.13036,-9.1112 v -8.15775 h -4.08329 -4.08328 v -2.07211 -2.07211 h 4.08328 4.08329 v -3.95799 -3.95799 l 0.63991,-0.17885 c 1.22361,-0.342 3.99384,-1.04685 4.11437,-1.04685 0.0783,0 0.12128,1.62021 0.12128,4.57084 v 4.57084 h 6.52106 6.52106 v 2.07211 2.07211 h -6.52106 -6.52106 v 7.80604 c 0,6.63947 0.0288,7.94536 0.19257,8.73833 0.23198,1.1231 0.63008,1.9447 1.28826,2.65875 0.62228,0.67508 1.26769,1.05222 2.41962,1.41386 0.82824,0.26002 1.12038,0.28563 3.10817,0.27254 1.82805,-0.012 2.46846,-0.0678 3.8395,-0.33437 0.90503,-0.17597 1.76891,-0.35413 1.91975,-0.39591 l 0.27425,-0.076 v 2.08163 2.081633 l -0.45708,0.122258 c -1.83975,0.492085 -6.26731,0.848373 -8.19704,0.659619 z"
             id="path2055"
             transform="scale(0.26458333)" /><path
             style="fill:#001733;fill-opacity:1;stroke-width:0.0654544;stroke-linecap:round;stroke-linejoin:round"
             d="m 241.2174,-98.907588 c -6.87421,-0.620771 -10.77998,-4.271692 -11.83133,-11.059342 -0.24438,-1.57776 -0.28278,-5.29294 -0.0678,-6.55897 0.62995,-3.7097 1.87184,-6.29143 4.10162,-8.52677 2.29929,-2.30502 4.77918,-3.40252 8.05266,-3.56378 6.0757,-0.29929 10.59085,2.56225 12.34594,7.82443 0.67415,2.02126 0.98267,4.78728 0.81249,7.28413 l -0.0892,1.30905 h -10.166 c -9.60103,0 -10.16595,0.0119 -10.165,0.21331 5.5e-4,0.11731 0.0559,0.70695 0.1231,1.3103 0.36181,3.25043 1.80796,5.50064 4.30071,6.69191 1.8328,0.87588 2.49194,0.9875 5.81386,0.98457 2.99515,-0.003 4.89419,-0.20654 7.41439,-0.79605 0.55836,-0.13061 1.06572,-0.23748 1.12747,-0.23748 0.0637,0 0.11227,0.84146 0.11227,1.94682 v 1.94682 l -0.63992,0.180884 c -2.76458,0.781449 -8.39661,1.307412 -11.24523,1.050168 z m 8.31113,-18.380122 c -0.13758,-2.37959 -0.79312,-4.03169 -2.13402,-5.37817 -1.39091,-1.39668 -3.1547,-2.08924 -5.31195,-2.08573 -4.33853,0.007 -7.07163,2.92282 -7.7961,8.31713 l -0.0614,0.45708 h 7.68961 7.6896 z"
             id="path2057"
             transform="scale(0.26458333)" /><path
             style="fill:#001733;fill-opacity:1;stroke-width:0.0654544;stroke-linecap:round;stroke-linejoin:round"
             d="m 306.06236,-98.907943 c -7.97064,-0.717209 -11.99613,-5.567447 -12.04253,-14.509787 -0.0124,-2.38062 0.22717,-4.08065 0.83739,-5.94356 2.17626,-6.64375 7.76812,-10.1451 14.55805,-9.11555 5.62976,0.85363 9.1336,4.64607 9.93405,10.75226 0.19186,1.46356 0.23664,3.51166 0.10443,4.77653 l -0.0783,0.74921 h -10.16037 c -5.88957,0 -10.16037,0.0458 -10.16037,0.10897 0,0.0599 0.057,0.6645 0.12669,1.34346 0.40223,3.91965 2.29296,6.28733 5.91136,7.40254 1.06397,0.32792 1.17036,0.33684 4.07874,0.34218 3.39203,0.006 4.42921,-0.11572 8.50176,-0.99949 l 0.27425,-0.0595 v 1.95724 c 0,1.07648 -0.0419,1.98313 -0.0931,2.01479 -0.23316,0.144097 -3.27769,0.715087 -4.94698,0.927785 -2.17221,0.276779 -5.29688,0.392239 -6.84504,0.252932 z m 8.3156,-18.379767 c -0.0381,-0.72067 -0.1564,-1.6394 -0.26288,-2.04164 -0.88954,-3.36058 -3.6301,-5.42804 -7.18756,-5.42226 -2.07121,0.003 -3.7268,0.64459 -5.02961,1.948 -1.25734,1.2579 -2.29188,3.37954 -2.60012,5.33229 -0.0715,0.45294 -0.15407,0.97437 -0.1835,1.15872 l -0.0535,0.3352 h 7.69322 7.69322 z"
             id="path2059"
             transform="scale(0.26458333)" /><path
             style="fill:#001733;fill-opacity:1;stroke-width:0.0654544;stroke-linecap:round;stroke-linejoin:round"
             d="m 327.69862,-113.7834 v -14.3829 h 2.13306 c 1.17318,0 2.13462,0.0137 2.13653,0.0305 0.002,0.0168 0.0548,1.03866 0.1175,2.27088 0.0627,1.23222 0.13542,2.26179 0.16156,2.28792 0.0261,0.0261 0.53547,-0.45247 1.13186,-1.06357 2.9348,-3.00721 5.44704,-4.12296 8.94618,-3.97321 2.69067,0.11514 4.21999,0.72807 5.79195,2.32132 1.43406,1.4535 2.12637,3.01672 2.48822,5.61832 0.0838,0.60232 0.13017,4.56 0.13017,11.10476 v 10.168916 h -2.43778 -2.43778 v -9.796096 c 0,-10.78883 -0.0244,-11.21124 -0.73435,-12.69875 -0.69308,-1.4522 -1.80557,-2.24764 -3.47441,-2.48421 -0.98507,-0.13964 -2.17234,-0.008 -3.09739,0.34353 -1.3031,0.49514 -3.00291,1.93842 -4.8218,4.09412 l -1.15796,1.37237 v 9.58452 9.584516 h -2.43778 -2.43778 z"
             id="path2061"
             transform="scale(0.26458333)" /><path
             style="fill:#001733;fill-opacity:1;stroke-width:0.0654544;stroke-linecap:round;stroke-linejoin:round"
             d="m 392.78736,-101.41166 v -2.01117 h 4.75367 4.75367 v -16.27219 -16.27218 h -4.26611 -4.26612 v -1.95022 -1.95023 h 6.76484 6.76484 v 18.22241 18.22241 h 4.32706 4.32706 v 2.01117 2.011166 h -11.57945 -11.57946 z"
             id="path2063"
             transform="scale(0.26458333)" /><path
             style="fill:#001733;fill-opacity:1;stroke-width:0.0654544;stroke-linecap:round;stroke-linejoin:round"
             d="m 425.33173,-101.41166 v -2.01117 h 4.69272 4.69273 v -10.36057 -10.36056 h -4.26611 -4.26612 v -2.01117 -2.01117 h 6.76484 6.76484 v 12.37173 12.37174 h 4.32706 4.32706 v 2.01117 2.011166 h -11.51851 -11.51851 z"
             id="path2065"
             transform="scale(0.26458333)" /><path
             style="fill:#001733;fill-opacity:1;stroke-width:0.0654544;stroke-linecap:round;stroke-linejoin:round"
             d="m 436.97461,-136.4567 3.41484,-3.41484 3.4667,0.0324 3.4667,0.0324 -4.44403,3.37818 -4.44402,3.37818 -2.43751,0.004 -2.43751,0.004 z"
             id="path2067"
             transform="scale(0.26458333)" /><path
             style="fill:#001733;fill-opacity:1;stroke-width:0.0654544;stroke-linecap:round;stroke-linejoin:round"
             d="m 457.38854,-113.7834 v -14.3829 h 2.12753 2.12754 l 0.0601,0.39614 c 0.0331,0.21787 0.0922,1.2435 0.13133,2.27917 0.0392,1.03567 0.0947,1.90647 0.1233,1.93512 0.0286,0.0286 0.47404,-0.39645 0.98976,-0.94466 2.88595,-3.06778 5.52477,-4.26487 9.06712,-4.11328 4.38069,0.18747 6.85962,2.16993 8.02609,6.41867 l 0.3183,1.15935 0.0379,10.81765 0.0379,10.817646 H 477.99273 475.55 v -9.923236 c 0,-10.76266 -0.0153,-11.04663 -0.67002,-12.47685 -0.47457,-1.03659 -1.05829,-1.66942 -1.94043,-2.1037 -1.30683,-0.64335 -3.19204,-0.70925 -4.60595,-0.16101 -1.39124,0.53945 -3.30625,2.1828 -5.19075,4.45443 l -0.87875,1.05926 v 9.57555 9.575556 h -2.43778 -2.43778 z"
             id="path2069"
             transform="scale(0.26458333)" /><path
             style="fill:#001733;fill-opacity:1;stroke-width:0.0654544;stroke-linecap:round;stroke-linejoin:round"
             d="m 500.47631,-98.931402 c -1.47825,-0.129577 -3.44243,-0.587942 -4.59552,-1.072418 -3.75733,-1.57866 -5.99327,-4.51209 -6.9319,-9.09425 -0.31927,-1.55859 -0.45405,-5.46579 -0.24362,-7.06216 0.96001,-7.28255 5.72013,-12.13894 12.21134,-12.45831 5.34967,-0.26321 9.61217,2.00801 11.66874,6.21753 1.00668,2.06054 1.48158,4.48108 1.48158,7.55149 0,1.03888 -0.0343,2.06028 -0.0762,2.26978 l -0.0762,0.3809 h -10.10155 -10.10155 v 0.78156 c 0,0.99913 0.25928,2.34718 0.65138,3.38662 0.89094,2.36187 2.79289,4.00539 5.50401,4.75615 0.88484,0.24503 1.25156,0.26995 3.96139,0.26922 3.13329,-8.6e-4 4.89471,-0.18756 7.41439,-0.78591 0.55836,-0.13259 1.06708,-0.24108 1.13049,-0.24108 0.0691,0 0.10186,0.79249 0.0818,1.97787 l -0.0335,1.97787 -0.91417,0.218553 c -1.51203,0.361485 -4.58129,0.808225 -6.46012,0.940293 -2.0043,0.140888 -2.83562,0.138395 -4.57083,-0.01371 z m 8.47043,-18.112528 c -0.002,-2.93743 -1.44956,-5.62751 -3.64937,-6.78347 -1.5902,-0.83563 -3.78422,-1.15077 -5.51593,-0.7923 -2.01305,0.41672 -3.85255,1.92728 -4.88384,4.01052 -0.61153,1.2353 -1.00958,2.57991 -1.13969,3.84989 l -0.0801,0.78189 h 7.6349 7.63489 l -8.5e-4,-1.06653 z"
             id="path2071"
             transform="scale(0.26458333)" /><path
             style="fill:#001733;fill-opacity:1;stroke-width:0.0654544;stroke-linecap:round;stroke-linejoin:round"
             d="m 529.04304,-98.922126 c -2.19013,-0.232218 -4.00758,-0.999258 -5.33521,-2.251674 -1.50984,-1.4243 -2.21131,-3.24722 -2.22564,-5.78381 -0.0149,-2.63333 0.62232,-4.26709 2.33152,-5.97786 1.18295,-1.18404 2.47029,-1.93196 4.27046,-2.48104 2.05718,-0.62747 2.79337,-0.70143 7.64853,-0.76838 l 4.54037,-0.0626 -0.002,-1.54093 c -0.003,-1.82998 -0.20902,-2.92332 -0.74048,-3.92043 -0.98928,-1.8561 -3.01477,-2.78691 -6.08318,-2.79553 -2.45769,-0.007 -4.82955,0.41891 -7.73167,1.38803 l -1.89757,0.63367 v -2.16141 -2.16141 l 0.94464,-0.30581 c 3.40759,-1.10313 6.76605,-1.61701 9.84254,-1.50603 3.85161,0.13894 6.22346,0.98067 8.11099,2.87846 1.02235,1.02791 1.63128,2.06349 2.08573,3.54713 l 0.27941,0.91218 0.038,10.93954 0.038,10.939536 h -2.18061 -2.18062 l -0.065,-1.835046 c -0.0358,-1.00927 -0.0969,-1.86691 -0.13587,-1.90586 -0.0389,-0.0389 -0.40816,0.24149 -0.82046,0.62321 -2.20545,2.04186 -4.85647,3.278775 -7.70892,3.596843 -1.29133,0.143991 -1.65822,0.143897 -3.02271,-7.31e-4 z m 4.21382,-4.199124 c 2.15107,-0.56028 4.46741,-1.89225 6.51204,-3.74463 l 0.50417,-0.45676 v -2.63738 -2.63738 l -4.11375,0.0708 c -4.58821,0.079 -5.36649,0.17709 -6.79099,0.85633 -1.06974,0.51008 -1.82085,1.25018 -2.30869,2.27489 -0.35118,0.73763 -0.3771,0.88475 -0.37588,2.13305 10e-4,1.13657 0.0438,1.43361 0.28026,1.95023 0.49624,1.08416 1.58658,1.95955 2.79563,2.2445 0.75859,0.17879 2.72038,0.1487 3.49721,-0.0536 z"
             id="path2073"
             transform="scale(0.26458333)" /><path
             style="fill:#001733;fill-opacity:1;stroke-width:0.0654544;stroke-linecap:round;stroke-linejoin:round"
             d="m 565.02262,-98.917989 c -1.38959,-0.288089 -2.65894,-1.300841 -3.32424,-2.652261 -0.36734,-0.74616 -0.39928,-0.9047 -0.39729,-1.97191 0.002,-1.05844 0.037,-1.23204 0.39788,-1.97386 0.52114,-1.07115 1.29452,-1.85006 2.31506,-2.3316 0.73101,-0.34493 0.93899,-0.38693 1.92259,-0.3883 1.03139,-0.001 1.16327,0.0283 2.03368,0.45828 1.6311,0.80578 2.5292,2.1523 2.62745,3.93933 0.0697,1.26841 -0.16831,2.10568 -0.86946,3.05813 -1.06785,1.450576 -3.00102,2.215595 -4.70567,1.862191 z"
             id="path2075"
             transform="scale(0.26458333)" /><path
             style="fill:#001733;fill-opacity:1;stroke-width:0.0654544;stroke-linecap:round;stroke-linejoin:round"
             d="m 597.47764,-98.912434 c -2.68779,-0.563506 -4.37769,-3.352646 -3.5942,-5.932136 0.59873,-1.97116 2.15554,-3.24918 4.16299,-3.41748 1.59932,-0.13408 3.21117,0.65051 4.17725,2.03334 0.57297,0.82013 0.82223,1.63462 0.82223,2.68674 0,1.99021 -1.15266,3.671322 -3.00011,4.375569 -0.75543,0.287968 -1.87697,0.398878 -2.56816,0.253967 z"
             id="path2077"
             transform="scale(0.26458333)" /></g><rect
           style="fill:#001733;fill-opacity:1;stroke-width:0.344311;stroke-linecap:round;stroke-linejoin:round"
           id="rect2161"
           width="279.67343"
           height="1.6213318"
           x="-78.445946"
           y="97.546959" /></g></g></g></svg>
