<?xml version="1.0" encoding="UTF-8" standalone="no"?>
<!-- Created with Inkscape (http://www.inkscape.org/) -->

<svg
   width="261.42999mm"
   height="268.54401mm"
   viewBox="0 0 261.42999 268.54401"
   version="1.1"
   id="svg5"
   xml:space="preserve"
   inkscape:version="1.2.1 (9c6d41e410, 2022-07-14)"
   sodipodi:docname="doc-time.svg"
   xmlns:inkscape="http://www.inkscape.org/namespaces/inkscape"
   xmlns:sodipodi="http://sodipodi.sourceforge.net/DTD/sodipodi-0.dtd"
   xmlns="http://www.w3.org/2000/svg"
   xmlns:svg="http://www.w3.org/2000/svg"><sodipodi:namedview
     id="namedview7"
     pagecolor="#ffffff"
     bordercolor="#000000"
     borderopacity="0.25"
     inkscape:showpageshadow="2"
     inkscape:pageopacity="0.0"
     inkscape:pagecheckerboard="0"
     inkscape:deskcolor="#d1d1d1"
     inkscape:document-units="mm"
     showgrid="false"
     inkscape:zoom="0.52724989"
     inkscape:cx="624.94086"
     inkscape:cy="392.60321"
     inkscape:window-width="1920"
     inkscape:window-height="1017"
     inkscape:window-x="-8"
     inkscape:window-y="-8"
     inkscape:window-maximized="1"
     inkscape:current-layer="layer1" /><defs
     id="defs2" /><g
     inkscape:label="Layer 1"
     inkscape:groupmode="layer"
     id="layer1"><g
       style="fill:#001d41;fill-opacity:1"
       id="g362"
       transform="matrix(17.320793,0,0,17.320793,3.580003,-17.320799)"><path
         d="M 2,1.5 A 0.5,0.5 0 0 1 2.5,1 h 11 a 0.5,0.5 0 0 1 0,1 h -1 V 3 A 4.5,4.5 0 0 1 9.943,7.06 C 9.653,7.199 9.5,7.437 9.5,7.65 v 0.7 c 0,0.213 0.154,0.451 0.443,0.59 A 4.5,4.5 0 0 1 12.5,13 v 1 h 1 a 0.5,0.5 0 0 1 0,1 h -11 a 0.5,0.5 0 1 1 0,-1 h 1 V 13 A 4.5,4.5 0 0 1 6.057,8.94 C 6.347,8.801 6.5,8.563 6.5,8.35 V 7.65 C 6.5,7.437 6.346,7.199 6.057,7.06 A 4.5,4.5 0 0 1 3.5,3 V 2 h -1 A 0.5,0.5 0 0 1 2,1.5 Z M 4.5,2 V 3 A 3.5,3.5 0 0 0 6.489,6.158 C 7.022,6.414 7.5,6.949 7.5,7.649 V 8.351 C 7.5,8.351 7.68,8.5 8,8.5 8.32,8.5 8.5,8.35 8.5,8.35 V 7.65 C 8.5,6.949 8.978,6.414 9.511,6.158 A 3.5,3.5 0 0 0 11.5,3 V 2 Z"
         id="path353"
         style="fill:#001d41;fill-opacity:1" /></g><g
       style="fill:#0c82b1;fill-opacity:1"
       id="g343"
       transform="matrix(6.2527757,0,0,6.2527757,173.89147,168.49931)"><path
         d="M 14,4.5 V 14 a 2,2 0 0 1 -2,2 H 4 A 2,2 0 0 1 2,14 V 2 A 2,2 0 0 1 4,0 h 5.5 z m -3,0 A 1.5,1.5 0 0 1 9.5,3 V 1 H 4 A 1,1 0 0 0 3,2 v 12 a 1,1 0 0 0 1,1 h 8 a 1,1 0 0 0 1,-1 V 4.5 Z"
         id="path331"
         style="fill:#0c82b1;fill-opacity:1" /><path
         d="M 4,6.5 A 0.5,0.5 0 0 1 4.5,6 h 7 A 0.5,0.5 0 0 1 12,6.5 v 7 A 0.5,0.5 0 0 1 11.5,14 h -7 A 0.5,0.5 0 0 1 4,13.5 Z m 0,-3 A 0.5,0.5 0 0 1 4.5,3 H 7 A 0.5,0.5 0 0 1 7,4 H 4.5 A 0.5,0.5 0 0 1 4,3.5 Z"
         id="path333"
         style="fill:#0c82b1;fill-opacity:1" /></g><g
       style="fill:#ffc000;fill-opacity:1"
       id="g319"
       transform="matrix(6.6500189,0,0,6.6500189,-0.001983,119.55188)"><path
         d="m 8.982,1.566 a 1.13,1.13 0 0 0 -1.96,0 L 0.165,13.233 C -0.292,14.011 0.256,15 1.145,15 h 13.713 c 0.889,0 1.438,-0.99 0.98,-1.767 z M 8,5 C 8.535,5 8.954,5.462 8.9,5.995 L 8.55,9.502 a 0.552,0.552 0 0 1 -1.1,0 L 7.1,5.995 A 0.905,0.905 0 0 1 8,5 Z m 0.002,6 a 1,1 0 1 1 0,2 1,1 0 0 1 0,-2 z"
         id="path310"
         style="fill:#ffc000;fill-opacity:1" /></g></g></svg>
