<?xml version="1.0" encoding="UTF-8" standalone="no"?>
<!-- Created with Inkscape (http://www.inkscape.org/) -->

<svg
   width="210.03799mm"
   height="302.34201mm"
   viewBox="0 0 210.03799 302.34201"
   version="1.1"
   id="svg2905"
   inkscape:version="1.2.1 (9c6d41e410, 2022-07-14)"
   sodipodi:docname="svg-ubicacion.svg"
   xml:space="preserve"
   xmlns:inkscape="http://www.inkscape.org/namespaces/inkscape"
   xmlns:sodipodi="http://sodipodi.sourceforge.net/DTD/sodipodi-0.dtd"
   xmlns:xlink="http://www.w3.org/1999/xlink"
   xmlns="http://www.w3.org/2000/svg"
   xmlns:svg="http://www.w3.org/2000/svg"><sodipodi:namedview
     id="namedview2907"
     pagecolor="#ffffff"
     bordercolor="#000000"
     borderopacity="0.25"
     inkscape:showpageshadow="2"
     inkscape:pageopacity="0.0"
     inkscape:pagecheckerboard="0"
     inkscape:deskcolor="#d1d1d1"
     inkscape:document-units="mm"
     showgrid="false"
     inkscape:zoom="0.72515432"
     inkscape:cx="290.97255"
     inkscape:cy="563.32837"
     inkscape:window-width="2400"
     inkscape:window-height="1271"
     inkscape:window-x="-9"
     inkscape:window-y="-9"
     inkscape:window-maximized="1"
     inkscape:current-layer="layer1" /><defs
     id="defs2902"><linearGradient
       inkscape:collect="always"
       id="linearGradient1452"><stop
         style="stop-color:#192bc2;stop-opacity:1;"
         offset="0"
         id="stop1448" /><stop
         style="stop-color:#011832;stop-opacity:1;"
         offset="1"
         id="stop1450" /></linearGradient><linearGradient
       inkscape:collect="always"
       xlink:href="#linearGradient34691"
       id="linearGradient34693"
       x1="438.254"
       y1="63.382"
       x2="508.58301"
       y2="133.436"
       gradientUnits="userSpaceOnUse"
       gradientTransform="matrix(1.4020749,0,0,1.4020759,-520.35554,-1.4128153)" /><linearGradient
       inkscape:collect="always"
       id="linearGradient34691"><stop
         style="stop-color:#192bc2;stop-opacity:1;"
         offset="0"
         id="stop34687" /><stop
         style="stop-color:#011832;stop-opacity:1;"
         offset="1"
         id="stop34689" /></linearGradient><linearGradient
       inkscape:collect="always"
       xlink:href="#linearGradient34868"
       id="linearGradient34870"
       x1="369.98257"
       y1="87.510071"
       x2="410.79001"
       y2="170.43475"
       gradientUnits="userSpaceOnUse"
       gradientTransform="matrix(1.4020749,0,0.45634975,1.3257305,-520.35554,-1.4128153)" /><linearGradient
       inkscape:collect="always"
       id="linearGradient34868"><stop
         style="stop-color:#011832;stop-opacity:1;"
         offset="0"
         id="stop34864" /><stop
         style="stop-color:#192bc2;stop-opacity:1;"
         offset="1"
         id="stop34866" /></linearGradient><linearGradient
       inkscape:collect="always"
       xlink:href="#linearGradient1452"
       id="linearGradient35093"
       x1="500.94638"
       y1="-32.682003"
       x2="537.27161"
       y2="-18.609999"
       gradientUnits="userSpaceOnUse"
       gradientTransform="matrix(1.4020749,0,0,1.4020759,-621.25998,118.01608)" /></defs><g
     inkscape:label="Layer 1"
     inkscape:groupmode="layer"
     id="layer1"><path
       id="path26948"
       style="fill:url(#linearGradient34693);fill-opacity:1;stroke:none;stroke-width:0.701038;stroke-linecap:round;stroke-linejoin:round;stroke-opacity:1"
       d="M 70.717613,0.027599 C 63.659652,0.25381693 56.864706,1.8896371 50.483372,5.1046462 l -0.0028,-0.01374 -0.909161,0.5175623 C 48.733064,6.0539007 47.891609,6.4867257 47.068479,6.9886366 46.92628,7.075355 46.804061,7.1748393 46.663195,7.2624803 L 27.43943,18.205245 29.115358,25.273131 C 14.871006,49.547797 19.570551,83.493368 24.690059,104.64925 A 98.69132,57.51396 59.843035 0 1 63.252587,44.351769 98.69132,57.51396 59.843035 0 1 157.26828,134.4461 98.69132,57.51396 59.843035 0 1 125.27798,224.5377 98.69132,57.51396 59.843035 0 1 57.460812,182.26729 c 5.474023,11.08448 11.030642,22.12521 16.718103,33.1131 l 20.614889,86.96155 19.629046,-11.2166 64.83502,-46.50675 C 265.56789,176.60666 151.25336,-2.553697 70.717613,0.027599 Z" /><path
       id="path26004"
       style="fill:#192bc2;fill-opacity:1;stroke:none;stroke-width:0.701038;stroke-linecap:round;stroke-linejoin:round;stroke-opacity:1"
       d="M 51.088564,11.244206 C 42.757281,11.511237 34.788322,13.724235 27.4395,18.205294 -22.326209,48.550734 10.806293,135.37721 10.806293,135.37721 35.494042,192.74457 65.009205,246.98312 94.793874,302.34199 L 159.62889,255.83525 C 245.93894,187.8232 131.62438,8.6629074 51.088564,11.244206 Z M 63.252657,44.351818 A 98.69132,57.51396 59.843035 0 1 157.26836,134.44615 98.69132,57.51396 59.843035 0 1 125.27805,224.53774 98.69132,57.51396 59.843035 0 1 31.262356,134.44615 98.69132,57.51396 59.843035 0 1 63.252657,44.351818 Z" /><path
       id="path29183"
       style="fill:url(#linearGradient34870);fill-opacity:1;stroke:none;stroke-width:0.94083;stroke-linecap:round;stroke-linejoin:round;stroke-opacity:1"
       d="m 55.66174,45.088455 a 98.69132,57.51396 59.843034 0 0 -24.399384,89.357695 98.69132,57.51396 59.843034 0 0 94.015694,90.09159 98.69132,57.51396 59.843034 0 0 27.19257,-11.9286 98.69132,57.51396 59.843034 0 1 -7.56353,0.71199 98.69132,57.51396 59.843034 0 1 -94.015686,-90.09159 98.69132,57.51396 59.843034 0 1 4.770336,-78.141085 z" /><path
       id="ellipse32628"
       style="fill:url(#linearGradient35093);fill-opacity:1;stroke:none;stroke-width:0.970173;stroke-linecap:round;stroke-linejoin:round;stroke-opacity:1"
       d="m 92.753743,68.937439 c -4.364911,0.03502 -8.285702,1.169285 -11.586284,3.351837 l -0.06309,-0.09585 -16.989208,10.592247 6.298387,10.594983 c -0.808297,8.839444 0.836912,19.206724 4.732002,29.818764 8.368425,22.56536 25.54879,42.75201 43.14665,50.69654 l 6.62049,12.43037 22.55747,-14.48145 v 0 c 9.47352,-9.14015 10.64013,-27.99688 3.00953,-48.64546 C 139.40097,93.231188 113.55605,68.937186 92.753673,68.937439 Z"
       sodipodi:nodetypes="cccccccccccc" /><ellipse
       style="fill:#192bc2;fill-opacity:1;stroke:none;stroke-width:1.00175;stroke-linecap:round;stroke-linejoin:round;stroke-opacity:1"
       id="path32626"
       cx="45.425476"
       cy="143.14043"
       rx="37.665916"
       ry="57.851097"
       transform="matrix(1,0,0.3467486,0.93795811,0,0)" /></g></svg>
