<?xml version="1.0" encoding="UTF-8" standalone="no"?>
<!-- Created with Inkscape (http://www.inkscape.org/) -->

<svg
   width="195.537mm"
   height="232.386mm"
   viewBox="0 0 195.537 232.38601"
   version="1.1"
   id="svg779"
   inkscape:version="1.2.1 (9c6d41e410, 2022-07-14)"
   sodipodi:docname="svg-engranes.svg"
   xmlns:inkscape="http://www.inkscape.org/namespaces/inkscape"
   xmlns:sodipodi="http://sodipodi.sourceforge.net/DTD/sodipodi-0.dtd"
   xmlns:xlink="http://www.w3.org/1999/xlink"
   xmlns="http://www.w3.org/2000/svg"
   xmlns:svg="http://www.w3.org/2000/svg">
  <sodipodi:namedview
     id="namedview781"
     pagecolor="#ffffff"
     bordercolor="#000000"
     borderopacity="0.25"
     inkscape:showpageshadow="2"
     inkscape:pageopacity="0.0"
     inkscape:pagecheckerboard="0"
     inkscape:deskcolor="#d1d1d1"
     inkscape:document-units="mm"
     showgrid="false"
     inkscape:zoom="0.72515432"
     inkscape:cx="639.17429"
     inkscape:cy="202.02596"
     inkscape:window-width="1920"
     inkscape:window-height="1001"
     inkscape:window-x="-9"
     inkscape:window-y="-9"
     inkscape:window-maximized="1"
     inkscape:current-layer="layer1" />
  <defs
     id="defs776">
    <linearGradient
       inkscape:collect="always"
       xlink:href="#linearGradient16515"
       id="linearGradient16517"
       x1="633.31183"
       y1="192.92181"
       x2="624.11853"
       y2="182.28963"
       gradientUnits="userSpaceOnUse" />
    <linearGradient
       inkscape:collect="always"
       id="linearGradient16515">
      <stop
         style="stop-color:#9a9fa2;stop-opacity:1;"
         offset="0"
         id="stop16511" />
      <stop
         style="stop-color:#6b7073;stop-opacity:1;"
         offset="1"
         id="stop16513" />
    </linearGradient>
    <linearGradient
       inkscape:collect="always"
       xlink:href="#linearGradient10718"
       id="linearGradient10720"
       x1="585.07202"
       y1="112.9484"
       x2="576.08868"
       y2="90.687546"
       gradientUnits="userSpaceOnUse" />
    <linearGradient
       inkscape:collect="always"
       id="linearGradient10718">
      <stop
         style="stop-color:#e3e9e3;stop-opacity:1;"
         offset="0"
         id="stop10714" />
      <stop
         style="stop-color:#b1b5b2;stop-opacity:1;"
         offset="1"
         id="stop10716" />
    </linearGradient>
  </defs>
  <g
     inkscape:label="Layer 1"
     inkscape:groupmode="layer"
     id="layer1">
    <g
       id="g2549"
       transform="matrix(1.2678908,0,0,1.2678896,-713.22288,-125.88193)">
      <path
         id="Path_2044"
         data-name="Path 2044"
         d="M 608.49,271.429 Z"
         fill="#ffffff" />
      <path
         style="fill:#aaafb2;fill-opacity:1;stroke:none;stroke-width:0.5;stroke-linecap:round;stroke-linejoin:round;stroke-opacity:1"
         d="m 562.52706,134.90875 11.96594,-7.13529 6.55347,-16.72131 19.67687,-11.767539 11.83184,14.532589 -42.56892,32.40897 z"
         id="path1202" />
      <path
         style="fill:#9a9fa2;fill-opacity:1;stroke:none;stroke-width:0.5;stroke-linecap:round;stroke-linejoin:round;stroke-opacity:1"
         d="m 600.65904,112.98126 14.98271,8.48806 19.35536,-11.44602 -14.98272,-8.80958 z"
         id="path1930" />
      <path
         style="fill:#6b7073;fill-opacity:1;stroke:none;stroke-width:0.5;stroke-linecap:round;stroke-linejoin:round;stroke-opacity:1"
         d="m 634.99711,110.0233 -19.35536,11.44602 3.601,14.53259 19.03384,-11.18881 z"
         id="path1932" />
      <path
         style="fill:#9a9fa2;fill-opacity:1;stroke:none;stroke-width:0.5;stroke-linecap:round;stroke-linejoin:round;stroke-opacity:1"
         d="m 638.27659,124.8131 -19.03384,11.18881 5.98022,6.30175 18.71232,-11.44603 z"
         id="path1934" />
      <path
         style="fill:#9a9fa2;fill-opacity:1;stroke:none;stroke-width:0.5;stroke-linecap:round;stroke-linejoin:round;stroke-opacity:1"
         d="m 643.93529,130.85763 -18.71232,11.44603 9.96705,-0.25722 18.19789,-11.18881 z"
         id="path2662" />
      <path
         style="fill:#6b7073;fill-opacity:1;stroke:none;stroke-width:0.5;stroke-linecap:round;stroke-linejoin:round;stroke-opacity:1"
         d="m 653.38791,130.85763 -18.19789,11.18881 10.28856,18.06929 19.54826,-11.31742 z"
         id="path2664" />
      <path
         style="fill:#6b7073;fill-opacity:1;stroke:none;stroke-width:0.5;stroke-linecap:round;stroke-linejoin:round;stroke-opacity:1"
         d="m 665.02684,148.79831 -19.54826,11.31742 -5.01568,8.74527 19.61257,-11.25311 z"
         id="path2666" />
      <path
         style="fill:#6b7073;fill-opacity:1;stroke:none;stroke-width:0.5;stroke-linecap:round;stroke-linejoin:round;stroke-opacity:1"
         d="m 660.07547,157.60789 -19.61257,11.25311 2.63645,8.68098 19.16244,-11.18881 z"
         id="path2668" />
      <path
         style="fill:#6b7073;fill-opacity:1;stroke:none;stroke-width:0.5;stroke-linecap:round;stroke-linejoin:round;stroke-opacity:1"
         d="m 662.26179,166.35317 -19.16244,11.18881 10.80299,10.09565 18.90523,-11.12451 z"
         id="path3396" />
      <path
         style="fill:#6b7073;fill-opacity:1;stroke:none;stroke-width:0.5;stroke-linecap:round;stroke-linejoin:round;stroke-opacity:1"
         d="m 642.71353,202.10591 -2.31493,5.3372 7.81288,-4.01897 z"
         id="path3400" />
      <path
         style="fill:#6b7073;fill-opacity:1;stroke:none;stroke-width:0.5;stroke-linecap:round;stroke-linejoin:round;stroke-opacity:1"
         d="m 640.3986,207.44311 5.20858,15.17562 19.29106,-11.96045 -4.50125,-13.69665 z"
         id="path3402" />
      <path
         style="fill:#6b7073;fill-opacity:1;stroke:none;stroke-width:0.5;stroke-linecap:round;stroke-linejoin:round;stroke-opacity:1"
         d="m 624.77285,216.5742 -5.5301,-0.51442 -3.85821,10.41716 12.00467,-6.89636 z"
         id="path4177" />
      <path
         style="fill:#aaafb2;fill-opacity:1;stroke:none;stroke-width:0.309154;stroke-linecap:round;stroke-linejoin:round;stroke-opacity:1"
         d="m 648.24423,224.72058 7.39864,-4.41181 4.05206,-10.33892 12.16637,-7.27597 7.31572,8.98562 -26.32071,20.03873 z"
         id="path5035" />
      <path
         style="fill:#6b7073;fill-opacity:1;stroke:none;stroke-width:0.309154;stroke-linecap:round;stroke-linejoin:round;stroke-opacity:1"
         d="m 693.05305,209.3337 -11.96757,7.07717 2.22652,8.98562 11.76878,-6.91813 z"
         id="path5039" />
      <path
         style="fill:#9a9fa2;fill-opacity:1;stroke:none;stroke-width:0.309154;stroke-linecap:round;stroke-linejoin:round;stroke-opacity:1"
         d="m 695.08078,218.47836 -11.76878,6.91813 3.69762,3.89642 11.56998,-7.07717 z"
         id="path5041" />
      <path
         style="fill:#9a9fa2;fill-opacity:1;stroke:none;stroke-width:0.309154;stroke-linecap:round;stroke-linejoin:round;stroke-opacity:1"
         d="m 698.5796,222.21574 -11.56998,7.07717 6.16271,-0.15904 11.2519,-6.91813 z"
         id="path5043" />
      <path
         style="fill:#6b7073;fill-opacity:1;stroke:none;stroke-width:0.309154;stroke-linecap:round;stroke-linejoin:round;stroke-opacity:1"
         d="m 704.42423,222.21574 -11.2519,6.91813 6.3615,11.17239 12.08685,-6.99765 z"
         id="path5045" />
      <path
         style="fill:#6b7073;fill-opacity:1;stroke:none;stroke-width:0.309154;stroke-linecap:round;stroke-linejoin:round;stroke-opacity:1"
         d="m 711.62068,233.30861 -12.08685,6.99765 -3.10124,5.40727 12.12662,-6.95789 z"
         id="path5047" />
      <path
         style="fill:#6b7073;fill-opacity:1;stroke:none;stroke-width:0.309154;stroke-linecap:round;stroke-linejoin:round;stroke-opacity:1"
         d="m 708.55921,238.75564 -12.12662,6.95789 1.63014,5.36752 11.8483,-6.91813 z"
         id="path5049" />
      <path
         style="fill:#6b7073;fill-opacity:1;stroke:none;stroke-width:0.309154;stroke-linecap:round;stroke-linejoin:round;stroke-opacity:1"
         d="m 709.91103,244.16292 -11.8483,6.91813 6.67958,6.24222 11.68926,-6.87837 z"
         id="path5051" />
      <path
         style="fill:#6b7073;fill-opacity:1;stroke:none;stroke-width:0.309154;stroke-linecap:round;stroke-linejoin:round;stroke-opacity:1"
         d="m 697.82418,266.26913 -1.43134,3.30003 4.83076,-2.48496 z"
         id="path5055" />
      <path
         style="fill:#6b7073;fill-opacity:1;stroke:none;stroke-width:0.309154;stroke-linecap:round;stroke-linejoin:round;stroke-opacity:1"
         d="m 696.39284,269.56916 3.2205,9.38321 11.92782,-7.39524 -2.78316,-8.46875 z"
         id="path5057" />
      <path
         style="fill:#6b7073;fill-opacity:1;stroke:none;stroke-width:0.309154;stroke-linecap:round;stroke-linejoin:round;stroke-opacity:1"
         d="m 686.73131,275.21499 -3.41931,-0.31807 -2.38556,6.44102 7.42259,-4.26408 z"
         id="path5059" />
      <path
         id="ellipse5061"
         style="fill:url(#linearGradient16517);fill-opacity:1;stroke:none;stroke-width:0.343193;stroke-linecap:round;stroke-linejoin:round;stroke-opacity:1"
         d="m 626.58963,160.20881 a 11.436022,17.394032 0 0 0 -9.94235,17.24562 11.436022,17.394032 0 0 0 11.43596,17.39397 11.436022,17.394032 0 0 0 9.78087,-8.38763 11.436022,17.394032 0 0 1 -8.76727,-16.8912 11.436022,17.394032 0 0 1 1.66436,-8.99969 11.436022,17.394032 0 0 0 -2.67842,-0.50971 11.436022,17.394032 0 0 0 -1.49315,0.14864 z"
         transform="matrix(0.99247227,0.1224696,0.29878132,0.9543216,0,0)" />
      <path
         style="fill:#9a9fa2;fill-opacity:1;stroke:none;stroke-width:0.5;stroke-linecap:round;stroke-linejoin:round;stroke-opacity:1"
         d="m 635.12571,228.47035 -10.35286,-11.89615 -5.5301,-0.51442 -3.85821,10.41716 -15.04702,-8.55236 -3.27948,-14.98272 -6.17314,-5.85162 -9.64552,0.12861 -10.54578,-18.06929 4.88707,-8.80958 -2.31493,-8.23085 -10.73868,-10.41716 v -16.78322 l 10.48147,2.25063 2.76505,-5.78732 -5.07998,-14.27538 10.35287,-6.04453 10.35286,11.44603 5.65871,0.45012 3.601,-9.96704 14.98271,8.48806 3.601,14.53259 5.98022,6.30175 9.96705,-0.25722 10.28856,18.06929 -5.01568,8.74527 2.63645,8.68098 10.80299,10.09565 -0.19291,17.10473 -10.9959,-2.63645 -2.31493,5.3372 5.20858,15.17562 z"
         id="path592" />
      <ellipse
         style="fill:#b1b5b2;fill-opacity:1;stroke:none;stroke-width:0.70212;stroke-linecap:round;stroke-linejoin:round;stroke-opacity:1"
         id="path4231"
         cx="581.5506"
         cy="103.25552"
         rx="23.396395"
         ry="35.585594"
         transform="matrix(0.99247227,0.1224696,0.29878132,0.9543216,0,0)" />
      <ellipse
         style="fill:url(#linearGradient10720);fill-opacity:1;stroke:none;stroke-width:0.297249;stroke-linecap:round;stroke-linejoin:round;stroke-opacity:1"
         id="ellipse5013"
         cx="581.5506"
         cy="103.25552"
         rx="9.905076"
         ry="15.065484"
         transform="matrix(0.99247227,0.1224696,0.29878132,0.9543216,0,0)" />
      <path
         style="fill:#6b7073;fill-opacity:1;stroke:none;stroke-width:0.5;stroke-linecap:round;stroke-linejoin:round;stroke-opacity:1"
         d="m 672.80757,176.51312 -18.90523,11.12451 -0.19291,17.10473 19.61257,-11.38172 z"
         id="path3398" />
      <path
         id="path5033"
         style="fill:#9a9fa2;fill-opacity:1;stroke:none;stroke-width:0.309154;stroke-linecap:round;stroke-linejoin:round;stroke-opacity:1"
         d="m 659.69531,209.9707 -6.40234,3.73633 3.14258,8.82617 -1.71094,3.57813 -6.48047,-1.39063 v 10.37696 l 6.64063,6.4414 1.42968,5.08985 -3.02148,5.44531 6.52148,11.17383 5.96289,-0.0801 3.81836,3.61719 2.02735,9.26562 9.30273,5.28711 2.38672,-6.44141 3.41797,0.31836 6.40234,7.35547 6.48047,-3.61719 -3.2207,-9.38476 1.43164,-3.29883 6.79883,1.62891 0.11914,-10.57422 -6.67969,-6.24414 -1.63086,-5.36719 3.10156,-5.40625 -6.36132,-11.17187 -6.16211,0.1582 -3.69727,-3.89649 -2.22656,-8.98632 -9.26367,-5.24805 -2.22657,6.16406 -3.5,-0.27929 z m 10.04492,19.65821 a 18.318673,9.887424 60.386648 0 1 1.4375,0.041 18.318673,9.887424 60.386648 0 1 16.54688,18 18.318673,9.887424 60.386648 0 1 -6.15234,15.19922 18.318673,9.887424 60.386648 0 1 -16.54688,-18 18.318673,9.887424 60.386648 0 1 4.71484,-15.24023 z" />
      <path
         style="fill:#9a9fa2;fill-opacity:1;stroke:none;stroke-width:0.309154;stroke-linecap:round;stroke-linejoin:round;stroke-opacity:1"
         d="m 671.82154,211.16263 9.26394,5.24824 11.96757,-7.07717 -9.26394,-5.44703 z"
         id="path5037" />
      <path
         style="fill:#6b7073;fill-opacity:1;stroke:none;stroke-width:0.309154;stroke-linecap:round;stroke-linejoin:round;stroke-opacity:1"
         d="m 716.43157,250.4449 -11.68926,6.87837 -0.11928,10.576 12.12661,-7.03741 z"
         id="path5053" />
    </g>
  </g>
</svg>
