<?xml version="1.0" encoding="UTF-8" standalone="no"?>
<!-- Created with Inkscape (http://www.inkscape.org/) -->

<svg
   width="275.34399mm"
   height="209.66mm"
   viewBox="0 0 275.34399 209.66"
   version="1.1"
   id="svg2905"
   inkscape:version="1.2.1 (9c6d41e410, 2022-07-14)"
   sodipodi:docname="svg-avion.svg"
   xmlns:inkscape="http://www.inkscape.org/namespaces/inkscape"
   xmlns:sodipodi="http://sodipodi.sourceforge.net/DTD/sodipodi-0.dtd"
   xmlns:xlink="http://www.w3.org/1999/xlink"
   xmlns="http://www.w3.org/2000/svg"
   xmlns:svg="http://www.w3.org/2000/svg">
  <sodipodi:namedview
     id="namedview2907"
     pagecolor="#ffffff"
     bordercolor="#000000"
     borderopacity="0.25"
     inkscape:showpageshadow="2"
     inkscape:pageopacity="0.0"
     inkscape:pagecheckerboard="0"
     inkscape:deskcolor="#d1d1d1"
     inkscape:document-units="mm"
     showgrid="false"
     inkscape:zoom="0.72515432"
     inkscape:cx="345.44371"
     inkscape:cy="561.94935"
     inkscape:window-width="1920"
     inkscape:window-height="1001"
     inkscape:window-x="-9"
     inkscape:window-y="-9"
     inkscape:window-maximized="1"
     inkscape:current-layer="layer1" />
  <defs
     id="defs2902">
    <linearGradient
       inkscape:collect="always"
       xlink:href="#linearGradient6767"
       id="linearGradient7002"
       gradientUnits="userSpaceOnUse"
       x1="189.75192"
       y1="195.5249"
       x2="192.10677"
       y2="208.3194" />
    <linearGradient
       inkscape:collect="always"
       id="linearGradient6767">
      <stop
         style="stop-color:#b1b5b2;stop-opacity:1;"
         offset="0"
         id="stop6763" />
      <stop
         style="stop-color:#e3e9e3;stop-opacity:1;"
         offset="1"
         id="stop6765" />
    </linearGradient>
    <linearGradient
       inkscape:collect="always"
       xlink:href="#linearGradient6690"
       id="linearGradient7004"
       gradientUnits="userSpaceOnUse"
       x1="256.42603"
       y1="186.37383"
       x2="259.95877"
       y2="190.86819" />
    <linearGradient
       inkscape:collect="always"
       id="linearGradient6690">
      <stop
         style="stop-color:#e3e9e3;stop-opacity:1;"
         offset="0"
         id="stop6686" />
      <stop
         style="stop-color:#b1b5b2;stop-opacity:1;"
         offset="1"
         id="stop6688" />
    </linearGradient>
    <linearGradient
       inkscape:collect="always"
       xlink:href="#linearGradient6913"
       id="linearGradient7006"
       gradientUnits="userSpaceOnUse"
       x1="254.61942"
       y1="181.49002"
       x2="262.24655"
       y2="193.9548" />
    <linearGradient
       inkscape:collect="always"
       id="linearGradient6913">
      <stop
         style="stop-color:#e3e9e3;stop-opacity:1;"
         offset="0.31294116"
         id="stop6909" />
      <stop
         style="stop-color:#b1b5b2;stop-opacity:1;"
         offset="1"
         id="stop6911" />
    </linearGradient>
    <radialGradient
       inkscape:collect="always"
       xlink:href="#linearGradient4106"
       id="radialGradient7215"
       cx="200.58377"
       cy="183.42029"
       fx="200.58377"
       fy="183.42029"
       r="90.185501"
       gradientTransform="matrix(1.900342,-1.1883842,0.19963662,0.31923841,-191.98758,327.71183)"
       gradientUnits="userSpaceOnUse" />
    <linearGradient
       inkscape:collect="always"
       id="linearGradient4106">
      <stop
         style="stop-color:#fafaf0;stop-opacity:1;"
         offset="0.61647058"
         id="stop4102" />
      <stop
         style="stop-color:#b1b5b2;stop-opacity:1;"
         offset="1"
         id="stop4104" />
    </linearGradient>
    <linearGradient
       inkscape:collect="always"
       xlink:href="#linearGradient6767"
       id="linearGradient3399"
       gradientUnits="userSpaceOnUse"
       x1="189.75192"
       y1="195.5249"
       x2="192.10677"
       y2="208.3194" />
    <linearGradient
       inkscape:collect="always"
       xlink:href="#linearGradient6690"
       id="linearGradient3401"
       gradientUnits="userSpaceOnUse"
       x1="256.42603"
       y1="186.37383"
       x2="259.95877"
       y2="190.86819" />
    <linearGradient
       inkscape:collect="always"
       xlink:href="#linearGradient6913"
       id="linearGradient3403"
       gradientUnits="userSpaceOnUse"
       x1="254.61942"
       y1="181.49002"
       x2="262.24655"
       y2="193.9548" />
  </defs>
  <g
     inkscape:label="Layer 1"
     inkscape:groupmode="layer"
     id="layer1">
    <g
       id="g3163"
       transform="matrix(1.3970452,0,0,1.3970431,-201.50221,-90.336619)">
      <g
         id="g7000"
         transform="translate(-72.914023,-42.411309)">
        <ellipse
           style="fill:url(#linearGradient3399);fill-opacity:1;stroke:none;stroke-width:0.561009;stroke-linecap:round;stroke-linejoin:round;stroke-opacity:1"
           id="ellipse6992"
           cx="190.82613"
           cy="201.92215"
           rx="4.776825"
           ry="7.0963593"
           transform="matrix(1,0,0.28919885,0.95726905,0,0)" />
        <path
           style="fill:url(#linearGradient3401);fill-opacity:1;stroke:none;stroke-width:0.535;stroke-linecap:round;stroke-linejoin:round;stroke-opacity:1"
           d="m 250.98718,195.92486 15.77527,-8.12442 -2.22475,-6.06381 v 0 0 l -16.9528,8.8082 z"
           id="path6994" />
        <path
           id="path6996"
           style="fill:url(#linearGradient3403);fill-opacity:1;stroke:none;stroke-width:0.535;stroke-linecap:round;stroke-linejoin:round;stroke-opacity:1"
           d="m 264.49414,176.03906 -18.89062,10.90625 0.006,0.01 a 7.3137858,4.4367678 62.217604 0 1 1.56054,-0.45508 7.3137858,4.4367678 62.217604 0 1 6.82813,6.79297 7.3137858,4.4367678 62.217604 0 1 -1.04102,6.26953 l 18.72266,-11.08008 z" />
        <ellipse
           style="fill:#3f4548;fill-opacity:1;stroke:none;stroke-width:0.245367;stroke-linecap:round;stroke-linejoin:round;stroke-opacity:1"
           id="ellipse6998"
           cx="190.82613"
           cy="201.92215"
           rx="2.0892301"
           ry="3.1037199"
           transform="matrix(1,0,0.28919885,0.95726905,0,0)" />
      </g>
      <path
         style="fill:#0c82b1;fill-opacity:1;stroke:none;stroke-width:0.535;stroke-linecap:round;stroke-linejoin:round;stroke-opacity:1"
         d="m 228.00015,140.96182 -53.48059,-45.873132 -12.98205,7.911932 c -3.29281,2.00681 -1.20302,5.48439 -0.81887,6.10353 l 31.70543,51.10008 z"
         id="path786"
         sodipodi:nodetypes="ccsscc" />
      <path
         style="fill:#0c82b1;fill-opacity:1;stroke:none;stroke-width:0.535;stroke-linecap:round;stroke-linejoin:round;stroke-opacity:1"
         d="m 285.30183,87.688817 c 0,0 -3.7164,2.229067 -5.42836,3.549309 -2.46163,1.898376 -2.39913,2.341107 -1.25269,6.367879 0.13786,0.484235 6.57666,18.686065 6.57666,18.686065 l 26.30665,-13.3621 z"
         id="path1554"
         sodipodi:nodetypes="cssccc" />
      <path
         style="fill:url(#radialGradient7215);fill-opacity:1;stroke:none;stroke-width:0.535;stroke-linecap:round;stroke-linejoin:round;stroke-opacity:1"
         d="m 159.51013,179.55329 c -2.27828,3.09014 -4.38444,7.51619 -4.38444,7.51619 0,0 -7.64147,6.40378 -9.39523,10.85671 -1.37809,3.49907 -2.33511,8.03921 -0.41756,11.27427 2.30112,3.88217 6.55356,5.62712 11.06549,5.53275 5.08628,-0.10638 16.40088,-3.42834 24.01003,-6.78544 22.5773,-9.96092 108.26466,-66.15413 111.25595,-69.31593 L 321.1081,112.3252 c 7.57783,-6.96378 1.58473,-16.720153 -6.05471,-13.362107 1.96427,-5.289059 -148.42721,70.938337 -155.54326,80.590197 z"
         id="path1556"
         sodipodi:nodetypes="scsssscccs" />
      <path
         style="fill:#63e4ff;fill-opacity:1;stroke:none;stroke-width:0.535;stroke-linecap:round;stroke-linejoin:round;stroke-opacity:1"
         d="m 159.51013,179.55329 c -1.35479,8.63458 13.26561,13.50229 21.40508,12.32498 -10.65905,6.60456 -21.10386,7.10536 -25.78952,-4.80879 1.23373,-2.51028 2.59934,-5.01773 4.38444,-7.51619 z"
         id="path1558"
         sodipodi:nodetypes="cccc" />
      <g
         id="g6990">
        <ellipse
           style="fill:url(#linearGradient7002);fill-opacity:1;stroke:none;stroke-width:0.561009;stroke-linecap:round;stroke-linejoin:round;stroke-opacity:1"
           id="path1666"
           cx="190.82613"
           cy="201.92215"
           rx="4.776825"
           ry="7.0963593"
           transform="matrix(1,0,0.28919885,0.95726905,0,0)" />
        <path
           style="fill:url(#linearGradient7004);fill-opacity:1;stroke:none;stroke-width:0.535;stroke-linecap:round;stroke-linejoin:round;stroke-opacity:1"
           d="m 250.98718,195.92486 15.77527,-8.12442 -2.22475,-6.06381 v 0 0 l -16.9528,8.8082 z"
           id="path2402" />
        <path
           id="path1670"
           style="fill:url(#linearGradient7006);fill-opacity:1;stroke:none;stroke-width:0.535;stroke-linecap:round;stroke-linejoin:round;stroke-opacity:1"
           d="m 264.49414,176.03906 -18.89062,10.90625 0.006,0.01 a 7.3137858,4.4367678 62.217604 0 1 1.56054,-0.45508 7.3137858,4.4367678 62.217604 0 1 6.82813,6.79297 7.3137858,4.4367678 62.217604 0 1 -1.04102,6.26953 l 18.72266,-11.08008 z" />
        <ellipse
           style="fill:#3f4548;fill-opacity:1;stroke:none;stroke-width:0.245367;stroke-linecap:round;stroke-linejoin:round;stroke-opacity:1"
           id="ellipse1672"
           cx="190.82613"
           cy="201.92215"
           rx="2.0892301"
           ry="3.1037199"
           transform="matrix(1,0,0.28919885,0.95726905,0,0)" />
      </g>
      <rect
         style="fill:#63e4ff;fill-opacity:1;stroke:none;stroke-width:0.562934;stroke-linecap:round;stroke-linejoin:round;stroke-opacity:1"
         id="rect4032"
         width="3.8443391"
         height="5.6004381"
         x="216.15106"
         y="273.55191"
         ry="1.7361358"
         transform="matrix(0.90321679,-0.4291846,0,1,0,0)" />
      <rect
         style="fill:#63e4ff;fill-opacity:1;stroke:none;stroke-width:0.562934;stroke-linecap:round;stroke-linejoin:round;stroke-opacity:1"
         id="rect4034"
         width="3.8443391"
         height="5.6004381"
         x="226.25795"
         y="272.68121"
         ry="1.7361358"
         transform="matrix(0.90321679,-0.4291846,0,1,0,0)" />
      <rect
         style="fill:#63e4ff;fill-opacity:1;stroke:none;stroke-width:0.562934;stroke-linecap:round;stroke-linejoin:round;stroke-opacity:1"
         id="rect4036"
         width="3.8443391"
         height="5.6004381"
         x="236.30284"
         y="271.72791"
         ry="1.7361358"
         transform="matrix(0.90321679,-0.4291846,0,1,0,0)" />
      <rect
         style="fill:#63e4ff;fill-opacity:1;stroke:none;stroke-width:0.562934;stroke-linecap:round;stroke-linejoin:round;stroke-opacity:1"
         id="rect4038"
         width="3.8443391"
         height="5.6004381"
         x="246.34772"
         y="270.7186"
         ry="1.7361358"
         transform="matrix(0.90321679,-0.4291846,0,1,0,0)" />
      <rect
         style="fill:#63e4ff;fill-opacity:1;stroke:none;stroke-width:0.562934;stroke-linecap:round;stroke-linejoin:round;stroke-opacity:1"
         id="rect4040"
         width="3.8443391"
         height="5.6004381"
         x="256.45462"
         y="269.8479"
         ry="1.7361358"
         transform="matrix(0.90321679,-0.4291846,0,1,0,0)" />
      <rect
         style="fill:#63e4ff;fill-opacity:1;stroke:none;stroke-width:0.562934;stroke-linecap:round;stroke-linejoin:round;stroke-opacity:1"
         id="rect4042"
         width="3.8443391"
         height="5.6004381"
         x="266.49951"
         y="268.83859"
         ry="1.7361358"
         transform="matrix(0.90321679,-0.4291846,0,1,0,0)" />
      <rect
         style="fill:#63e4ff;fill-opacity:1;stroke:none;stroke-width:0.562934;stroke-linecap:round;stroke-linejoin:round;stroke-opacity:1"
         id="rect4044"
         width="3.8443391"
         height="5.6004381"
         x="276.35837"
         y="268.02948"
         ry="1.7361358"
         transform="matrix(0.90321679,-0.4291846,0,1,0,0)" />
      <rect
         style="fill:#63e4ff;fill-opacity:1;stroke:none;stroke-width:0.562934;stroke-linecap:round;stroke-linejoin:round;stroke-opacity:1"
         id="rect4046"
         width="3.8443391"
         height="5.6004381"
         x="286.40326"
         y="267.1322"
         ry="1.7361358"
         transform="matrix(0.90321679,-0.4291846,0,1,0,0)" />
      <path
         style="fill:#0c82b1;fill-opacity:1;stroke:none;stroke-width:0.535;stroke-linecap:round;stroke-linejoin:round;stroke-opacity:1"
         d="m 317.70364,106.59016 23.62109,14.02502 -4.87185,2.50974 c -3.35591,1.7288 -6.49019,2.03355 -9.7437,1.47632 l -26.72136,-4.57658 z"
         id="path1552"
         sodipodi:nodetypes="ccsscc" />
      <path
         style="fill:#001d41;fill-opacity:1;stroke:none;stroke-width:0.535;stroke-linecap:round;stroke-linejoin:round;stroke-opacity:1"
         d="m 293.93492,113.38123 26.86899,-13.729763 6.79106,-34.988738 -10.33423,5.757641 z"
         id="path1550"
         sodipodi:nodetypes="ccccc" />
      <path
         style="fill:#31446b;fill-opacity:1;stroke:none;stroke-width:0.535;stroke-linecap:round;stroke-linejoin:round;stroke-opacity:1"
         d="m 219.97139,179.3058 34.69347,-20.07793 79.27828,30.85505 -10.33423,6.4958 c -3.36531,1.6457 -6.92622,3.47263 -17.27292,0.73816 z"
         id="path1548"
         sodipodi:nodetypes="cccccc" />
      <path
         style="fill:#0c82b1;fill-opacity:1;stroke:none;stroke-width:0.535;stroke-linecap:round;stroke-linejoin:round;stroke-opacity:1"
         d="m 219.97139,176.71527 34.69347,-20.07793 79.27828,30.85505 -10.33423,6.4958 c -3.36531,1.6457 -6.92622,3.47263 -17.27292,0.73816 z"
         id="path1492"
         sodipodi:nodetypes="cccccc" />
    </g>
  </g>
</svg>
