<?xml version="1.0" encoding="UTF-8" standalone="no"?>
<!-- Created with Inkscape (http://www.inkscape.org/) -->

<svg
   width="223.168mm"
   height="187.20399mm"
   viewBox="0 0 223.16799 187.20399"
   version="1.1"
   id="svg2905"
   inkscape:version="1.2.1 (9c6d41e410, 2022-07-14)"
   sodipodi:docname="svg-tren.svg"
   xmlns:inkscape="http://www.inkscape.org/namespaces/inkscape"
   xmlns:sodipodi="http://sodipodi.sourceforge.net/DTD/sodipodi-0.dtd"
   xmlns="http://www.w3.org/2000/svg"
   xmlns:svg="http://www.w3.org/2000/svg">
  <sodipodi:namedview
     id="namedview2907"
     pagecolor="#ffffff"
     bordercolor="#000000"
     borderopacity="0.25"
     inkscape:showpageshadow="2"
     inkscape:pageopacity="0.0"
     inkscape:pagecheckerboard="0"
     inkscape:deskcolor="#d1d1d1"
     inkscape:document-units="mm"
     showgrid="false"
     inkscape:zoom="0.72515432"
     inkscape:cx="345.44371"
     inkscape:cy="446.11194"
     inkscape:window-width="1920"
     inkscape:window-height="1001"
     inkscape:window-x="-9"
     inkscape:window-y="-9"
     inkscape:window-maximized="1"
     inkscape:current-layer="layer1" />
  <defs
     id="defs2902" />
  <g
     inkscape:label="Layer 1"
     inkscape:groupmode="layer"
     id="layer1">
    <g
       id="g4158"
       transform="matrix(0.90083203,0,0,0.90083193,-56.71393,-257.33674)">
      <g
         id="g19795"
         transform="translate(-23.106,-12.435895)">
        <path
           style="fill:#b1b5b2;fill-opacity:1;stroke:none;stroke-width:0.535;stroke-linecap:round;stroke-linejoin:round;stroke-dasharray:none;stroke-opacity:1"
           d="M 284.52033,385.89956 98.189,493.478 v -6.33721 l 186.16931,-107.4849 v 6.31101 L 98.189,493.478"
           id="path19789"
           sodipodi:nodetypes="cccccc" />
        <path
           style="fill:#e3e9e3;fill-opacity:1;stroke:none;stroke-width:0.535;stroke-linecap:round;stroke-linejoin:round;stroke-dasharray:none;stroke-opacity:1"
           d="m 98.189,493.478 v -6.33721 l -3.866697,-2.23244 v 6.30445 z"
           id="path19791" />
        <path
           style="fill:#e3e9e3;fill-opacity:1;stroke:none;stroke-width:0.535;stroke-linecap:round;stroke-linejoin:round;stroke-dasharray:none;stroke-opacity:1"
           d="M 94.322303,484.90835 280.54405,377.39317 284.35831,379.65589 98.189,487.14079 Z"
           id="path19793" />
      </g>
      <g
         id="g19061">
        <path
           style="fill:#b1b5b2;fill-opacity:1;stroke:none;stroke-width:0.535;stroke-linecap:round;stroke-linejoin:round;stroke-dasharray:none;stroke-opacity:1"
           d="M 284.52033,385.89956 98.189,493.478 v -6.33721 l 186.16931,-107.4849 v 6.31101 L 98.189,493.478"
           id="path16181"
           sodipodi:nodetypes="cccccc" />
        <path
           style="fill:#e3e9e3;fill-opacity:1;stroke:none;stroke-width:0.535;stroke-linecap:round;stroke-linejoin:round;stroke-dasharray:none;stroke-opacity:1"
           d="m 98.189,493.478 v -6.33721 l -3.866697,-2.23244 v 6.30445 z"
           id="path16340" />
        <path
           style="fill:#e3e9e3;fill-opacity:1;stroke:none;stroke-width:0.535;stroke-linecap:round;stroke-linejoin:round;stroke-dasharray:none;stroke-opacity:1"
           d="M 94.322303,484.90835 280.54405,377.39317 284.35831,379.65589 98.189,487.14079 Z"
           id="path17121" />
      </g>
      <g
         id="g1723">
        <ellipse
           style="fill:#9a9fa2;fill-opacity:1;stroke:none;stroke-width:0.62375;stroke-linecap:round;stroke-linejoin:round"
           id="ellipse2469"
           cx="-361.86652"
           cy="433.46667"
           rx="3.8727551"
           ry="5.9911914"
           transform="matrix(-1,0,-0.3197542,0.94750053,0,0)" />
        <g
           id="g1370"
           style="stroke:none">
          <path
             style="fill:#9a9fa2;fill-opacity:1;stroke:none;stroke-width:0.423;stroke-linecap:round;stroke-linejoin:round;stroke-opacity:1"
             d="m 238.46345,398.33562 -5.66184,11.14405 -4.53244,-2.6168 5.75588,-9.96946 z"
             id="path2467" />
          <ellipse
             style="fill:#9a9fa2;fill-opacity:1;stroke:none;stroke-width:0.62375;stroke-linecap:round;stroke-linejoin:round"
             id="ellipse2465"
             cx="-371.8067"
             cy="426.15863"
             rx="3.8727551"
             ry="5.9911914"
             transform="matrix(-1,0,-0.3197542,0.94750053,0,0)" />
        </g>
        <g
           id="g1362">
          <path
             style="fill:#9a9fa2;fill-opacity:1;stroke:none;stroke-width:0.423;stroke-linecap:round;stroke-linejoin:round;stroke-opacity:1"
             d="m 296.19743,364.93281 -5.66184,11.14405 -4.53244,-2.6168 5.75588,-9.96946 z"
             id="path2477" />
          <ellipse
             style="fill:#9a9fa2;fill-opacity:1;stroke:none;stroke-width:0.62375;stroke-linecap:round;stroke-linejoin:round"
             id="ellipse2475"
             cx="-418.26822"
             cy="390.90503"
             rx="3.8727551"
             ry="5.9911914"
             transform="matrix(-1,0,-0.3197542,0.94750053,0,0)" />
        </g>
        <g
           id="g1366"
           style="stroke:none">
          <ellipse
             style="fill:#9a9fa2;fill-opacity:1;stroke:none;stroke-width:0.62375;stroke-linecap:round;stroke-linejoin:round"
             id="ellipse2471"
             cx="-408.32526"
             cy="398.51373"
             rx="3.8727551"
             ry="5.9911914"
             transform="matrix(-1,0,-0.3197542,0.94750053,0,0)" />
          <path
             style="fill:#9a9fa2;fill-opacity:1;stroke:none;stroke-width:0.423;stroke-linecap:round;stroke-linejoin:round;stroke-opacity:1"
             d="m 283.82157,372.14205 -5.66184,11.14405 -4.53244,-2.6168 5.75588,-9.96946 z"
             id="path2473" />
        </g>
        <path
           style="fill:#3f4548;fill-opacity:1;stroke:none;stroke-width:0.423;stroke-linecap:round;stroke-linejoin:round;stroke-opacity:1"
           d="m 310.69314,350.40105 v 9.82031 l -32.99609,19.05078 v 4.54688 l -28.17314,16.3602 0.0794,-4.68638 -34.00262,19.63142 v -9.80499 z"
           id="path2479" />
        <path
           style="fill:#3f4548;fill-opacity:1;stroke:none;stroke-width:1.93512;stroke-linecap:round;stroke-linejoin:round"
           d="m 215.60069,405.31927 8.19526,-4.73274 -10.59119,-3.32753 z"
           id="path1426" />
        <path
           style="fill:#0c82b1;fill-opacity:1;stroke:none;stroke-width:0.423;stroke-linecap:round;stroke-linejoin:round;stroke-opacity:1"
           d="m 222.50169,358.2446 v 43.08917 l 87.25671,-50.37768 v -43.07685 z"
           id="path3991" />
        <path
           style="fill:#11b2e4;fill-opacity:1;stroke:none;stroke-width:0.423;stroke-linecap:round;stroke-linejoin:round;stroke-opacity:1"
           d="M 184.07124,336.01756 222.53565,358.225 309.7584,307.87924 271.28333,285.66565 Z"
           id="path3993" />
        <path
           style="fill:#31446b;fill-opacity:1;stroke:none;stroke-width:0.423;stroke-linecap:round;stroke-linejoin:round;stroke-opacity:1"
           d="m 219.40115,404.19795 -39.77097,-22.96178 v -44.44459 l 40.01461,23.10245 z"
           id="path3223" />
        <path
           style="fill:#00001c;fill-opacity:1;stroke:none;stroke-width:0.423;stroke-linecap:round;stroke-linejoin:round;stroke-opacity:1"
           d="m 219.64479,359.89403 -0.24364,44.30392 3.10054,-1.7901 V 358.2446 l -2.8569,1.64943"
           id="path3225"
           sodipodi:nodetypes="ccccc" />
        <path
           style="fill:#001d41;fill-opacity:1;stroke:none;stroke-width:0.423;stroke-linecap:round;stroke-linejoin:round;stroke-opacity:1"
           d="m 179.63018,336.79158 40.01461,23.10245 2.8569,-1.64943 -39.93405,-23.05593 z"
           id="path3231" />
        <path
           style="fill:#9a9fa2;fill-opacity:1;stroke:none;stroke-width:0.423;stroke-linecap:round;stroke-linejoin:round;stroke-opacity:1"
           d="m 215.79653,361.7836 0.24031,36.4059 -33.28265,-19.21575 V 342.7066 Z"
           id="path3999" />
        <path
           style="fill:#6b7073;fill-opacity:1;stroke:none;stroke-width:0.423;stroke-linecap:round;stroke-linejoin:round;stroke-opacity:1"
           d="m 215.60069,417.74531 v -23.0536 l -35.97051,-20.76758 v 21.99726 z"
           id="path4005"
           sodipodi:nodetypes="ccccc" />
      </g>
      <path
         id="Path_2003"
         data-name="Path 2003"
         d="m 75.873,480.592 a 60.1,60.1 0 0 0 6.778,-1.108 4.859,4.859 0 0 0 1.237,-0.473 l 2.368,-1.37 5.226,-3.187 -1.884,-1.788 z"
         fill="rgba(1,30,65,0.1)" />
      <path
         id="Path_1931"
         data-name="Path 1931"
         d="m 137.717,411.406 -14.549,8.4 a 3.911,3.911 0 0 0 -0.776,0.595 5.574,5.574 0 0 0 -0.739,0.879 l -0.041,0.052 a 6.462,6.462 0 0 0 -0.543,0.994 5.493,5.493 0 0 0 -0.355,1.086 l -3.849,18.105 20.547,-11.863 a 0.7,0.7 0 0 0 0.2,-0.236 0.677,0.677 0 0 0 0.1,-0.3 v -17.712 z m -15.734,6.36 15.432,-8.909 a 2.009,2.009 0 0 1 0.99,-0.284 1.616,1.616 0 0 1 0.827,0.222 1.643,1.643 0 0 1 0.6,0.6 2,2 0 0 1 0.255,1 v 18.73 a 3.16,3.16 0 0 1 -1.488,2.571 l -21.77,12.565 a 1.683,1.683 0 0 1 -0.3,0.126 l -0.137,0.044 a 1.72,1.72 0 0 1 -0.8,0.018 1.606,1.606 0 0 1 -0.85,-0.48 v -0.007 a 1.767,1.767 0 0 1 -0.41,-0.776 2.38,2.38 0 0 1 0,-1.06 l 4.1,-19.287 a 8.09,8.09 0 0 1 0.48,-1.455 9.359,9.359 0 0 1 0.739,-1.348 1.488,1.488 0 0 1 0.14,-0.2 8.3,8.3 0 0 1 0.971,-1.134 6.6,6.6 0 0 1 1.226,-0.938 z"
         fill="#011e41" />
      <path
         id="Path_1932"
         data-name="Path 1932"
         d="m 130.559,438.944 7.948,-4.591 a 0.786,0.786 0 0 1 1.075,0.288 0.794,0.794 0 0 1 0.107,0.4 v 2.888 a 0.793,0.793 0 0 1 -0.443,0.713 l -7.952,4.587 a 0.789,0.789 0 0 1 -1.075,-0.284 0.772,0.772 0 0 1 -0.1,-0.4 v -2.892 a 0.785,0.785 0 0 1 0.447,-0.709 z m 7.555,-2.54 -6.423,3.708 v 1.075 l 6.423,-3.713 z"
         fill="#011e41" />
      <path
         id="Path_1934"
         data-name="Path 1934"
         d="m 194.302,380.838 a 2.013,2.013 0 0 0 0.82,-1.455 v -0.052 c -13.588,7.472 -26.866,16.034 -40.429,23.605 a 1.808,1.808 0 0 0 -0.561,0.621 1.826,1.826 0 0 0 -0.262,0.835 v 0.055 c 13.583,-7.347 26.884,-16.082 40.432,-23.609 z m 1.921,0.163 a 3.393,3.393 0 0 1 -1.108,1.186 l -40.4,23.6 a 1.888,1.888 0 0 1 -0.96,0.273 1.4,1.4 0 0 1 -0.7,-0.181 1.432,1.432 0 0 1 -0.484,-0.469 l -0.033,-0.055 a 1.85,1.85 0 0 1 -0.236,-0.96 3.348,3.348 0 0 1 0.469,-1.618 3.469,3.469 0 0 1 1.112,-1.186 l 40.4,-23.594 a 1.921,1.921 0 0 1 0.96,-0.277 1.424,1.424 0 0 1 0.705,0.185 v 0 a 1.445,1.445 0 0 1 0.51,0.513 1.9,1.9 0 0 1 0.236,0.968 3.334,3.334 0 0 1 -0.469,1.614 z"
         fill="#011e41" />
      <path
         id="Path_1935"
         data-name="Path 1935"
         d="m 194.302,390.21 a 1.817,1.817 0 0 0 0.558,-0.624 1.782,1.782 0 0 0 0.262,-0.835 v -0.052 c -13.581,7.468 -26.837,16.192 -40.429,23.605 a 1.807,1.807 0 0 0 -0.561,0.62 1.853,1.853 0 0 0 -0.262,0.835 v 0.055 c 13.595,-7.35 26.851,-16.204 40.432,-23.604 z m 1.921,0.159 a 3.393,3.393 0 0 1 -1.108,1.186 l -40.4,23.6 a 1.889,1.889 0 0 1 -0.96,0.273 1.4,1.4 0 0 1 -0.7,-0.181 1.431,1.431 0 0 1 -0.484,-0.469 l -0.033,-0.052 a 1.873,1.873 0 0 1 -0.236,-0.964 3.3,3.3 0 0 1 0.473,-1.618 3.361,3.361 0 0 1 1.108,-1.186 l 40.4,-23.594 a 1.921,1.921 0 0 1 0.96,-0.277 1.464,1.464 0 0 1 0.705,0.185 v 0.007 a 1.4,1.4 0 0 1 0.51,0.51 1.9,1.9 0 0 1 0.236,0.968 3.334,3.334 0 0 1 -0.469,1.614 z"
         fill="#011e41" />
      <path
         id="Path_1936"
         data-name="Path 1936"
         d="m 194.302,399.575 a 1.874,1.874 0 0 0 0.558,-0.621 1.809,1.809 0 0 0 0.262,-0.838 v -0.052 c -13.581,7.468 -26.837,16.192 -40.429,23.605 a 1.808,1.808 0 0 0 -0.561,0.62 1.867,1.867 0 0 0 -0.262,0.838 v 0.055 c 13.595,-7.352 26.851,-16.202 40.432,-23.607 z m 1.921,0.159 a 3.393,3.393 0 0 1 -1.108,1.186 l -40.4,23.6 a 2,2 0 0 1 -0.857,0.273 h -0.1 a 1.429,1.429 0 0 1 -0.632,-0.148 l -0.074,-0.037 a 1.4,1.4 0 0 1 -0.517,-0.521 1.94,1.94 0 0 1 -0.236,-0.964 3.326,3.326 0 0 1 0.473,-1.621 3.38,3.38 0 0 1 1.108,-1.182 l 40.4,-23.594 a 1.922,1.922 0 0 1 0.96,-0.277 1.424,1.424 0 0 1 0.705,0.185 v 0 a 1.445,1.445 0 0 1 0.51,0.513 1.892,1.892 0 0 1 0.236,0.964 3.336,3.336 0 0 1 -0.469,1.618 z"
         fill="#011e41" />
      <path
         id="Path_1938"
         data-name="Path 1938"
         d="m 117.332,437.444 -1.034,4.853 21.315,-12.3 a 1.1,1.1 0 0 0 0.344,-0.384 1.015,1.015 0 0 0 0.155,-0.487 v -3.682 z m -2.626,4.761 1.156,-5.429 a 0.8,0.8 0 0 1 0.377,-0.521 l 22.22,-12.828 a 0.759,0.759 0 0 1 0.443,-0.137 0.788,0.788 0 0 1 0.787,0.79 v 5.042 a 2.756,2.756 0 0 1 -1.289,2.231 l -21.733,12.543 a 1.618,1.618 0 0 1 -0.3,0.126 l -0.081,0.026 a 1.415,1.415 0 0 1 -0.621,0.015 1.213,1.213 0 0 1 -0.643,-0.366 1.431,1.431 0 0 1 -0.321,-0.606 2.045,2.045 0 0 1 0,-0.886 z"
         fill="#011e41" />
      <path
         id="Path_1939"
         data-name="Path 1939"
         d="m 118.105,416.578 -41.663,-24.054 1.174,-2.044 41.664,24.055 z"
         fill="#011e41" />
      <path
         id="Path_1940"
         data-name="Path 1940"
         d="m 74.636,441.755 a 2.217,2.217 0 0 0 1.078,0.344 0.928,0.928 0 0 0 0.469,-0.111 l 0.033,-0.018 a 0.945,0.945 0 0 0 0.3,-0.332 2.193,2.193 0 0 0 0.24,-1.108 5.972,5.972 0 0 0 -0.861,-2.859 l -0.022,-0.044 a 5.922,5.922 0 0 0 -2.028,-2.135 2.218,2.218 0 0 0 -1.079,-0.343 0.914,0.914 0 0 0 -0.465,0.111 l -0.033,0.018 a 0.916,0.916 0 0 0 -0.3,0.332 l -0.019,0.03 a 2.3,2.3 0 0 0 -0.218,1.079 6.488,6.488 0 0 0 2.907,5.038 z m 1.078,1.921 a 3.76,3.76 0 0 1 -1.869,-0.558 8.108,8.108 0 0 1 -3.7,-6.4 3.8,3.8 0 0 1 0.428,-1.843 l 0.026,-0.055 a 2.489,2.489 0 0 1 0.861,-0.89 l 0.048,-0.03 a 2.46,2.46 0 0 1 1.256,-0.329 3.8,3.8 0 0 1 1.869,0.558 7.549,7.549 0 0 1 2.6,2.711 l 0.026,0.041 a 7.559,7.559 0 0 1 1.075,3.653 3.792,3.792 0 0 1 -0.454,1.895 2.48,2.48 0 0 1 -0.857,0.89 l -0.052,0.033 a 2.486,2.486 0 0 1 -1.256,0.325 z"
         fill="#011e41" />
      <path
         id="Path_1941"
         data-name="Path 1941"
         d="m 103.948,458.616 a 2.23,2.23 0 0 0 1.082,0.343 0.848,0.848 0 0 0 0.8,-0.458 l 0.018,-0.033 a 2.3,2.3 0 0 0 0.222,-1.078 5.943,5.943 0 0 0 -0.861,-2.859 l -0.022,-0.044 a 5.943,5.943 0 0 0 -2.024,-2.135 2.23,2.23 0 0 0 -1.082,-0.344 0.913,0.913 0 0 0 -0.465,0.111 l -0.033,0.018 a 0.952,0.952 0 0 0 -0.3,0.332 l -0.018,0.03 a 2.3,2.3 0 0 0 -0.222,1.078 6.52,6.52 0 0 0 2.91,5.038 z m 1.082,1.921 a 3.76,3.76 0 0 1 -1.869,-0.558 8.1,8.1 0 0 1 -3.7,-6.4 3.8,3.8 0 0 1 0.428,-1.843 l 0.026,-0.055 a 2.51,2.51 0 0 1 0.857,-0.89 l 0.052,-0.03 a 2.46,2.46 0 0 1 1.256,-0.329 3.8,3.8 0 0 1 1.869,0.558 7.518,7.518 0 0 1 2.6,2.711 l 0.026,0.041 a 7.556,7.556 0 0 1 1.075,3.649 3.828,3.828 0 0 1 -0.425,1.843 l -0.03,0.055 a 2.429,2.429 0 0 1 -2.161,1.248 z"
         fill="#011e41" />
      <path
         id="Path_1942"
         data-name="Path 1942"
         d="m 72.954,422.922 -0.336,5.592 33.223,19.184 c 0.037,-0.584 0.074,-0.957 0.107,-1.33 0.063,-0.639 0.129,-1.285 0.192,-3.128 l 0.026,-0.21 4.779,-22.494 -33.386,-19.273 -4.606,21.662 z m -2.737,6.179 0.384,-6.371 0.026,-0.218 4.96,-23.332 a 1.135,1.135 0 0 1 0.137,-0.344 1.179,1.179 0 0 1 1.61,-0.432 l 35.487,20.488 a 1.183,1.183 0 0 1 0.613,1.3 l -4.942,23.243 c -0.066,1.836 -0.129,2.5 -0.2,3.162 -0.059,0.643 -0.126,1.285 -0.188,3.128 a 1.178,1.178 0 0 1 -1.765,0.986 L 70.87,430.234 a 1.182,1.182 0 0 1 -0.658,-1.13 z"
         fill="#011e41" />
      <path
         id="Path_1946"
         data-name="Path 1946"
         d="m 107.896,438.601 -13,-7.509 a 0.7,0.7 0 0 1 -0.266,-0.251 l -3.668,-5.607 -17.773,-10.261 0.79,-1.359 17.9,10.331 a 0.794,0.794 0 0 1 0.3,0.273 l 3.664,5.61 12.835,7.409 -0.783,1.359 z"
         fill="#011e41" />
      <path
         id="Path_1958"
         data-name="Path 1958"
         d="m 81.783,444.643 v -3.621 l -0.369,-0.214 v 3.623 l 0.369,0.214 z m 1.57,-4.078 v 5.437 a 0.791,0.791 0 0 1 -1.178,0.683 l -1.917,-1.108 a 0.782,0.782 0 0 1 -0.421,-0.694 v -5.437 a 0.786,0.786 0 0 1 1.178,-0.683 l 1.917,1.108 a 0.784,0.784 0 0 1 0.421,0.695 z"
         fill="#011e41" />
      <path
         id="Path_1959"
         data-name="Path 1959"
         d="m 85.069,442.914 v 3.623 l 0.369,0.214 v -3.623 z m -1.57,4.078 v -5.437 a 0.832,0.832 0 0 1 0.107,-0.392 0.784,0.784 0 0 1 1.071,-0.288 l 1.917,1.1 a 0.788,0.788 0 0 1 0.421,0.7 v 5.437 a 0.782,0.782 0 0 1 -1.174,0.68 l -1.921,-1.108 a 0.782,0.782 0 0 1 -0.417,-0.694 z"
         fill="#011e41" />
      <path
         id="Path_1960"
         data-name="Path 1960"
         d="m 89.099,448.865 v -3.623 l -0.373,-0.214 v 3.623 l 0.369,0.214 z m 1.57,-4.078 v 5.437 a 0.791,0.791 0 0 1 -1.178,0.683 l -1.917,-1.108 a 0.787,0.787 0 0 1 -0.421,-0.694 v -5.437 a 0.786,0.786 0 0 1 1.178,-0.683 l 1.917,1.108 a 0.786,0.786 0 0 1 0.417,0.694 z"
         fill="#011e41" />
      <path
         id="Path_1961"
         data-name="Path 1961"
         d="m 92.386,447.139 v 3.623 l 0.369,0.214 v -3.623 z m -1.57,4.078 v -5.437 a 0.754,0.754 0 0 1 0.107,-0.391 0.781,0.781 0 0 1 1.071,-0.288 l 1.917,1.1 a 0.785,0.785 0 0 1 0.417,0.7 v 5.437 a 0.784,0.784 0 0 1 -1.178,0.68 l -1.917,-1.108 a 0.782,0.782 0 0 1 -0.417,-0.694 z"
         fill="#011e41" />
      <path
         id="Path_1962"
         data-name="Path 1962"
         d="m 96.043,449.249 v 3.623 l 0.369,0.214 v -3.623 z m -1.57,4.078 v -5.437 a 0.777,0.777 0 0 1 0.1,-0.392 0.786,0.786 0 0 1 1.071,-0.292 l 1.917,1.108 a 0.778,0.778 0 0 1 0.421,0.694 v 5.437 a 0.782,0.782 0 0 1 -1.175,0.68 l -1.921,-1.1 a 0.791,0.791 0 0 1 -0.417,-0.694 z"
         fill="#011e41" />
      <path
         id="Path_2018"
         data-name="Path 2018"
         d="m 121.786,468.224 v -8.388 h -1.4 v 8.4 h 1.385 z"
         fill="#011e41" />
      <path
         id="Path_2019"
         data-name="Path 2019"
         d="m 129.672,463.676 v -8.387 h -1.4 v 8.4 h 1.386 z"
         fill="#011e41" />
      <path
         id="Path_2020"
         data-name="Path 2020"
         d="m 137.565,459.131 v -8.388 h -1.4 v 8.4 h 1.386 z"
         fill="#011e41" />
      <path
         id="Path_2025"
         data-name="Path 2025"
         d="M 177.009,436.387 V 428 h -1.4 v 8.4 h 1.382 z"
         fill="#011e41" />
      <path
         id="Path_2026"
         data-name="Path 2026"
         d="m 184.898,431.839 v -8.388 h -1.4 v 8.4 h 1.385 z"
         fill="#011e41" />
      <path
         id="Path_2027"
         data-name="Path 2027"
         d="m 192.787,427.29 v -8.387 h -1.4 v 8.4 h 1.386 z"
         fill="#011e41" />
      <path
         id="Path_2028"
         data-name="Path 2028"
         d="m 200.675,422.742 v -8.388 h -1.4 v 8.4 h 1.386 z"
         fill="#011e41" />
      <path
         id="Path_2034"
         data-name="Path 2034"
         d="m 195.983,415.935 5.531,-9.576 1,0.579 v 0.492 l -4.907,8.5 -0.821,0.473 z"
         fill="#011e41" />
      <path
         id="Path_2035"
         data-name="Path 2035"
         d="m 105.151,449.568 v -33.535 h 1.4 v 32.688 l -0.182,0.86 h -1.2 z"
         fill="#011e41" />
      <path
         id="Path_2036"
         data-name="Path 2036"
         d="m 97.258,445.014 v -33.536 h 1.4 v 33.546 h -1.384 z"
         fill="#011e41" />
      <path
         id="Path_2037"
         data-name="Path 2037"
         d="m 89.373,440.459 v -33.537 h 1.4 V 440.47 H 89.39 Z"
         fill="#011e41" />
      <path
         id="Path_2038"
         data-name="Path 2038"
         d="m 81.484,435.905 v -33.537 h 1.4 v 33.548 h -1.382 z"
         fill="#011e41" />
      <path
         id="Path_2039"
         data-name="Path 2039"
         d="m 73.599,431.35 v -19.893 h 1.4 v 19.9 h -1.384 z"
         fill="#011e41" />
      <path
         id="Path_2040"
         data-name="Path 2040"
         d="m 134.274,432.228 v -20.4 h 1.4 v 20.39 l -0.018,0.01 z"
         fill="#011e41" />
      <path
         id="Path_2041"
         data-name="Path 2041"
         d="m 126.385,436.783 v -20.4 h 1.4 v 20.393 l -0.018,0.011 z"
         fill="#011e41" />
      <path
         id="Path_2042"
         data-name="Path 2042"
         d="m 118.496,441.337 v -16.852 h 1.4 v 16.842 l -0.017,0.01 z"
         fill="#011e41" />
      <path
         style="fill:#31446b;fill-opacity:1;stroke:none;stroke-width:0.423;stroke-linecap:round;stroke-linejoin:round;stroke-dasharray:none;stroke-opacity:1"
         d="M 159.57268,342.50485 202.074,367.043 119.01382,414.99782 76.453111,390.42538 Z"
         id="path15528" />
      <path
         style="fill:#9a9fa2;fill-opacity:1;stroke:none;stroke-width:0.423;stroke-linecap:round;stroke-linejoin:round;stroke-opacity:1"
         d="M 205.58344,423.72297 V 400.65341 L 194.98777,394.536 v 23.05912 z"
         id="path1695"
         sodipodi:nodetypes="ccccc" />
      <path
         style="fill:#001d41;fill-opacity:1;stroke:none;stroke-width:0.423;stroke-linecap:round;stroke-linejoin:round;stroke-dasharray:none;stroke-opacity:1"
         d="m 110.76548,465.76 -0.23033,-19.915 8.47867,-30.84718 L 202.074,367.043 v 46 z"
         id="path15530" />
      <path
         style="fill:#31446b;fill-opacity:1;stroke:none;stroke-width:0.423;stroke-linecap:round;stroke-linejoin:round;stroke-dasharray:none;stroke-opacity:1"
         d="m 119.01382,414.99782 -42.501323,-24.53815 -8.47867,30.84718 0.23033,19.915 42.501323,24.53815 -0.23033,-19.915 z"
         id="path15534" />
      <path
         style="fill:#6b7073;fill-opacity:1;stroke:none;stroke-width:0.423;stroke-linecap:round;stroke-linejoin:round;stroke-dasharray:none;stroke-opacity:1"
         d="m 109.46027,483.98019 -46.502995,-26.84852 0.02357,-13.96275 46.479425,26.45287 z"
         id="path15538"
         sodipodi:nodetypes="ccccc" />
      <path
         style="fill:#00001c;fill-opacity:1;stroke:none;stroke-width:0.423;stroke-linecap:round;stroke-linejoin:round"
         d="m 131.13836,442.44728 -0.0425,-3.04578 7.65756,-4.42109 v 3.05362 z"
         id="path839"
         sodipodi:nodetypes="ccccc" />
      <path
         style="fill:#11b2e4;fill-opacity:1;stroke:none;stroke-width:0.423;stroke-linecap:round;stroke-linejoin:round"
         d="m 115.8885,443.4883 22.8311,-13.18154 v -20.58172 l -17.29125,9.9831 z"
         id="path888" />
      <path
         style="fill:#63e4ff;fill-opacity:1;stroke:none;stroke-width:0.423;stroke-linecap:round;stroke-linejoin:round"
         d="M 106.45699,449.44732 71.658813,429.35658 v -6.92707 l 5.741283,-22.09004 36.074134,19.74825 -6.84731,24.68671 z"
         id="path890"
         sodipodi:nodetypes="ccccccc" />
      <path
         style="fill:#001d41;fill-opacity:1;stroke:none;stroke-width:0.423;stroke-linecap:round;stroke-linejoin:round"
         d="m 80.42115,445.33656 v -5.96703 l 2.258192,1.30376 v 5.96704 z"
         id="path945" />
      <path
         style="fill:#001d41;fill-opacity:1;stroke:none;stroke-width:0.423;stroke-linecap:round;stroke-linejoin:round"
         d="m 84.044443,447.42847 v -5.96704 l 2.284221,1.3188 v 5.96704 z"
         id="path947" />
      <path
         style="fill:#001d41;fill-opacity:1;stroke:none;stroke-width:0.423;stroke-linecap:round;stroke-linejoin:round"
         d="m 87.652707,449.5117 v -5.96703 l 2.476376,1.42973 v 5.96704 z"
         id="path949" />
      <path
         style="fill:#001d41;fill-opacity:1;stroke:none;stroke-width:0.423;stroke-linecap:round;stroke-linejoin:round"
         d="m 91.362714,451.65368 v -5.96704 l 2.275354,1.31368 v 5.96703 z"
         id="path951" />
      <path
         style="fill:#001d41;fill-opacity:1;stroke:none;stroke-width:0.423;stroke-linecap:round;stroke-linejoin:round"
         d="m 94.982641,453.74364 v -5.96703 l 2.414359,1.41583 v 5.94513 z"
         id="path953" />
      <ellipse
         style="fill:#63e4ff;fill-opacity:1;stroke:none;stroke-width:0.479434;stroke-linecap:round;stroke-linejoin:round"
         id="path1061"
         cx="-73.767197"
         cy="462.92538"
         rx="2.9767208"
         ry="4.6050172"
         transform="matrix(1,0,0.3197542,0.94750053,0,0)" />
      <ellipse
         style="fill:#63e4ff;fill-opacity:1;stroke:none;stroke-width:0.479434;stroke-linecap:round;stroke-linejoin:round"
         id="ellipse1063"
         cx="-50.146694"
         cy="480.7424"
         rx="2.9767208"
         ry="4.6050172"
         transform="matrix(1,0,0.3197542,0.94750053,0,0)" />
      <path
         id="ellipse1067"
         style="fill:#9a9fa2;fill-opacity:1;stroke:none;stroke-width:0.62375;stroke-linecap:round;stroke-linejoin:round"
         d="m -282.48154,483.48629 2.3917,10.5211 -5.41643,2.7622 -0.0254,-0.15872 a 3.8727551,5.9911914 0 0 1 -0.79092,0.14017 3.8727551,5.9911914 0 0 1 -3.87365,-5.99027 3.8727551,5.9911914 0 0 1 2.79077,-5.74702 l -6.4e-4,-0.004 0.0241,-0.008 a 3.8727551,5.9911914 0 0 1 0.60686,-0.18758 z"
         transform="matrix(-1,0,-0.3197542,0.94750053,0,0)" />
      <ellipse
         style="fill:#9a9fa2;fill-opacity:1;stroke:none;stroke-width:0.62375;stroke-linecap:round;stroke-linejoin:round"
         id="ellipse1685"
         cx="-276.38281"
         cy="498.06854"
         rx="3.8727551"
         ry="5.9911914"
         transform="matrix(-1,0,-0.3197542,0.94750053,0,0)" />
      <path
         id="ellipse1687"
         style="fill:#9a9fa2;fill-opacity:1;stroke:none;stroke-width:0.62375;stroke-linecap:round;stroke-linejoin:round"
         d="m -318.99945,455.8416 2.39169,10.5211 -5.41643,2.7622 -0.0254,-0.15872 a 3.8727551,5.9911914 0 0 1 -0.79091,0.14017 3.8727551,5.9911914 0 0 1 -3.87365,-5.99027 3.8727551,5.9911914 0 0 1 2.7901,-5.74496 l -10e-4,-0.008 0.0365,-0.0103 a 3.8727551,5.9911914 0 0 1 0.58535,-0.18139 z"
         transform="matrix(-1,0,-0.3197542,0.94750053,0,0)" />
      <path
         id="ellipse1691"
         style="fill:#9a9fa2;fill-opacity:1;stroke:none;stroke-width:0.62375;stroke-linecap:round;stroke-linejoin:round"
         d="m -328.94358,448.23318 2.39169,10.5211 -5.41447,2.7622 -0.0254,-0.15872 a 3.8727551,5.9911914 0 0 1 -0.79287,0.14017 3.8727551,5.9911914 0 0 1 -3.87365,-5.99027 3.8727551,5.9911914 0 0 1 2.79271,-5.74703 l -0.002,-0.006 0.0345,-0.0103 a 3.8727551,5.9911914 0 0 1 0.5873,-0.1814 z"
         transform="matrix(-1,0,-0.3197542,0.94750053,0,0)" />
      <path
         style="fill:#3f4548;fill-opacity:1;stroke:none;stroke-width:0.423;stroke-linecap:round;stroke-linejoin:round;stroke-opacity:1"
         d="m 204.55245,411.611 v 9.82031 l -32.99609,19.05078 v 4.54688 l -28.17314,16.3602 0.0794,-4.68638 -34.00262,19.63142 v -9.80499 z"
         id="path2429" />
      <path
         style="fill:#3f4548;fill-opacity:1;stroke:none;stroke-width:0.423;stroke-linecap:round;stroke-linejoin:round;stroke-dasharray:none;stroke-opacity:1"
         d="m 109.46027,469.62179 v 14.3584 l 7.62833,-4.40422 v -14.39988 z"
         id="path15536" />
      <path
         style="fill:#00001c;fill-opacity:1;stroke:none;stroke-width:0.423;stroke-linecap:round;stroke-linejoin:round;stroke-opacity:1"
         d="m 153.97731,402.39564 41.75351,-24.1064 c 1.97164,-0.63794 1.4266,2.68771 0,3.38279 l -41.75351,24.1064 c -1.52072,0.18083 -1.18663,-2.08147 0,-3.38279 z"
         id="path4011"
         sodipodi:nodetypes="ccccc" />
      <path
         style="fill:#00001c;fill-opacity:1;stroke:none;stroke-width:0.423;stroke-linecap:round;stroke-linejoin:round;stroke-opacity:1"
         d="m 153.97731,412.39564 41.75351,-24.1064 c 1.97164,-0.63794 1.4266,2.68771 0,3.38279 l -41.75351,24.1064 c -1.52072,0.18083 -1.18663,-2.08147 0,-3.38279 z"
         id="path4013"
         sodipodi:nodetypes="ccccc" />
      <path
         style="fill:#00001c;fill-opacity:1;stroke:none;stroke-width:0.423;stroke-linecap:round;stroke-linejoin:round;stroke-opacity:1"
         d="m 153.97731,422.39564 41.75351,-24.1064 c 1.97164,-0.63794 1.4266,2.68771 0,3.38279 l -41.75351,24.1064 c -1.52072,0.18083 -1.18663,-2.08147 0,-3.38279 z"
         id="path4015"
         sodipodi:nodetypes="ccccc" />
      <path
         style="fill:#6b7073;fill-opacity:1;stroke:none;stroke-width:0.423;stroke-linecap:round;stroke-linejoin:round;stroke-dasharray:none;stroke-opacity:1"
         d="m 117.0886,465.17609 -2.65588,-1.53337 -3.66724,2.11728 -42.501323,-24.53815 v -1.39825 l -5.283312,3.34532 46.479425,26.45287 z"
         id="path15540" />
    </g>
  </g>
</svg>
