<?xml version="1.0" encoding="UTF-8" standalone="no"?>
<!-- Created with Inkscape (http://www.inkscape.org/) -->

<svg
   width="227.689mm"
   height="252.575mm"
   viewBox="0 0 227.68899 252.57499"
   version="1.1"
   id="svg2905"
   inkscape:version="1.2.1 (9c6d41e410, 2022-07-14)"
   sodipodi:docname="svg-caja.svg"
   xmlns:inkscape="http://www.inkscape.org/namespaces/inkscape"
   xmlns:sodipodi="http://sodipodi.sourceforge.net/DTD/sodipodi-0.dtd"
   xmlns="http://www.w3.org/2000/svg"
   xmlns:svg="http://www.w3.org/2000/svg">
  <sodipodi:namedview
     id="namedview2907"
     pagecolor="#ffffff"
     bordercolor="#000000"
     borderopacity="0.25"
     inkscape:showpageshadow="2"
     inkscape:pageopacity="0.0"
     inkscape:pagecheckerboard="0"
     inkscape:deskcolor="#d1d1d1"
     inkscape:document-units="mm"
     showgrid="false"
     inkscape:zoom="0.72515432"
     inkscape:cx="345.44371"
     inkscape:cy="475.07129"
     inkscape:window-width="1920"
     inkscape:window-height="1001"
     inkscape:window-x="-9"
     inkscape:window-y="-9"
     inkscape:window-maximized="1"
     inkscape:current-layer="layer1" />
  <defs
     id="defs2902" />
  <g
     inkscape:label="Layer 1"
     inkscape:groupmode="layer"
     id="layer1">
    <g
       id="g945"
       transform="matrix(0.69950946,0,0,0.74687439,-500.79179,-467.65606)">
      <path
         style="fill:#b39069;fill-opacity:1;stroke:none;stroke-width:4.79258;stroke-dasharray:none;stroke-opacity:1"
         d="M 715.91854,877.29237 878.6674,964.32689 V 799.81408 L 715.91854,712.77956 Z"
         id="path6971" />
      <path
         style="fill:#96795b;fill-opacity:1;stroke:none;stroke-width:4.79258;stroke-dasharray:none;stroke-opacity:1"
         d="m 878.6674,964.32689 162.7491,-87.03452 V 712.77956 l -162.7491,87.03452 z"
         id="path6973" />
      <path
         id="path6975"
         style="fill:#b39069;fill-opacity:1;stroke:none;stroke-width:4.79258;stroke-dasharray:none;stroke-opacity:1"
         d="m 798.05371,669.66906 -82.13517,43.1105 162.7497,87.03485 81.37314,-43.51817 z"
         sodipodi:nodetypes="ccccc" />
      <path
         id="path6977"
         style="fill:#b39069;fill-opacity:1;stroke:none;stroke-width:4.79258;stroke-dasharray:none;stroke-opacity:1"
         d="m 879.42685,626.15088 -81.37314,43.51818 161.98767,86.62718 81.37312,-43.51818 z"
         sodipodi:nodetypes="ccccc" />
      <path
         id="path6979"
         style="opacity:0.5;fill:#ffffff;stroke:none;stroke-width:4.79258;stroke-dasharray:none;stroke-opacity:1"
         d="m 813.96564,660.50869 -15.91193,9.16037 161.98767,86.62721 16.11458,-8.6174 v -0.43442 z"
         sodipodi:nodetypes="cccccc" />
      <path
         id="path6981"
         style="opacity:0.5;fill:#ffffff;stroke:none;stroke-width:4.79258;stroke-dasharray:none;stroke-opacity:1"
         d="m 976.15599,747.67884 -34.5345,18.46874 v 36.24969 l 34.5345,-18.46874 z" />
      <path
         id="path6983"
         style="opacity:0.5;fill:#ffffff;stroke:none;stroke-width:4.79258;stroke-dasharray:none;stroke-opacity:1"
         d="m 798.05371,669.66906 -18.59137,9.75851 162.15915,86.72001 18.41989,-9.85134 z" />
      <g
         id="g18005"
         transform="matrix(3.3516379,-1.7838677,0,3.0457828,1572.9404,135.28028)">
        <g
           id="g17986"
           transform="matrix(0.64197851,0,0,0.64197851,-80.746707,48.044631)">
          <rect
             style="opacity:1;fill:none;fill-opacity:1;stroke:#443320;stroke-width:0.2;stroke-dasharray:none;stroke-opacity:1"
             id="rect16765"
             width="18.151836"
             height="18.151836"
             x="-188.90012"
             y="139.42409"
             ry="2.5449193" />
          <path
             fill-rule="evenodd"
             d="m -180.5129,143.97655 a 0.79454255,0.79454255 0 0 1 1.37817,0 l 4.8214,8.20346 c 0.32132,0.54705 -0.0646,1.24245 -0.6891,1.24245 h -9.64349 c -0.62508,0 -1.01039,-0.69612 -0.68907,-1.24245 z"
             id="path12200"
             style="fill:#443320;fill-opacity:1;stroke-width:0.703134" />
        </g>
        <g
           id="g17990"
           transform="matrix(0.64197851,0,0,0.64197851,-70.877915,48.044631)">
          <path
             fill-rule="evenodd"
             d="m -153.68515,143.84217 a 0.29110684,0.29110684 0 0 1 0.29111,0.2911 v 0.29927 c 2.40161,0.13049 4.36659,1.86657 4.36659,4.06734 0,0 0,0.29111 -0.29111,0.29111 -0.0867,0 -0.20486,-0.0845 -0.20486,-0.0845 l -0.002,-0.002 -0.0154,-0.0132 a 2.0284325,2.0284325 0 0 0 -0.32314,-0.2294 1.8432886,1.8432886 0 0 0 -0.91058,-0.25268 c -0.37145,0 -0.68585,0.12411 -0.91059,0.25268 a 2.0284325,2.0284325 0 0 0 -0.32312,0.2294 l -0.0154,0.0132 -0.002,0.002 c 0,0 -0.11883,0.0849 -0.20553,0.0849 -0.0867,0 -0.20487,-0.0845 -0.20487,-0.0845 l -0.002,-0.002 -0.0154,-0.0132 a 2.0284325,2.0284325 0 0 0 -0.32314,-0.2294 1.9213052,1.9213052 0 0 0 -0.61946,-0.22705 v 3.46765 h -0.29111 0.29111 v 0.0227 l -0.002,0.0484 a 1.7221881,1.7221881 0 0 1 -0.1734,0.64159 1.3140563,1.3140563 0 0 1 -0.44424,0.51237 c -0.21785,0.14391 -0.49313,0.23054 -0.83489,0.23054 -0.34176,0 -0.61772,-0.0863 -0.83489,-0.23054 a 1.3128919,1.3128919 0 0 1 -0.44423,-0.51237 1.7221881,1.7221881 0 0 1 -0.17582,-0.68992 v -0.0154 l -5.9e-4,-0.004 v -0.002 c 0,0 0,-0.001 0.2911,-0.001 h -0.2911 v -0.2911 a 0.29110684,0.29110684 0 0 1 0.5822,0 v 0.2946 l 0.002,0.0255 a 1.1399744,1.1399744 0 0 0 0.11355,0.42269 c 0.0552,0.11113 0.13401,0.21367 0.24628,0.2882 0.11068,0.0739 0.27132,0.13335 0.51177,0.13335 0.24044,0 0.40114,-0.0594 0.51176,-0.13335 0.11245,-0.0746 0.19101,-0.17692 0.24685,-0.2882 a 1.1399744,1.1399744 0 0 0 0.11465,-0.44831 v -3.47114 a 1.9213052,1.9213052 0 0 0 -0.61946,0.22705 2.0272681,2.0272681 0 0 0 -0.33769,0.2428 l -0.002,0.002 c 0,0 -0.1175,0.0845 -0.20486,0.0845 -0.0867,0 -0.20487,-0.0845 -0.20487,-0.0845 l -0.002,-0.002 a 2.0272681,2.0272681 0 0 0 -0.33769,-0.2428 1.8432886,1.8432886 0 0 0 -0.91058,-0.25269 c -0.37145,0 -0.68526,0.12411 -0.91059,0.25269 a 2.0272681,2.0272681 0 0 0 -0.33769,0.2428 l -0.002,0.002 c 0,0 -0.1175,0.0845 -0.20486,0.0845 -0.29111,0 -0.29111,-0.29111 -0.29111,-0.29111 0,-2.20077 1.96498,-3.93694 4.36659,-4.06734 v -0.29927 a 0.29110684,0.29110684 0 0 1 0.29113,-0.2911 z"
             id="path11950"
             style="fill:#443320;fill-opacity:1;stroke-width:0.582213" />
          <rect
             style="opacity:1;fill:none;fill-opacity:1;stroke:#443320;stroke-width:0.2;stroke-dasharray:none;stroke-opacity:1"
             id="rect17911"
             width="18.151836"
             height="18.151836"
             x="-162.76147"
             y="139.42409"
             ry="2.5449193" />
        </g>
        <g
           id="g17994"
           transform="matrix(0.64197851,0,0,0.64197851,-100.12843,48.044631)">
          <path
             d="m -132.08417,144.12645 a 0.2915676,0.2915676 0 0 1 0.29156,-0.29157 h 5.83135 a 0.2915676,0.2915676 0 0 1 0.29156,0.29157 c 0,0.31373 -0.007,0.61228 -0.0198,0.89569 a 1.7494057,1.7494057 0 1 1 -0.66068,3.43468 c -0.46068,1.08755 -1.09514,1.61937 -1.65204,1.75582 v 1.26715 l 0.83097,0.20762 c 0.11306,0.028 0.21996,0.0787 0.31314,0.14876 l 1.07182,0.80415 a 0.2915676,0.2915676 0 0 1 -0.175,0.52481 h -5.83135 a 0.2915676,0.2915676 0 0 1 -0.17499,-0.52481 l 1.07181,-0.80415 c 0.0932,-0.0701 0.20013,-0.12077 0.31314,-0.14876 l 0.83097,-0.20762 v -1.26715 c -0.5569,-0.13643 -1.19134,-0.66827 -1.65201,-1.75642 a 1.7494057,1.7494057 0 1 1 -0.66011,-3.43465 19.287781,19.287781 0 0 1 -0.0198,-0.89512 z m 0.0577,1.48116 a 1.1663711,1.1663711 0 0 0 0.41986,2.29464 c -0.19417,-0.61228 -0.34287,-1.36803 -0.41986,-2.29464 z m 5.87977,2.29464 a 1.1663711,1.1663711 0 0 0 0.41985,-2.29464 c -0.0776,0.92719 -0.22626,1.68236 -0.41985,2.29464 z"
             id="path12075"
             style="fill:#443320;fill-opacity:1;stroke-width:0.583134" />
          <rect
             style="opacity:1;fill:none;fill-opacity:1;stroke:#443320;stroke-width:0.2;stroke-dasharray:none;stroke-opacity:1"
             id="rect17982"
             width="18.151836"
             height="18.151836"
             x="-137.95396"
             y="139.42409"
             ry="2.5449193" />
        </g>
      </g>
    </g>
  </g>
</svg>
