<?xml version="1.0" encoding="UTF-8" standalone="no"?>
<!-- Created with Inkscape (http://www.inkscape.org/) -->

<svg
   width="426.44699mm"
   height="428.26199mm"
   viewBox="0 0 426.44699 428.262"
   version="1.1"
   id="svg779"
   inkscape:version="1.2.1 (9c6d41e410, 2022-07-14)"
   sodipodi:docname="svg-cammion.svg"
   xmlns:inkscape="http://www.inkscape.org/namespaces/inkscape"
   xmlns:sodipodi="http://sodipodi.sourceforge.net/DTD/sodipodi-0.dtd"
   xmlns="http://www.w3.org/2000/svg"
   xmlns:svg="http://www.w3.org/2000/svg">
  <sodipodi:namedview
     id="namedview781"
     pagecolor="#ffffff"
     bordercolor="#000000"
     borderopacity="0.25"
     inkscape:showpageshadow="2"
     inkscape:pageopacity="0.0"
     inkscape:pagecheckerboard="0"
     inkscape:deskcolor="#d1d1d1"
     inkscape:document-units="mm"
     showgrid="false"
     inkscape:zoom="0.72515432"
     inkscape:cx="639.17429"
     inkscape:cy="361.99191"
     inkscape:window-width="1920"
     inkscape:window-height="1001"
     inkscape:window-x="-9"
     inkscape:window-y="-9"
     inkscape:window-maximized="1"
     inkscape:current-layer="layer1" />
  <defs
     id="defs776" />
  <g
     inkscape:label="Layer 1"
     inkscape:groupmode="layer"
     id="layer1">
    <g
       id="g13611"
       transform="matrix(1.8107347,0,0,1.8107338,-835.57995,-848.47917)">
      <path
         style="fill:#e3e9e3;fill-opacity:1;stroke:none;stroke-width:0.604724;stroke-linecap:round;stroke-linejoin:round;stroke-dasharray:none;stroke-opacity:1"
         d="m 462.44944,592.25666 8.36552,4.82983 0.86304,15.21651 -9.3759,-5.41318 z"
         id="path12353" />
      <path
         style="fill:#e3e9e3;fill-opacity:1;stroke:none;stroke-width:0.604724;stroke-linecap:round;stroke-linejoin:round;stroke-dasharray:none;stroke-opacity:1"
         d="m 462.44944,592.25666 2.85944,-1.6509 8.09966,4.92727 -2.57634,1.85751 z"
         id="path12355"
         sodipodi:nodetypes="ccccc" />
      <path
         style="fill:#b1b5b2;fill-opacity:1;stroke:none;stroke-width:0.604724;stroke-linecap:round;stroke-linejoin:round;stroke-dasharray:none;stroke-opacity:1"
         d="m 473.40854,595.53303 -2.55219,1.85519 0.82165,14.91478 2.54594,-2.54594 z"
         id="path12357"
         sodipodi:nodetypes="ccccc" />
      <path
         style="fill:#11b2e4;fill-opacity:1;stroke:none;stroke-width:0.5;stroke-linecap:round;stroke-linejoin:round;stroke-dasharray:none;stroke-opacity:1"
         d="m 595.84195,564.50937 -58.39363,-33.71358 94.84197,-54.75704 58.39364,33.71358 z"
         id="path10324" />
      <path
         style="fill:#001d41;fill-opacity:1;stroke:none;stroke-width:0.5;stroke-linecap:round;stroke-linejoin:round;stroke-dasharray:none;stroke-opacity:1"
         d="m 693.962,576.64479 3.00774,-1.91418 V 506.08182 L 693.962,507.996 Z"
         id="path9608" />
      <path
         style="fill:#31446b;fill-opacity:1;stroke:none;stroke-width:0.5;stroke-linecap:round;stroke-linejoin:round;stroke-dasharray:none;stroke-opacity:1"
         d="m 629.01222,470.49723 64.94978,37.49877 3.00774,-1.91418 -64.94978,-37.49877 z"
         id="path11148" />
      <path
         style="fill:#001d41;fill-opacity:1;stroke:none;stroke-width:0.5;stroke-linecap:round;stroke-linejoin:round;stroke-dasharray:none;stroke-opacity:1"
         d="M 693.962,576.64479 V 507.996 l -3.27807,1.75633 v 64.99987 z"
         id="path10316" />
      <path
         style="fill:#31446b;fill-opacity:1;stroke:none;stroke-width:0.5;stroke-linecap:round;stroke-linejoin:round;stroke-dasharray:none;stroke-opacity:1"
         d="m 632.29029,476.03875 58.39364,33.71358 3.27807,-1.75633 -64.94978,-37.49877 v 7.43411 z"
         id="path11150" />
      <path
         style="fill:#31446b;fill-opacity:1;stroke:none;stroke-width:0.5;stroke-linecap:round;stroke-linejoin:round;stroke-dasharray:none;stroke-opacity:1"
         d="m 527.88443,528.92478 64.94978,37.49877 3.00774,-1.91418 -64.94978,-37.49877 z"
         id="path11210" />
      <path
         id="path11226"
         style="fill:#31446b;fill-opacity:1;stroke:none;stroke-width:0.5;stroke-linecap:round;stroke-linejoin:round;stroke-dasharray:none;stroke-opacity:1"
         d="m 527.88477,528.92383 -0.125,68.71484 65.07421,37.4336 v -68.64844 z" />
      <path
         style="fill:#00001c;fill-opacity:1;stroke:none;stroke-width:0.604724;stroke-linecap:round;stroke-linejoin:round;stroke-dasharray:none;stroke-opacity:1"
         d="m 571.05364,663.75369 -13.8373,-6.59636 c -12.73769,-3.29262 -31.44967,19.3091 -25.12421,38.38846 l 17.25541,8.70193 z"
         id="path7472"
         sodipodi:nodetypes="ccccc" />
      <path
         style="fill:#9a9fa2;fill-opacity:1;stroke:none;stroke-width:0.604724;stroke-linecap:round;stroke-linejoin:round;stroke-dasharray:none;stroke-opacity:1"
         d="m 580.73242,671.78711 -23.13385,-13.35634 26.21689,-7.02479 z"
         id="path9660" />
      <path
         id="path760"
         style="fill:#b1b5b2;fill-opacity:1;stroke:none;stroke-width:0.5;stroke-linecap:round;stroke-linejoin:round;stroke-opacity:1"
         d="m 588.8125,584.8418 -41.57422,24.00195 -12.93555,48.48633 v 41.34765 l 5.57032,-3.22656 a 16.660484,28.553757 30.865034 0 1 2.10156,-11.37305 16.660484,28.553757 30.865034 0 1 27.44922,-25.95703 16.660484,28.553757 30.865034 0 1 11.30859,13.66602 l 8.05274,-4.66406 z" />
      <path
         style="fill:#e3e9e3;fill-opacity:1;stroke:none;stroke-width:0.5;stroke-linecap:round;stroke-linejoin:round;stroke-opacity:1"
         d="m 534.30251,698.67766 v -41.34702 l 12.93582,-48.48628 -65.26024,-37.45995 -12.93582,48.48628 v 41.34702 z"
         id="path3655" />
      <path
         style="fill:#9a9fa2;fill-opacity:1;stroke:none;stroke-width:0.5;stroke-linecap:round;stroke-linejoin:round;stroke-opacity:1"
         d="m 468.594,653.241 65.70851,37.93683 8.23749,-4.75592 2.71787,2.71787 -10.95536,6.32508 -72.59346,-41.91185 7.33322,-4.23384 z"
         id="path3657" />
      <path
         style="fill:#9a9fa2;fill-opacity:1;stroke:none;stroke-width:0.5;stroke-linecap:round;stroke-linejoin:round;stroke-opacity:1"
         d="m 545.25787,689.13978 0.1123,9.78786 -11.31766,6.16836 v -9.77548 z"
         id="path3713" />
      <path
         style="fill:#9a9fa2;fill-opacity:1;stroke:none;stroke-width:0.5;stroke-linecap:round;stroke-linejoin:round;stroke-opacity:1"
         d="m 534.05251,695.32052 v 9.77548 l -72.59344,-42.32974 0.24998,-9.21325 z"
         id="path4441" />
      <path
         style="fill:#3f4548;fill-opacity:1;stroke:none;stroke-width:0.604724;stroke-linecap:round;stroke-linejoin:round;stroke-dasharray:none;stroke-opacity:1"
         d="m 673.7832,618.49414 -22.96464,-13.25864 23.81921,-5.96386 z"
         id="path8932" />
      <path
         style="fill:#00001c;fill-opacity:1;stroke:none;stroke-width:0.604724;stroke-linecap:round;stroke-linejoin:round;stroke-dasharray:none;stroke-opacity:1"
         d="m 664.44,609.3215 -13.8373,-6.59636 c -12.73769,-3.29262 -31.44967,19.3091 -25.12421,38.38846 l 17.25541,8.70193 z"
         id="path7466"
         sodipodi:nodetypes="ccccc" />
      <path
         id="path5169"
         style="fill:#6b7073;fill-opacity:1;stroke:none;stroke-width:0.5;stroke-linecap:round;stroke-linejoin:round;stroke-opacity:1"
         d="m 683.46484,578.39844 -94.40234,54.5039 v 33.05469 l 44.52734,-24.92578 a 16.389916,28.090043 30.865033 0 1 2.06836,-11.38477 16.389916,28.090043 30.865033 0 1 27.00391,-25.53515 16.389916,28.090043 30.865033 0 1 11.12109,14.38281 c 4.90967,-3.16688 8.41686,-6.23572 9.68164,-12.91992 z" />
      <ellipse
         style="fill:#001d41;fill-opacity:1;stroke:none;stroke-width:0.62259;stroke-linecap:round;stroke-linejoin:round;stroke-dasharray:none;stroke-opacity:1"
         id="ellipse7470"
         cx="800.72009"
         cy="725.09644"
         rx="14.755333"
         ry="22.151962"
         transform="matrix(1,0,-0.33156864,0.9434311,0,0)" />
      <ellipse
         style="fill:#9a9fa2;fill-opacity:1;stroke:none;stroke-width:0.64176;stroke-linecap:round;stroke-linejoin:round;stroke-dasharray:none;stroke-opacity:1"
         id="ellipse7468"
         cx="800.72009"
         cy="725.09644"
         rx="8.2894011"
         ry="12.444754"
         transform="matrix(1,0,-0.33156864,0.9434311,0,0)" />
      <path
         style="fill:#3f4548;fill-opacity:1;stroke:none;stroke-width:0.604724;stroke-linecap:round;stroke-linejoin:round;stroke-dasharray:none;stroke-opacity:1"
         d="m 584.46223,637.1046 v 3.59743 l -10.36175,5.98235 v -3.70398 z"
         id="path10869" />
      <path
         style="fill:#11b2e4;fill-opacity:1;stroke:none;stroke-width:0.604724;stroke-linecap:round;stroke-linejoin:round;stroke-dasharray:none;stroke-opacity:1"
         d="m 550.89495,616.10016 28.65903,-16.5463 v 32.23285 l -37.4654,21.63066 z"
         id="path10879" />
      <path
         style="fill:#63e4ff;fill-opacity:1;stroke:none;stroke-width:0.604724;stroke-linecap:round;stroke-linejoin:round;stroke-dasharray:none;stroke-opacity:1"
         d="m 529.78131,652.2138 9.49218,-35.42529 -56.11573,-32.39843 -9.45181,35.27462 z"
         id="path10881" />
      <ellipse
         style="fill:#ffff00;stroke:none;stroke-width:0.377237;stroke-linecap:round;stroke-linejoin:round;stroke-dasharray:none;stroke-opacity:1"
         id="ellipse11609"
         cx="-289.07147"
         cy="710.60651"
         rx="4.8726411"
         ry="7.3152232"
         transform="matrix(-1,0,0.33156864,0.9434311,0,0)" />
      <ellipse
         style="fill:#ffff00;stroke:none;stroke-width:0.377237;stroke-linecap:round;stroke-linejoin:round;stroke-dasharray:none;stroke-opacity:1"
         id="ellipse11611"
         cx="-252.09836"
         cy="682.51642"
         rx="4.8726411"
         ry="7.3152232"
         transform="matrix(-1,0,0.33156864,0.9434311,0,0)" />
      <path
         style="fill:#b1b5b2;fill-opacity:1;stroke:none;stroke-width:0.604724;stroke-linecap:round;stroke-linejoin:round;stroke-dasharray:none;stroke-opacity:1"
         d="m 487.45157,638.7834 3.7806,2.18273 v 15.2648 l -3.93096,-2.26954 z"
         id="path11617" />
      <path
         style="fill:#b1b5b2;fill-opacity:1;stroke:none;stroke-width:0.604724;stroke-linecap:round;stroke-linejoin:round;stroke-dasharray:none;stroke-opacity:1"
         d="m 493.74707,642.41081 3.7806,2.18273 v 15.2648 l -3.93096,-2.26954 z"
         id="path11619" />
      <path
         style="fill:#b1b5b2;fill-opacity:1;stroke:none;stroke-width:0.604724;stroke-linecap:round;stroke-linejoin:round;stroke-dasharray:none;stroke-opacity:1"
         d="m 499.92266,645.9183 3.7806,2.18273 v 15.2648 l -3.93096,-2.26954 z"
         id="path11621" />
      <path
         style="fill:#b1b5b2;fill-opacity:1;stroke:none;stroke-width:0.604724;stroke-linecap:round;stroke-linejoin:round;stroke-dasharray:none;stroke-opacity:1"
         d="m 506.18818,649.51573 3.7806,2.18273 v 15.2648 l -3.93096,-2.26954 z"
         id="path11623" />
      <path
         style="fill:#b1b5b2;fill-opacity:1;stroke:none;stroke-width:0.604724;stroke-linecap:round;stroke-linejoin:round;stroke-dasharray:none;stroke-opacity:1"
         d="m 512.15392,652.96327 3.7806,2.18273 v 15.2648 l -3.93096,-2.26954 z"
         id="path11625" />
      <path
         style="fill:#4119ff;fill-opacity:1;stroke:none;stroke-width:0.5;stroke-linecap:round;stroke-linejoin:round;stroke-dasharray:none;stroke-opacity:1"
         d="m 690.68393,509.75233 v 64.99987 l -94.84198,54.75704 v -64.99987 l 94.84198,-54.75704 -94.84198,54.75704 v 64.99987 l 94.84198,-54.75704 v -64.99987"
         id="path10320"
         sodipodi:nodetypes="ccccccccc" />
      <path
         style="fill:#0a81b0;fill-opacity:1;stroke:none;stroke-width:0.604724;stroke-linecap:round;stroke-linejoin:round;stroke-opacity:1"
         d="m 595.84195,629.50924 94.84198,-54.75704 v -64.99987 l -94.84198,54.75704 z"
         id="path2243" />
      <path
         style="fill:#001d41;fill-opacity:1;stroke:none;stroke-width:0.5;stroke-linecap:round;stroke-linejoin:round;stroke-dasharray:none;stroke-opacity:1"
         d="m 677.23853,586.30009 3.00774,-1.91418 v -68.64879 l -3.00774,1.91418 z"
         id="path11158" />
      <path
         style="fill:#31446b;fill-opacity:1;stroke:none;stroke-width:0.5;stroke-linecap:round;stroke-linejoin:round;stroke-dasharray:none;stroke-opacity:1"
         d="m 612.28875,480.15253 64.94978,37.49877 3.00774,-1.91418 -64.94978,-37.49877 z"
         id="path11160" />
      <path
         style="fill:#001d41;fill-opacity:1;stroke:none;stroke-width:0.5;stroke-linecap:round;stroke-linejoin:round;stroke-dasharray:none;stroke-opacity:1"
         d="M 677.23853,586.30009 V 517.6513 l -3.27807,1.75633 v 64.99987 z"
         id="path11162" />
      <path
         style="fill:#31446b;fill-opacity:1;stroke:none;stroke-width:0.5;stroke-linecap:round;stroke-linejoin:round;stroke-dasharray:none;stroke-opacity:1"
         d="m 615.56682,485.69405 58.39364,33.71358 3.27807,-1.75633 -64.94978,-37.49877 v 7.43411 z"
         id="path11164" />
      <path
         style="fill:#001d41;fill-opacity:1;stroke:none;stroke-width:0.5;stroke-linecap:round;stroke-linejoin:round;stroke-dasharray:none;stroke-opacity:1"
         d="m 660.22472,596.12302 3.00774,-1.91418 v -68.64879 l -3.00774,1.91418 z"
         id="path11168" />
      <path
         style="fill:#31446b;fill-opacity:1;stroke:none;stroke-width:0.5;stroke-linecap:round;stroke-linejoin:round;stroke-dasharray:none;stroke-opacity:1"
         d="m 595.27494,489.97546 64.94978,37.49877 3.00774,-1.91418 -64.94978,-37.49877 z"
         id="path11170" />
      <path
         style="fill:#001d41;fill-opacity:1;stroke:none;stroke-width:0.5;stroke-linecap:round;stroke-linejoin:round;stroke-dasharray:none;stroke-opacity:1"
         d="m 660.22472,596.12302 v -68.64879 l -3.27807,1.75633 v 64.99987 z"
         id="path11172" />
      <path
         style="fill:#31446b;fill-opacity:1;stroke:none;stroke-width:0.5;stroke-linecap:round;stroke-linejoin:round;stroke-dasharray:none;stroke-opacity:1"
         d="m 598.55301,495.51698 58.39364,33.71358 3.27807,-1.75633 -64.94978,-37.49877 v 7.43411 z"
         id="path11174" />
      <path
         style="fill:#001d41;fill-opacity:1;stroke:none;stroke-width:0.5;stroke-linecap:round;stroke-linejoin:round;stroke-dasharray:none;stroke-opacity:1"
         d="m 643.31375,605.88658 3.00774,-1.91418 v -68.64879 l -3.00774,1.91418 z"
         id="path11178" />
      <path
         style="fill:#31446b;fill-opacity:1;stroke:none;stroke-width:0.5;stroke-linecap:round;stroke-linejoin:round;stroke-dasharray:none;stroke-opacity:1"
         d="m 578.36397,499.73902 64.94978,37.49877 3.00774,-1.91418 -64.94978,-37.49877 z"
         id="path11180" />
      <path
         style="fill:#001d41;fill-opacity:1;stroke:none;stroke-width:0.5;stroke-linecap:round;stroke-linejoin:round;stroke-dasharray:none;stroke-opacity:1"
         d="m 643.31375,605.88658 v -68.64879 l -3.27807,1.75633 v 64.99987 z"
         id="path11182" />
      <path
         style="fill:#31446b;fill-opacity:1;stroke:none;stroke-width:0.5;stroke-linecap:round;stroke-linejoin:round;stroke-dasharray:none;stroke-opacity:1"
         d="m 581.64204,505.28054 58.39364,33.71358 3.27807,-1.75633 -64.94978,-37.49877 v 7.43411 z"
         id="path11184" />
      <path
         style="fill:#001d41;fill-opacity:1;stroke:none;stroke-width:0.5;stroke-linecap:round;stroke-linejoin:round;stroke-dasharray:none;stroke-opacity:1"
         d="m 626.60953,615.53076 3.00774,-1.91418 v -68.64879 l -3.00774,1.91418 z"
         id="path11188" />
      <path
         style="fill:#31446b;fill-opacity:1;stroke:none;stroke-width:0.5;stroke-linecap:round;stroke-linejoin:round;stroke-dasharray:none;stroke-opacity:1"
         d="m 561.65975,509.3832 64.94978,37.49877 3.00774,-1.91418 -64.94978,-37.49877 z"
         id="path11190" />
      <path
         style="fill:#001d41;fill-opacity:1;stroke:none;stroke-width:0.5;stroke-linecap:round;stroke-linejoin:round;stroke-dasharray:none;stroke-opacity:1"
         d="m 626.60953,615.53076 v -68.64879 l -3.27807,1.75633 v 64.99987 z"
         id="path11192" />
      <path
         style="fill:#31446b;fill-opacity:1;stroke:none;stroke-width:0.5;stroke-linecap:round;stroke-linejoin:round;stroke-dasharray:none;stroke-opacity:1"
         d="m 564.93782,514.92472 58.39364,33.71358 3.27807,-1.75633 -64.94978,-37.49877 v 7.43411 z"
         id="path11194" />
      <path
         style="fill:#001d41;fill-opacity:1;stroke:none;stroke-width:0.5;stroke-linecap:round;stroke-linejoin:round;stroke-dasharray:none;stroke-opacity:1"
         d="m 609.77341,625.2511 3.00774,-1.91418 v -68.64879 l -3.00774,1.91418 z"
         id="path11198" />
      <path
         style="fill:#31446b;fill-opacity:1;stroke:none;stroke-width:0.5;stroke-linecap:round;stroke-linejoin:round;stroke-dasharray:none;stroke-opacity:1"
         d="m 544.82363,519.10354 64.94978,37.49877 3.00774,-1.91418 -64.94978,-37.49877 z"
         id="path11200" />
      <path
         style="fill:#001d41;fill-opacity:1;stroke:none;stroke-width:0.5;stroke-linecap:round;stroke-linejoin:round;stroke-dasharray:none;stroke-opacity:1"
         d="m 609.77341,625.2511 v -68.64879 l -3.27807,1.75633 v 64.99987 z"
         id="path11202" />
      <path
         style="fill:#31446b;fill-opacity:1;stroke:none;stroke-width:0.5;stroke-linecap:round;stroke-linejoin:round;stroke-dasharray:none;stroke-opacity:1"
         d="m 548.1017,524.64506 58.39364,33.71358 3.27807,-1.75633 -64.94978,-37.49877 v 7.43411 z"
         id="path11204" />
      <path
         style="fill:#001d41;fill-opacity:1;stroke:none;stroke-width:0.5;stroke-linecap:round;stroke-linejoin:round;stroke-dasharray:none;stroke-opacity:1"
         d="m 592.83421,635.07234 3.00774,-1.91418 v -68.64879 l -3.00774,1.91418 z"
         id="path11208" />
      <path
         style="fill:#e3e9e3;fill-opacity:1;stroke:none;stroke-width:0.5;stroke-linecap:round;stroke-linejoin:round;stroke-opacity:1"
         d="m 547.23833,608.84436 41.57348,-24.00246 -65.26024,-37.45995 -41.57348,24.00246 z"
         id="path2201" />
      <path
         style="fill:#31446b;fill-opacity:1;stroke:none;stroke-width:0.5;stroke-linecap:round;stroke-linejoin:round;stroke-opacity:1"
         d="m 588.16112,641.79219 29.81032,-17.21099 4.15482,2.11981 -29.81032,17.21099 z"
         id="path5952" />
      <path
         style="fill:#001d41;fill-opacity:1;stroke:none;stroke-width:0.5;stroke-linecap:round;stroke-linejoin:round;stroke-opacity:1"
         d="m 592.31594,643.912 29.81032,-17.21099 v 27.9372 l -29.70737,16.99638 z"
         id="path5946"
         sodipodi:nodetypes="ccccc" />
      <path
         style="fill:#31446b;fill-opacity:1;stroke:none;stroke-width:0.5;stroke-linecap:round;stroke-linejoin:round;stroke-opacity:1"
         d="m 592.41889,671.63459 -4.15482,-2.11981 -0.10295,-27.72259 4.15482,2.11981 z"
         id="path5950" />
      <ellipse
         style="fill:#00001c;fill-opacity:1;stroke:none;stroke-width:0.62259;stroke-linecap:round;stroke-linejoin:round;stroke-dasharray:none;stroke-opacity:1"
         id="path6006"
         cx="841.2038"
         cy="676.05035"
         rx="2.596559"
         ry="3.8981752"
         transform="matrix(1,0,-0.33156864,0.9434311,0,0)" />
      <ellipse
         style="fill:#001d41;fill-opacity:1;stroke:none;stroke-width:0.62259;stroke-linecap:round;stroke-linejoin:round;stroke-dasharray:none;stroke-opacity:1"
         id="ellipse7462"
         cx="874.97632"
         cy="667.40045"
         rx="14.755333"
         ry="22.151962"
         transform="matrix(1,0,-0.33156864,0.9434311,0,0)" />
      <ellipse
         style="fill:#9a9fa2;fill-opacity:1;stroke:none;stroke-width:0.64176;stroke-linecap:round;stroke-linejoin:round;stroke-dasharray:none;stroke-opacity:1"
         id="ellipse6008"
         cx="874.97632"
         cy="667.40045"
         rx="8.2894011"
         ry="12.444754"
         transform="matrix(1,0,-0.33156864,0.9434311,0,0)" />
      <path
         style="fill:#999ea1;fill-opacity:1;stroke:none;stroke-width:0.604724;stroke-linecap:round;stroke-linejoin:round;stroke-dasharray:none;stroke-opacity:1"
         d="m 538.4751,647.71701 v 3.7773 l 12.16605,7.02408 v -15.35812 l -8.18867,-4.72773 v 11.32302 z"
         id="path10871" />
      <path
         style="fill:#6b7073;fill-opacity:1;stroke:none;stroke-width:0.604724;stroke-linecap:round;stroke-linejoin:round;stroke-dasharray:none;stroke-opacity:1"
         d="m 550.64115,658.51839 2.81263,-1.62387 -0.0494,-15.13476 -2.76328,1.59538 z"
         id="path10873" />
      <path
         style="fill:#9a9fa2;fill-opacity:1;stroke:none;stroke-width:0.604724;stroke-linecap:round;stroke-linejoin:round;stroke-dasharray:none;stroke-opacity:1"
         d="m 550.64115,643.16027 2.76323,-1.40051 -8.43406,-4.86941 -2.51784,1.54219 z"
         id="path10875" />
      <path
         style="fill:#9a9fa2;fill-opacity:1;stroke:none;stroke-width:0.604724;stroke-linecap:round;stroke-linejoin:round;stroke-dasharray:none;stroke-opacity:1"
         d="m 538.4751,647.71701 2.7695,-1.59897 3.72954,2.15325 -2.54771,1.47092 z"
         id="path10877" />
    </g>
  </g>
</svg>
