<?xml version="1.0" encoding="UTF-8" standalone="no"?>
<!-- Created with Inkscape (http://www.inkscape.org/) -->

<svg
   id="svg2"
   version="1.1"
   inkscape:version="1.2.1 (9c6d41e410, 2022-07-14)"
   width="171.89999"
   height="211.65411"
   xml:space="preserve"
   sodipodi:docname="Office_365_(2013-2019).svg"
   xmlns:inkscape="http://www.inkscape.org/namespaces/inkscape"
   xmlns:sodipodi="http://sodipodi.sourceforge.net/DTD/sodipodi-0.dtd"
   xmlns="http://www.w3.org/2000/svg"
   xmlns:svg="http://www.w3.org/2000/svg"
   xmlns:rdf="http://www.w3.org/1999/02/22-rdf-syntax-ns#"
   xmlns:cc="http://creativecommons.org/ns#"
   xmlns:dc="http://purl.org/dc/elements/1.1/"><metadata
     id="metadata8"><rdf:RDF><cc:Work
         rdf:about=""><dc:format>image/svg+xml</dc:format><dc:type
           rdf:resource="http://purl.org/dc/dcmitype/StillImage" /></cc:Work></rdf:RDF></metadata><defs
     id="defs6" /><sodipodi:namedview
     pagecolor="#ffffff"
     bordercolor="#666666"
     borderopacity="1"
     objecttolerance="10"
     gridtolerance="10"
     guidetolerance="10"
     inkscape:pageopacity="0"
     inkscape:pageshadow="2"
     inkscape:window-width="1920"
     inkscape:window-height="1001"
     id="namedview4"
     showgrid="false"
     inkscape:zoom="0.74860181"
     inkscape:cx="522.97496"
     inkscape:cy="92.839743"
     inkscape:window-x="-9"
     inkscape:window-y="-9"
     inkscape:window-maximized="1"
     inkscape:current-layer="g10"
     inkscape:showpageshadow="2"
     inkscape:pagecheckerboard="0"
     inkscape:deskcolor="#d1d1d1" /><g
     id="g10"
     inkscape:groupmode="layer"
     inkscape:label="Office 365 2013"
     transform="matrix(1.25,0,0,-1.25,-44.29975,283.3775)"><path
       d="m 126.24263,81.329109 c 0.25028,1.576069 0.31437,115.533541 0.0763,118.020341 -19.36311,-4.61218 -38.697744,-9.22026 -58.111731,-13.84476 v -80.33125 c -9.994917,-3.9068 -19.954225,-7.797178 -29.909463,-11.683446 -0.0641,0.03594 -0.119036,0.05545 -0.170923,0.09241 -0.04375,0.03183 -0.09971,0.08009 -0.103775,0.124238 -0.03154,0.300839 -0.07122,0.601678 -0.07122,0.906624 -0.0041,32.458804 -0.0041,64.921714 -0.0041,97.300424 0.44562,0.54932 1.021467,0.61811 1.522027,0.8019 28.455602,10.65669 56.919343,21.30208 85.378005,31.95774 0.98585,0.36964 1.88015,0.55034 2.97283,0.22897 15.61502,-4.5321 31.24531,-9.01183 46.87152,-13.50799 0.22688,-0.0688 0.45376,-0.14888 0.77526,-0.25258 V 74.330748 c -4.48672,-1.247507 -8.93377,-2.495015 -13.38489,-3.721987 -11.33076,-3.124415 -22.66864,-6.225215 -33.99126,-9.373245 -1.10896,-0.309053 -2.07854,-0.285438 -3.16818,0.116023 -27.989634,10.343529 -55.992494,20.655228 -83.986197,30.971035 -0.552447,0.204324 -1.093703,0.433291 -1.558654,0.926133 28.956162,-3.974568 57.912324,-7.94503 86.864421,-11.919598 z"
       style="fill:#dc3e15;fill-opacity:1;fill-rule:nonzero;stroke:none;stroke-width:1.02207"
       id="path14"
       inkscape:connector-curvature="0" /></g></svg>
