<?xml version="1.0" encoding="UTF-8" standalone="no"?>
<!-- Created with Inkscape (http://www.inkscape.org/) -->

<svg
   width="702.34399mm"
   height="193.104mm"
   viewBox="0 0 702.34399 193.104"
   version="1.1"
   id="svg381"
   inkscape:version="1.2.1 (9c6d41e410, 2022-07-14)"
   sodipodi:docname="logo-dark.svg"
   xml:space="preserve"
   xmlns:inkscape="http://www.inkscape.org/namespaces/inkscape"
   xmlns:sodipodi="http://sodipodi.sourceforge.net/DTD/sodipodi-0.dtd"
   xmlns="http://www.w3.org/2000/svg"
   xmlns:svg="http://www.w3.org/2000/svg"><sodipodi:namedview
     id="namedview383"
     pagecolor="#505050"
     bordercolor="#eeeeee"
     borderopacity="1"
     inkscape:showpageshadow="0"
     inkscape:pageopacity="0"
     inkscape:pagecheckerboard="0"
     inkscape:deskcolor="#505050"
     inkscape:document-units="mm"
     showgrid="false"
     inkscape:zoom="0.2973261"
     inkscape:cx="1363.8224"
     inkscape:cy="834.10101"
     inkscape:window-width="1536"
     inkscape:window-height="801"
     inkscape:window-x="1912"
     inkscape:window-y="-8"
     inkscape:window-maximized="1"
     inkscape:current-layer="layer1" /><defs
     id="defs378" /><g
     inkscape:label="Layer 1"
     inkscape:groupmode="layer"
     id="layer1"><path
       id="ltr-f-02"
       style="fill:#001d41;stroke-width:0.377571;stroke-linecap:round;fill-opacity:1"
       d="M 438.68234,0.10331 427.94346,0.62214 C 403.83512,1.78646 395.98317,9.7711 394.78682,34.33998 l -0.55913,11.48818 h -14.95 V 63.3103 h 15.44919 v 42.45736 42.45684 h 8.99118 8.99067 V 105.76766 63.3103 h 25.97361 V 54.81883 46.32788 45.82816 H 412.7139 l 0.0718,-7.24245 c 0.15722,-15.85352 3.2858,-19.58136 17.42219,-20.75894 l 8.47442,-0.7059 V 8.61183 Z" /><path
       id="ltr-f-01"
       style="fill:#001d41;stroke-width:0.377571;stroke-linecap:round;fill-opacity:1"
       d="M 379.27769,0.10331 368.53881,0.62214 C 344.43048,1.78646 336.57852,9.7711 335.38218,34.33998 l -0.55914,11.48819 H 319.87305 V 63.3103 h 15.44919 v 42.45736 42.45684 h 8.99118 8.99066 V 105.76766 63.3103 h 25.97361 v -8.49147 -8.49095 -0.49971 h -25.96844 l 0.0718,-7.24245 c 0.15722,-15.85353 3.28581,-19.58137 17.42219,-20.75894 l 8.47442,-0.7059 V 8.61183 Z" /><path
       style="fill:#00b2e2;fill-opacity:1;stroke-width:0.377571;stroke-linecap:round"
       d="M 27.09975,64.410485 V 54.59657 l 7.242652,-6.513623 C 38.325861,44.500453 46.080492,37.57263 51.574919,32.687796 57.069345,27.802961 61.789555,23.574582 62.064277,23.291394 68.003951,17.168916 82.028307,5.7103046 86.126859,3.631065 90.851458,1.2342212 92.669843,0.89096228 100.52526,0.91305767 c 7.27061,0.0191658 9.89237,0.46003323 13.70245,2.29745553 7.05106,3.4003909 13.17035,9.3038588 16.13554,15.5664378 2.62102,5.535677 2.62907,5.629124 2.62907,30.500078 V 74.224427 H 120.50499 108.01765 V 52.180999 c 0,-12.201258 -0.42898,-22.844968 -0.9608,-23.838686 -0.52845,-0.98742 -2.28046,-2.34192 -3.89336,-3.009984 -3.637727,-1.506813 -6.582505,-0.13197 -13.128859,6.129843 C 87.561434,33.82783 79.247708,41.607463 71.559678,48.750216 63.87165,55.892998 54.65657,64.541798 51.08173,67.969787 l -6.499716,6.232709 -8.741134,0.01095 -8.74113,0.01095 z"
       id="flc-azul"
       inkscape:export-filename="path371.png"
       inkscape:export-xdpi="96"
       inkscape:export-ydpi="96" /><path
       style="fill:#001d41;stroke-width:0.377571;stroke-linecap:round;fill-opacity:1"
       d="M 21.605324,146.45003 C 13.127232,143.06261 7.1944908,137.4799 3.2405355,129.16875 0.67225224,123.77027 0.62113721,123.24206 0.31330529,98.919055 L 1.8612401e-7,74.163781 12.800634,74.443847 l 12.800637,0.280067 0.127233,21.716378 c 0.138925,23.711428 0.597498,25.822288 5.89875,27.152828 3.493523,0.87681 6.050331,-0.84009 17.731404,-11.90665 C 54.578237,106.74148 62.831476,99.035501 67.699194,94.562046 72.566909,90.088619 79.471616,83.69207 83.04299,80.347507 l 6.493413,-6.081025 8.741134,-0.0219 8.741123,-0.0219 v 9.847537 9.847537 l -8.241629,7.338004 c -4.532903,4.0359 -8.960887,8.03347 -9.83997,8.88349 -0.879084,0.85003 -3.126803,2.90143 -4.994937,4.55867 -1.868126,1.65726 -9.959541,8.87402 -17.980921,16.03725 -16.955791,15.14178 -21.363687,17.44636 -33.206177,17.36115 -4.101997,-0.0296 -8.858413,-0.73257 -11.149705,-1.64803 z"
       id="flc-blanco" /><path
       style="fill:#001d41;stroke-width:0.377571;stroke-linecap:round;fill-opacity:1"
       d="m 166.45837,147.44952 c -9.7628,-2.28806 -18.05422,-6.80678 -22.91958,-12.49088 -3.74535,-4.3756 -7.06175,-10.60658 -6.13733,-11.53103 0.72821,-0.72819 15.65217,-7.2457 16.59143,-7.2457 0.37807,0 1.90505,1.92638 3.39328,4.28081 8.47336,13.40528 26.68474,12.89498 32.60376,-0.91355 1.84099,-4.29486 1.94259,-7.24447 1.94259,-56.396425 V 11.288173 h 9.55248 9.55248 l -0.35605,54.195102 c -0.32763,49.869365 -0.50445,54.593775 -2.21531,59.190025 -4.21919,11.33497 -11.19794,18.06054 -22.29795,21.48899 -5.94933,1.83756 -14.87448,2.42045 -19.7098,1.28723 z"
       id="ltr-j" /><path
       style="fill:#001d41;stroke-width:0.377571;stroke-linecap:round;fill-opacity:1"
       d="m 256.86665,145.74125 c -10.54002,-3.19685 -15.56481,-6.12661 -22.63704,-13.19886 -12.02476,-12.02477 -17.35654,-29.43972 -14.00899,-45.7568 3.94368,-19.222884 16.23265,-33.026153 35.2184,-39.558231 7.94715,-2.734216 22.87971,-2.734216 30.82687,0 18.81525,6.473403 30.94591,20.34901 35.23632,40.30482 1.82436,8.485672 1.16755,16.034191 -2.28948,26.312551 -2.66125,7.91228 -10.02683,18.0513 -16.6619,22.93576 -14.59151,10.7417 -29.90762,13.74588 -45.68418,8.96076 z m 25.41506,-17.72152 c 14.95621,-5.72342 23.83214,-22.3845 20.50729,-38.494338 -1.57613,-7.63693 -3.86546,-11.964424 -9.12864,-17.255983 -6.65536,-6.691209 -13.58733,-9.495818 -23.3074,-9.42997 -6.62639,0.0449 -8.8817,0.509755 -13.19969,2.720718 -7.79008,3.988862 -11.91939,8.135349 -15.44416,15.508448 -2.86361,5.990097 -3.17158,7.534831 -3.13705,15.735152 0.0351,8.342013 0.31176,9.606103 3.34947,15.305423 8.15045,15.29185 24.81257,21.86029 40.36018,15.91055 z"
       id="ltr-o-01" /><path
       style="fill:#001d41;stroke-width:0.377571;stroke-linecap:round;fill-opacity:1"
       d="M 446.67408,97.201145 V 46.252752 h 8.99087 8.9909 v 7.991907 c 0,4.39556 0.33792,7.991907 0.75094,7.991907 0.41302,0 1.81904,-2.013364 3.12448,-4.474139 2.55033,-4.807405 7.02238,-8.740796 12.57615,-11.061305 4.79324,-2.002741 20.63088,-1.953211 24.55646,0.07694 1.62106,0.838256 2.94736,1.771793 2.94736,2.074448 0,0.302682 -1.63695,4.36076 -3.63763,9.01796 -2.90394,6.759685 -3.96178,8.324625 -5.24468,7.758742 -0.88387,-0.389859 -4.10078,-1.158407 -7.14865,-1.707862 -6.80956,-1.227595 -15.51199,1.122402 -20.55575,5.550927 -6.0949,5.351384 -6.71491,9.329815 -6.96787,44.711823 -0.12376,17.30745 -0.26449,32.03002 -0.3129,32.71684 -0.0635,0.89997 -2.59898,1.24874 -9.07881,1.24874 h -8.99087 z"
       id="ltr-r" /><path
       style="fill:#001d41;stroke-width:0.377571;stroke-linecap:round;fill-opacity:1"
       d="m 541.07831,146.22319 c -17.31836,-6.17283 -29.3847,-18.3569 -34.20297,-34.53672 -2.00911,-6.74654 -1.96936,-22.487006 0.0739,-29.291155 3.68185,-12.260316 11.92851,-22.854934 22.83206,-29.332609 12.06673,-7.168709 25.58731,-9.397661 38.12535,-6.285195 18.5739,4.610792 32.08753,17.296176 38.05593,35.723462 2.31057,7.133773 2.07409,22.848827 -0.45439,30.198027 -5.5208,16.04654 -18.23582,28.67722 -33.66657,33.44331 -8.4878,2.6216 -23.52431,2.66114 -30.7634,0.0808 z m 30.19321,-19.15247 c 6.91533,-3.33265 11.87329,-8.60488 15.48157,-16.46282 3.39272,-7.38862 3.23137,-19.861841 -0.35594,-27.512487 -3.65797,-7.801372 -8.91612,-13.242206 -16.25079,-16.815417 -5.3085,-2.586147 -7.36526,-3.036049 -13.66271,-2.988628 -8.99544,0.06763 -14.25529,2.016951 -20.90936,7.748611 -9.74238,8.391897 -14.12605,23.052725 -10.5511,35.287301 6.0871,20.83183 26.79349,30.11912 46.24833,20.74344 z"
       id="ltr-o-02" /><path
       style="fill:#001d41;stroke-width:0.377571;stroke-linecap:round;fill-opacity:1"
       d="m 623.91795,189.35778 c 0.73347,-2.0604 5.20898,-13.52597 9.94554,-25.47906 4.73657,-11.95306 8.61194,-22.34904 8.61194,-23.10217 0,-1.28205 -2.01,-6.16108 -7.46646,-18.12392 -1.25875,-2.75973 -3.86783,-8.82857 -5.79796,-13.48635 -3.19608,-7.7128 -5.54106,-13.088112 -10.66735,-24.452482 -0.99139,-2.197767 -3.40039,-7.817088 -5.35332,-12.487348 -1.95296,-4.670287 -5.36425,-12.537316 -7.58063,-17.482303 l -4.02976,-8.990882 9.63467,-0.288034 c 6.9078,-0.206443 9.9597,0.07611 10.78314,0.998975 0.63165,0.707874 2.42023,4.433836 3.97457,8.279941 1.55437,3.846104 3.59921,8.791092 4.54411,10.988885 4.86758,11.321604 10.27038,24.310985 14.9587,35.963558 2.87385,7.14278 5.77439,13.57246 6.44568,14.28819 1.19532,1.27447 5.11613,-7.19398 14.24691,-30.771495 1.38308,-3.571377 2.89436,-7.392511 3.35839,-8.491394 5.79454,-13.72239 11.90504,-29.230345 11.90715,-30.219381 0.002,-0.919273 2.7608,-1.248732 10.4565,-1.248732 h 10.45385 l -2.05,4.745198 c -1.12752,2.60983 -6.76233,15.983786 -12.52183,29.719866 -5.75952,13.736107 -11.3799,26.997668 -12.48976,29.470168 -1.10989,2.47249 -2.39542,5.39453 -2.85679,6.49341 -0.46135,1.09889 -2.40667,5.59433 -4.32292,9.98989 -1.91627,4.39553 -8.29545,19.45528 -14.17602,33.46609 -5.88054,14.0108 -11.58648,27.38476 -12.67986,29.71989 l -1.98801,4.24571 h -8.33704 -8.33707 z"
       id="ltr-y" /></g></svg>
